<?xml version="1.0" encoding="utf-8"?>
<!-- Generator: Adobe Illustrator 27.5.0, SVG Export Plug-In . SVG Version: 6.00 Build 0)  -->
<svg version="1.1" xmlns="http://www.w3.org/2000/svg" xmlns:xlink="http://www.w3.org/1999/xlink" x="0px" y="0px"
	 viewBox="0 0 500 500" style="enable-background:new 0 0 500 500;" xml:space="preserve">
<g id="BACKGROUND">
	<g>
		<rect x="0" style="fill:#FFFFFF;" width="500" height="500"/>
	</g>
</g>
<g id="OBJECTS">
	<g>
		<path style="fill-rule:evenodd;clip-rule:evenodd;fill:#010000;" d="M62.891,125.015c-2.098,0.464-3.268-0.027-4.347-1.864
			c-1.865-3.175-2.901-6.553-2.431-10.283c0.04-0.324-0.018-0.706,0.136-0.962c0.834-1.387,0.552-2.783,0.143-4.201
			c-0.275-0.951-0.289-1.939-0.301-2.916c-0.05-4.132-0.353-8.275,0.252-12.389c0.778-5.291,2.089-10.443,4.212-15.288
			c0.045-0.189-0.009-0.265-0.148-0.289c-1.941-0.328-2.102-0.65-1.155-2.436c3.5-6.599,8.417-11.848,14.869-15.645
			c5.08-2.988,10.35-5.503,16.122-6.894c5.788-1.395,11.537-1.286,17.247,0.29c6.505,1.796,12.494,4.742,17.995,8.625
			c5.066,3.576,8.972,8.207,11.846,13.703c0.888,1.696,0.685,2.07-1.418,2.426c0.155,0.391,0.308,0.764,0.452,1.139
			c2.559,6.648,4.319,13.457,4.164,20.652c-0.063,2.989,0.151,5.99-0.374,8.958c-0.104,0.587-0.243,1.171-0.414,1.743
			c-0.111,0.372-0.161,0.692,0.002,1.08c1.304,3.091,0.885,6.183-0.11,9.241c-0.421,1.292-1.067,2.502-1.786,3.659
			c-1.034,1.662-2.179,2.098-4.231,1.603c-0.499,0.883-0.655,1.912-0.97,2.874c-2.26,6.902-5.015,13.553-9.406,19.433
			c-2.562,3.43-5.434,6.517-9.002,8.907c-0.551,0.369-0.874,0.721-0.807,1.433c0.302,3.202,0.17,6.418,0.268,9.629
			c0.021,0.707,0.246,1.039,0.88,1.324c3.005,1.355,5.697,3.165,7.914,5.639c0.285,0.316,0.647,0.604,1.029,0.783
			c2.813,1.317,5.443,2.976,8.1,4.553c7.351,4.361,14.385,9.204,21.001,14.632c3.382,2.775,5.41,6.452,7.113,10.396
			c1.675,3.882,2.186,7.947,2.31,12.102c0.075,2.506-0.071,5.007-0.336,7.499c-0.045,0.43-0.126,0.863-0.254,1.276
			c-0.559,1.806-0.73,1.935-2.648,1.938c-17.746,0.032-35.492,0.082-53.239,0.08c-22.536-0.002-45.07-0.049-67.606-0.077
			c-2.248-0.003-2.619-0.292-3.036-2.499c-0.293-1.554-0.321-3.139-0.392-4.715c-0.157-3.491-0.128-6.993,0.669-10.398
			c1.495-6.387,4.236-12.084,9.518-16.301c3.66-2.924,7.496-5.598,11.327-8.285c5.398-3.786,11.107-7.041,16.907-10.148
			c0.437-0.234,0.829-0.521,1.157-0.892c2.168-2.444,4.827-4.214,7.778-5.548c0.698-0.316,0.935-0.695,0.945-1.45
			c0.044-3.211,0.145-6.421,0.258-9.629c0.02-0.556-0.142-0.897-0.603-1.212c-7.154-4.901-11.785-11.778-15.235-19.564
			c-1.543-3.481-2.923-7.025-3.924-10.707C63.231,125.674,63.18,125.293,62.891,125.015z"/>
		<path style="fill-rule:evenodd;clip-rule:evenodd;fill:#B5E077;" d="M136.769,211.011c-0.357,0.551-0.223,1.045-0.234,1.509
			c-0.094,3.863-0.184,7.727-0.255,11.591c-0.026,1.4,0.044,1.354-1.33,1.351c-11.921-0.025-23.843-0.068-35.765-0.068
			c-12.303,0-24.605,0.043-36.908,0.067c-0.593,0-1.187,0-1.994,0c-0.106-4.83-0.211-9.573-0.314-14.273
			c-0.593-0.212-0.711,0.176-0.765,0.461c-0.173,0.906-0.405,1.823-0.399,2.736c0.02,3.216-0.439,6.404-0.471,9.616
			c-0.014,1.445-0.064,1.461-1.433,1.463c-6.532,0.011-13.066,0.015-19.598,0.014c-1.144,0-1.147-0.017-1.09-1.154
			c0.2-3.967,0.218-7.955,0.646-11.896c0.759-7,3.454-13.104,9.044-17.681c3.542-2.9,7.359-5.421,11.084-8.069
			c4.793-3.409,9.929-6.279,14.856-9.478c0.435-0.282,0.789-0.689,1.349-0.004c2.768,3.388,6.101,6.202,9.421,9.019
			c1.742,1.478,3.445,3.01,5.377,4.249c1.626,1.042,1.929,1.002,3.063-0.54c1.711-2.327,3.081-4.874,4.671-7.28
			c0.419-0.633,0.762-1.321,1.321-1.858c0.537,0.211,0.276,0.656,0.271,0.978c-0.081,4.517-0.188,9.034,0.237,13.541
			c0.061,0.646,0.063,1.31,0.349,1.917c0.123,0.262,0.299,0.463,0.605,0.463c0.324,0,0.461-0.243,0.554-0.507
			c0.245-0.688,0.163-1.402,0.137-2.104c-0.164-4.46-0.346-8.919-0.517-13.378c-0.019-0.476-0.116-0.958,0.1-1.581
			c0.723,0.401,1.081,1.063,1.47,1.667c1.089,1.692,2.145,3.407,3.219,5.11c0.494,0.782,0.984,1.567,1.507,2.33
			c1.655,2.409,1.865,2.454,4.201,0.806c2.183-1.54,4.168-3.325,6.195-5.057c2.858-2.44,5.663-4.939,8.043-7.864
			c0.507-0.624,0.867-0.186,1.23,0.072c2.492,1.765,5.223,3.139,7.779,4.794c5.799,3.76,11.506,7.653,17.028,11.816
			c6.519,4.915,9.673,11.588,10.303,19.565c0.295,3.742,0.38,7.499,0.611,11.247c0.049,0.787-0.258,0.893-0.921,0.891
			c-6.696-0.021-13.392-0.034-20.088-0.01c-0.833,0.003-1.137-0.244-1.166-1.096c-0.099-2.99-0.289-5.976-0.401-8.965
			c-0.039-1.037-0.142-2.062-0.301-3.082C137.415,211.866,137.393,211.355,136.769,211.011z"/>
		<path style="fill-rule:evenodd;clip-rule:evenodd;fill:#FFCC68;" d="M63.282,109.873c-0.87,0.016-1.321-0.648-1.992-0.84
			c-0.833-0.24-1.61-0.713-2.512-0.372c-0.761,0.289-0.976-0.069-1-0.753c-0.136-3.741-0.354-7.462-0.139-11.228
			c0.231-4.055,1.1-7.937,2.051-11.836c0.632-2.595,1.514-5.098,2.597-7.534c0.886-1.992,0.866-2.046-1.281-2.733
			c1.009-1.889,2.19-3.637,3.487-5.293c3.405-4.348,7.661-7.67,12.518-10.268c4.668-2.496,9.484-4.606,14.68-5.724
			c5.077-1.091,10.122-0.928,15.14,0.48c5.433,1.524,10.467,3.902,15.299,6.788c5.555,3.316,9.789,7.88,13.081,13.384
			c0.107,0.18,0.169,0.387,0.221,0.509c-0.077,0.377-0.321,0.343-0.52,0.396c-1.309,0.35-1.502,0.647-0.959,1.801
			c2.516,5.362,3.756,11.083,4.749,16.868c0.173,1.009,0.085,2.063,0.121,3.096c0.059,1.682,0.085,3.363,0.18,5.046
			c0.12,2.156-0.149,4.336-0.262,6.505c-0.018,0.352-0.188,0.73-0.585,0.578c-1.46-0.557-2.637,0.229-3.882,0.724
			c-0.252,0.1-0.503,0.221-0.766,0.271c-0.857,0.162-1.105-0.025-1.278-0.938c-0.101-0.531-0.254-1.068-0.254-1.603
			c-0.001-3.59-0.526-7.162-0.374-10.754c0.09-2.127-0.302-4.226-0.306-6.345c-0.001-0.46-0.099-0.891-0.565-1.081
			c-0.497-0.203-0.82,0.145-1.124,0.461c-2.718,2.842-6.311,4.195-9.813,5.652c-2.961,1.231-6.042,2.127-9.29,2.247
			c-3.255,0.119-5.634-1.323-7.233-4.113c-1.218-2.125-1.211-2.131-3.239-0.742c-2.303,1.577-4.8,2.802-7.413,3.733
			c-3.883,1.383-7.761,2.838-11.852,3.515c-3.978,0.657-7.965,0.808-12,0.342c-2.362-0.274-4.582-0.826-6.706-1.85
			c-0.146-0.07-0.299-0.151-0.456-0.169c-0.48-0.055-1.033-0.199-1.334,0.316c-0.341,0.586,0.218,0.861,0.542,1.192
			c0.112,0.114,0.249,0.237,0.397,0.28c1.609,0.471,1.829,1.612,1.81,3.127C62.993,105.276,62.758,107.561,63.282,109.873z"/>
		<path style="fill-rule:evenodd;clip-rule:evenodd;fill:#FFCFA0;" d="M63.947,122.066c-0.508,0.023-0.656,0.353-0.883,0.563
			c-1.122,1.034-1.879,0.967-2.768-0.327c-0.71-1.034-1.282-2.158-1.715-3.331c-0.658-1.789-1.235-3.607-1.101-5.562
			c0.065-0.934,0.225-1.849,0.705-2.658c0.615-1.036,1.886-1.341,2.808-0.643c3.219,2.44,6.793,4.291,10.306,6.238
			c0.879,0.487,1.2,0.919,1.112,1.977c-0.412,4.966,2.161,9.252,6.567,11.174c4.361,1.901,9.378,0.872,12.578-2.607
			c1.919-2.086,2.903-4.597,3.021-7.401c0.041-0.951,0.469-1.331,1.232-1.639c1.647-0.664,3.271-0.664,4.918-0.001
			c0.773,0.312,1.185,0.715,1.212,1.658c0.048,1.636,0.473,3.22,1.211,4.707c2.352,4.739,7.394,7.108,12.562,5.89
			c5.028-1.185,8.482-5.592,8.471-10.821c-0.001-0.488-0.023-0.982-0.096-1.463c-0.084-0.552,0.042-0.901,0.589-1.169
			c3.081-1.507,5.918-3.447,8.922-5.093c0.579-0.317,1.085-0.713,1.579-1.145c1.301-1.132,2.689-0.807,3.382,0.791
			c0.605,1.396,0.622,2.869,0.367,4.331c-0.406,2.329-1.284,4.491-2.519,6.505c-0.169,0.276-0.36,0.551-0.591,0.775
			c-0.742,0.714-1.336,0.708-2.13,0.035c-0.316-0.269-0.507-0.703-1.117-0.818c0.312,2.027-0.657,3.707-1.307,5.443
			c-2.525,6.74-5.39,13.313-9.804,19.088c-5.158,6.747-11.705,11.285-20.205,12.701c-4.212,0.702-8.217-0.164-12.124-1.704
			c-8.462-3.333-14-9.752-18.233-17.463c-2.568-4.676-4.688-9.572-6.359-14.649c-0.187-0.568-0.461-1.117-0.57-1.698
			C63.871,123.231,63.947,122.681,63.947,122.066z"/>
		<path style="fill-rule:evenodd;clip-rule:evenodd;fill:#FFCFA0;" d="M101.446,93.7c0.5,0.301,0.565,0.767,0.798,1.121
			c1.795,2.736,4.256,4.255,7.593,4.299c3.841,0.05,7.406-1.071,10.886-2.513c3.107-1.287,6.14-2.741,9.055-4.921
			c0.074,1.386,0.146,2.553,0.198,3.719c0.216,4.78,0.294,9.575,1.025,14.309c0.192,1.249-0.179,1.774-1.152,2.359
			c-2.036,1.223-3.992,2.579-6.065,3.936c-2.25-5.442-6.19-8.241-12.077-7.846c-4.413,0.296-7.628,3.243-9.638,8.618
			c-1.233-0.517-2.459-1.084-3.839-1.057c-1.332,0.025-2.546,0.477-3.756,1.108c-1.609-5.158-4.878-8.386-10.389-8.706
			c-5.046-0.294-8.443,2.141-11.375,7.854c-0.62-0.406-1.233-0.808-1.849-1.209c-1.821-1.188-3.641-2.377-5.463-3.564
			c-0.354-0.23-0.748-0.358-0.808-0.912c-0.317-2.964-0.237-5.952-0.768-9.12c6.691,1.616,13.164,1.605,19.565-0.032
			C89.716,99.522,95.932,97.544,101.446,93.7z"/>
		<path style="fill-rule:evenodd;clip-rule:evenodd;fill:#FFCFA0;" d="M84.503,157.551c9.188,4.892,18.265,4.912,27.284,0.127
			c0.47,0.465,0.326,0.916,0.324,1.313c-0.014,3.048-0.086,6.096-0.047,9.144c0.013,0.986-0.353,1.553-1.115,2.136
			c-2.942,2.253-5.984,4.344-9.266,6.073c-0.097,0.051-0.198,0.095-0.288,0.153c-2.082,1.35-4.095,1.242-6.264,0.034
			c-3.48-1.939-6.794-4.098-9.923-6.559c-0.407-0.32-0.717-0.603-0.714-1.175C84.511,165.156,84.503,161.516,84.503,157.551z"/>
		<path style="fill-rule:evenodd;clip-rule:evenodd;fill:#FFCFA0;" d="M113.004,128.577c-5.37-0.069-9.608-4.33-9.489-9.567
			c0.098-4.254,3.266-9.404,9.904-9.418c5.14-0.011,9.269,4.336,9.201,9.484C122.553,124.36,118.216,128.643,113.004,128.577z"/>
		<path style="fill-rule:evenodd;clip-rule:evenodd;fill:#FFCFA0;" d="M93.015,119.38c-0.076,5.144-4.395,9.24-9.697,9.197
			c-5.199-0.042-9.502-4.48-9.411-9.706c0.092-5.197,4.328-9.383,9.411-9.298C88.8,109.663,93.094,114.007,93.015,119.38z"/>
		<path style="fill-rule:evenodd;clip-rule:evenodd;fill:#9BBF67;" d="M100.271,179.08c2.319-1.002,4.467-2.135,6.5-3.494
			c1.988-1.331,3.941-2.703,5.798-4.212c0.557-0.452,1.012-0.958,1.212-1.712c2.951,1.43,5.481,3.26,7.678,5.572
			c0.53,0.558,0.522,0.902-0.022,1.454c-3.965,4.037-8.124,7.857-12.513,11.428c-0.21,0.171-0.431,0.332-0.651,0.49
			c-1.156,0.837-1.198,0.864-1.996-0.339C104.293,185.281,102.351,182.267,100.271,179.08z"/>
		<path style="fill-rule:evenodd;clip-rule:evenodd;fill:#9BBF67;" d="M82.786,169.719c0.163,0.797,0.725,1.29,1.327,1.768
			c3.671,2.907,7.46,5.623,11.821,7.431c0.09,0.038,0.149,0.151,0.255,0.264c-1.977,3.032-3.94,6.083-5.947,9.104
			c-0.785,1.184-0.853,1.186-1.997,0.303c-3.965-3.059-7.624-6.464-11.202-9.959c-0.661-0.646-1.268-1.351-1.962-1.956
			c-0.617-0.538-0.477-0.911,0.01-1.455C76.87,173.225,80.079,170.884,82.786,169.719z"/>
		<path style="fill-rule:evenodd;clip-rule:evenodd;fill:#0A0D07;" d="M100.696,193.436c0.062-0.487,0.229-0.98,0.93-1.006
			c0.645-0.023,1.022,0.435,0.953,1.197c-0.056,0.608-0.203,1.209-0.931,1.331C101.119,195.046,100.67,194.336,100.696,193.436z"/>
		<path style="fill-rule:evenodd;clip-rule:evenodd;fill:#12130A;" d="M101.839,188.134c0.022,0.602-0.42,1.114-0.951,1.082
			c-0.558-0.034-0.705-0.441-0.734-0.898c-0.035-0.535,0.128-0.978,0.742-1.06C101.401,187.19,101.819,187.594,101.839,188.134z"/>
		<path style="fill-rule:evenodd;clip-rule:evenodd;fill:#050302;" d="M98.222,142.061c-3.02-0.05-5.586-2.234-6.053-5.068
			c-0.044-0.265-0.044-0.54-0.041-0.81c0.003-0.28,0.077-0.571,0.395-0.609c0.211-0.025,0.376,0.154,0.48,0.371
			c0.546,1.143,1.433,2.018,2.269,2.945c1.473,1.632,4.518,1.626,5.985,0.002c0.838-0.927,1.722-1.803,2.272-2.943
			c0.104-0.213,0.256-0.402,0.472-0.379c0.316,0.034,0.42,0.332,0.41,0.602c-0.08,2.102-1.059,3.743-2.763,4.897
			C100.608,141.773,99.41,142.169,98.222,142.061z"/>
		<path style="fill-rule:evenodd;clip-rule:evenodd;fill:#FF9191;" d="M80.464,132.36c0.801-0.129,1.528,0.112,2.228,0.403
			c0.527,0.219,0.854,0.634,0.882,1.255c0.027,0.609-0.197,1.018-0.741,1.319c-1.325,0.734-2.791,0.827-4.234,0.874
			c-0.952,0.031-1.721-0.771-1.828-1.571c-0.092-0.691,0.448-1.47,1.347-1.824C78.87,132.52,79.635,132.21,80.464,132.36z"/>
		<path style="fill-rule:evenodd;clip-rule:evenodd;fill:#FF9291;" d="M113.838,135.95c-0.5-0.173-1.083-0.32-1.617-0.573
			c-0.955-0.451-1.217-1.628-0.597-2.464c0.875-1.177,3.913-1.53,5.081-0.59c1.233,0.993,1.057,2.502-0.419,3.072
			C115.542,135.682,114.715,135.758,113.838,135.95z"/>
		<path style="fill-rule:evenodd;clip-rule:evenodd;fill:#0C0806;" d="M95.078,130.121c0.338-1.671,1.303-2.573,2.776-2.674
			c1.714-0.116,3.156,0.72,3.625,2.121c0.044,0.129,0.035,0.349-0.046,0.432c-0.248,0.256-0.489,0.065-0.701-0.099
			c-1.325-1.031-2.743-1.138-4.257-0.459C96.038,129.639,95.764,130.13,95.078,130.121z"/>
		<path style="fill-rule:evenodd;clip-rule:evenodd;fill:#16100D;" d="M134.406,119.441c-0.243-1.588,0.178-2.777,0.807-3.912
			c0.149-0.268,0.381-0.572,0.772-0.418c0.298,0.117,0.298,0.429,0.272,0.686C136.123,117.144,135.905,118.456,134.406,119.441z"/>
		<path style="fill-rule:evenodd;clip-rule:evenodd;fill:#110D0A;" d="M62.06,119.449c-1.428-1.078-1.7-2.385-1.781-3.77
			c-0.012-0.21,0.035-0.456,0.251-0.555c0.297-0.137,0.531,0.031,0.682,0.273C61.938,116.562,62.354,117.797,62.06,119.449z"/>
		<path style="fill-rule:evenodd;clip-rule:evenodd;fill:#090605;" d="M114.584,119.414c0.034,0.746-0.016,1.176-0.277,1.549
			c-0.377,0.541-0.905,0.765-1.553,0.656c-0.645-0.108-0.856-0.61-0.963-1.166c-0.127-0.665,0.061-1.303,0.288-1.91
			c0.227-0.605,0.678-0.99,1.378-0.91c0.651,0.074,0.879,0.588,1.035,1.118C114.583,119.058,114.581,119.393,114.584,119.414z"/>
		<path style="fill-rule:evenodd;clip-rule:evenodd;fill:#0A0706;" d="M81.918,119.47c0.05-0.258,0.079-0.586,0.18-0.892
			c0.159-0.482,0.428-0.892,0.999-0.949c0.623-0.062,1.044,0.25,1.298,0.786c0.258,0.545,0.387,1.135,0.375,1.737
			c-0.018,0.912-0.456,1.446-1.171,1.495c-0.783,0.053-1.451-0.47-1.62-1.3C81.924,120.084,81.939,119.806,81.918,119.47z"/>
	</g>
	<g>
		<path style="fill-rule:evenodd;clip-rule:evenodd;fill:#010000;" d="M368.538,122.329c-2.233,0.497-3.832-0.332-5.127-1.945
			c-2.395-2.984-3.282-6.446-3.244-10.202c0.002-0.216-0.004-0.458,0.084-0.644c0.663-1.406,0.404-2.839,0.232-4.297
			c-0.52-4.381,0.091-8.674,1.133-12.924c0.15-0.618,0.448-1.213,0.419-2.025c-0.591,0.142-1.093,0.293-1.607,0.38
			c-0.928,0.159-1.345-0.166-1.349-1.104c-0.006-1.097,0.269-2.149,0.613-3.189c3.009-9.11,8.114-16.804,15.489-22.969
			c0.166-0.139,0.325-0.283,0.5-0.436c-0.014-0.514-0.72-0.668-0.596-1.251c0.098-0.459,0.382-0.773,0.658-1.1
			c1.029-1.21,2.174-2.312,3.543-3.112c5.42-3.168,11.032-5.901,17.285-6.997c2.78-0.488,5.595-1.081,8.419-0.75
			c4.261,0.499,8.53,1.024,12.526,2.804c2.88,1.282,5.808,2.452,8.566,3.995c1.919,1.072,3.638,2.393,5.072,4.057
			c0.488,0.566,1.084,1.185,0.23,1.946c-0.419,0.373-0.019,0.565,0.208,0.746c1.533,1.228,2.895,2.637,4.274,4.03
			c5.44,5.492,8.984,12.104,11.443,19.356c0.297,0.877,0.484,1.79,0.501,2.72c0.021,1.119-0.385,1.429-1.521,1.208
			c-0.428-0.083-0.849-0.191-1.338-0.303c-0.259,0.621,0.104,1.157,0.235,1.693c1.221,4.948,1.946,9.923,0.947,15.007
			c-0.088,0.452,0.052,0.836,0.147,1.262c1.123,4.949-0.214,9.249-3.604,12.927c-1.078,1.171-2.208,1.378-4.335,1.171
			c-0.262,1.193-0.563,2.396-0.785,3.612c-1.578,8.688-5.136,16.472-10.717,23.308c-2.043,2.503-4.531,4.55-7.261,6.267
			c-0.741,0.467-1.036,0.91-0.979,1.806c0.226,3.529,0.449,7.061,0.421,10.601c-0.006,0.584,0.089,0.977,0.706,1.287
			c1.611,0.805,3.161,1.705,3.801,3.591c0.183,0.537,0.85,0.644,1.323,0.872c6.077,2.921,12.012,6.125,17.973,9.271
			c2.457,1.296,4.844,2.712,7.091,4.345c7.102,5.157,11.275,12.221,13.443,20.609c1.5,5.801,1.859,11.703,1.67,17.655
			c-0.066,2.122-0.691,2.687-2.802,2.697c-18.458,0.087-36.912,0.359-55.369,0.378c-20.69,0.022-41.378-0.255-62.066-0.376
			c-2.312-0.013-2.889-0.562-2.957-2.888c-0.196-6.62,0.315-13.161,2.27-19.533c2.605-8.486,7.446-15.28,15.04-20.03
			c3.373-2.108,6.918-3.892,10.412-5.775c4.115-2.217,8.298-4.309,12.5-6.356c0.725-0.353,1.302-0.756,1.665-1.63
			c0.533-1.289,1.781-2.053,3.021-2.618c0.889-0.405,1.12-0.939,1.139-1.861c0.071-3.373,0.213-6.745,0.379-10.114
			c0.045-0.889-0.143-1.426-0.98-1.958c-3.38-2.143-6.348-4.778-8.694-8.044c-4.733-6.589-7.983-13.815-9.319-21.859
			C369.094,124.572,368.806,123.521,368.538,122.329z"/>
		<path style="fill-rule:evenodd;clip-rule:evenodd;fill:#C690FF;" d="M367.161,210.866c-0.482,0.548-0.432,1.108-0.452,1.646
			c-0.148,4.024-0.29,8.047-0.434,12.072c-0.015,0.379-0.035,0.762-0.028,1.142c0.012,0.641-0.325,0.868-0.919,0.829
			c-0.163-0.011-0.326-0.001-0.49-0.001c-6.642-0.009-13.282-0.015-19.924-0.031c-1.22-0.004-1.207-0.024-1.194-1.234
			c0.05-4.628,0.138-9.252,1.048-13.816c0.832-4.179,2.037-8.22,4-12.033c2.669-5.183,6.545-9.175,11.518-12.159
			c2.474-1.484,5.025-2.82,7.571-4.172c5.277-2.8,10.558-5.595,15.693-8.678c3.929,5.433,9.582,7.78,15.911,8.916
			c1.708,0.306,3.397,0.853,5.161,0.551c1.608-0.274,3.218-0.553,4.805-0.924c4.3-1.006,8.238-2.757,11.547-5.763
			c0.891-0.81,1.628-1.739,2.27-2.893c2.167,1.403,4.335,2.607,6.521,3.782c5.317,2.857,10.613,5.749,15.911,8.643
			c8.128,4.44,12.939,11.42,15.387,20.186c1.311,4.688,1.998,9.471,2.031,14.341c0.01,1.68,0,3.359,0,5.116
			c-0.291,0.253-0.745,0.133-1.166,0.134c-6.587,0.017-13.173,0.027-19.762,0.031c-1.477,0.001-1.506-0.013-1.539-1.544
			c-0.089-4.189-0.172-8.378-0.465-12.559c-0.038-0.521,0.125-1.108-0.462-1.585c-0.412,0.601-0.448,1.264-0.473,1.931
			c-0.142,3.806-0.285,7.612-0.426,11.418c-0.011,0.271-0.005,0.544-0.013,0.816c-0.046,1.513-0.046,1.52-1.55,1.529
			c-6.314,0.041-12.63,0.037-18.944,0.125c-16.168,0.228-32.335-0.091-48.501-0.124c-0.109,0-0.219,0.002-0.327-0.001
			c-1.258-0.029-1.291-0.028-1.342-1.243c-0.077-1.903-0.085-3.809-0.158-5.712c-0.093-2.392-0.224-4.782-0.335-7.173
			C367.605,211.884,367.593,211.338,367.161,210.866z"/>
		<path style="fill-rule:evenodd;clip-rule:evenodd;fill:#FFCFA0;" d="M370.12,119.611c-0.698-0.038-0.913,0.233-1.175,0.421
			c-1.402,1.017-2.577,0.921-3.692-0.426c-1.626-1.965-2.671-4.227-3.1-6.745c-0.181-1.065-0.49-2.13-0.267-3.234
			c0.19-0.936,0.439-1.855,1.541-2.074c0.998-0.199,1.954-0.163,2.597,0.846c0.261,0.41,0.577,0.801,0.932,1.13
			c0.609,0.568,1.188,0.485,1.581-0.263c0.531-1.007,0.982-2.057,1.501-3.164c0.915,0.373,1.265,1.193,1.755,1.867
			c0.743,1.025,0.933,1.1,1.913,0.247c3.368-2.931,6.621-5.979,9.213-9.751c0.578,0.315,0.608,0.881,0.746,1.362
			c0.135,0.469,0.204,0.957,0.306,1.436c0.386,1.825,1.092,2.17,2.758,1.261c0.904-0.495,1.767-1.074,2.616-1.662
			c4.948-3.43,9.386-7.421,13.234-12.06c0.242-0.292,0.509-0.561,0.785-0.863c0.607,0.265,0.897,0.805,1.267,1.246
			c3.955,4.695,8.525,8.7,13.594,12.147c0.674,0.458,1.366,0.899,2.089,1.271c1.523,0.78,2.191,0.449,2.578-1.187
			c0.232-0.983,0.241-2.044,1.014-2.999c0.55,0.739,1.024,1.443,1.565,2.093c2.306,2.766,4.865,5.285,7.603,7.62
			c1.126,0.96,1.273,0.905,2.129-0.319c0.431-0.615,0.769-1.322,1.62-1.716c0.472,0.976,0.915,1.949,1.404,2.899
			c0.575,1.115,1.132,1.188,1.954,0.282c0.29-0.322,0.582-0.65,0.824-1.01c0.637-0.943,1.556-0.885,2.484-0.707
			c0.949,0.181,1.277,0.949,1.459,1.775c0.364,1.657-0.122,3.248-0.508,4.823c-0.445,1.81-1.292,3.46-2.409,4.96
			c-1.388,1.865-2.459,2.03-4.362,0.7c-0.17-0.118-0.38-0.18-0.496-0.234c-1.639,9.176-4.264,17.915-9.696,25.63
			c-3.956,5.619-9.106,9.696-15.609,11.796c-6.705,2.166-13.365,1.785-19.873-1.203c-8.363-3.841-13.436-10.617-17.177-18.668
			c-1.656-3.568-2.826-7.296-3.703-11.123c-0.182-0.795-0.371-1.59-0.601-2.372C370.137,122.354,369.532,121.106,370.12,119.611z"/>
		<path style="fill-rule:evenodd;clip-rule:evenodd;fill:#966A51;" d="M429.961,61.247c-1.786,0.583-1.973,1.135-0.741,2.216
			c2.004,1.76,3.975,3.553,5.819,5.484c4.986,5.217,8.327,11.389,10.563,18.198c0.133,0.402,0.176,0.834,0.264,1.265
			c-0.593,0.34-1.102-0.005-1.622-0.043c-0.792-0.057-1.659,0.527-1.3,1.546c0.273,0.765,0.388,1.583,0.596,2.372
			c1.146,4.398,1.539,8.879,1.471,13.411c-0.005,0.212-0.059,0.423-0.098,0.704c-1.996-0.46-3.784-0.018-5.467,1.188
			c-0.398-0.733-0.723-1.412-1.119-2.045c-0.767-1.224-1.432-1.322-2.503-0.393c-0.611,0.528-1.189,1.093-1.859,1.714
			c-1.701-1.4-3.198-3.129-4.763-4.779c-1.459-1.539-2.889-3.104-4.142-4.83c-0.979-1.349-1.708-1.215-2.475,0.32
			c-0.462,0.927-0.878,1.872-1.057,2.903c-0.089,0.505-0.39,0.623-0.823,0.395c-0.29-0.15-0.569-0.323-0.837-0.507
			c-4.865-3.333-9.431-7.014-13.334-11.469c-0.681-0.777-1.412-1.511-2.147-2.238c-0.896-0.886-0.978-0.889-1.838-0.05
			c-0.662,0.646-1.314,1.306-1.924,2c-3.975,4.533-8.575,8.34-13.547,11.719c-0.135,0.092-0.267,0.189-0.406,0.273
			c-1.019,0.604-1.105,0.585-1.395-0.533c-0.219-0.85-0.571-1.642-0.937-2.432c-0.747-1.616-1.517-1.74-2.568-0.318
			c-2.209,2.992-4.869,5.57-7.423,8.246c-0.149,0.157-0.307,0.31-0.465,0.459c-1.053,0.998-1.053,0.998-2.064-0.123
			c-1.735-1.925-2.528-1.835-3.697,0.421c-0.199,0.384-0.393,0.77-0.64,1.252c-1.671-1.104-3.431-1.663-5.365-1.187
			c-0.406-0.39-0.245-0.849-0.249-1.257c-0.055-4.979,0.623-9.865,1.901-14.671c0.097-0.364,0.228-0.741,0.22-1.109
			c-0.017-0.704-0.595-1.019-1.591-0.939c-1.48,0.118-1.516,0.106-1.065-1.298c2.189-6.833,5.572-12.982,10.554-18.197
			c1.543-1.614,3.111-3.202,4.857-4.603c0.298-0.238,0.578-0.496,0.859-0.753c1.26-1.145,1.136-1.704-0.677-2.359
			c0.756-0.561,1.412-1.11,2.126-1.564c4.76-3.028,9.831-5.408,15.302-6.784c3.585-0.901,7.27-1.448,10.987-1.152
			c5.356,0.426,10.488,1.748,15.357,4.086C423.886,57.316,427.074,58.817,429.961,61.247z"/>
		<path style="fill-rule:evenodd;clip-rule:evenodd;fill:#FFCFA0;" d="M389.975,157.032c4.201,2.332,8.727,3.114,13.482,3.117
			c4.753,0.003,9.269-0.799,13.349-3.05c0.485,0.226,0.415,0.525,0.417,0.778c0.036,3.75,0.064,7.499,0.096,11.249
			c0.004,0.482,0.037,0.918-0.477,1.273c-2.862,1.978-5.722,3.896-9.161,4.833c-4.518,1.231-8.687,0.405-12.721-1.715
			c-1.69-0.887-3.26-1.95-4.807-3.056c-0.388-0.277-0.61-0.544-0.602-1.047c0.065-4.02,0.109-8.039,0.163-12.059
			C389.715,157.316,389.775,157.277,389.975,157.032z"/>
		<path style="fill-rule:evenodd;clip-rule:evenodd;fill:#B06FF4;" d="M387.606,170.57c9.937,9.532,21.447,9.749,31.669,0.05
			c0.585,0.207,0.939,0.708,1.36,1.121c1.246,1.23,1.302,1.693,0.046,2.957c-2.448,2.468-5.322,4.302-8.628,5.408
			c-2.27,0.762-4.593,1.421-6.993,1.52c-6.794,0.277-12.879-1.643-18.059-6.145c-2.181-1.896-2.171-2.539-0.023-4.447
			C387.176,170.859,387.403,170.718,387.606,170.57z"/>
		<path style="fill-rule:evenodd;clip-rule:evenodd;fill:#030202;" d="M411.32,131.783c0.506,0.883,0.081,1.502-0.317,2.061
			c-2.685,3.76-7.633,5.26-11.963,2.838c-1.243-0.695-2.316-1.614-3.129-2.797c-0.398-0.582-0.784-1.194-0.393-2.072
			c2.342,1.956,4.669,3.91,7.934,3.894C406.692,135.692,409.022,133.861,411.32,131.783z"/>
		<path style="fill-rule:evenodd;clip-rule:evenodd;fill:#FF9191;" d="M385.284,128.88c0.005-2.115,0.951-3.066,3.06-3.076
			c1.767-0.009,2.834,1.043,2.824,2.782c-0.007,1.588-1.848,3.535-3.338,3.379C386.308,131.808,385.166,131.069,385.284,128.88z"/>
		<path style="fill-rule:evenodd;clip-rule:evenodd;fill:#FF9191;" d="M417.631,129.31c-0.01-1.728,1-2.835,2.597-2.843
			c1.589-0.008,2.624,1.106,2.648,2.849c0.022,1.669-0.955,2.718-2.516,2.703C418.659,132.001,417.64,130.989,417.631,129.31z"/>
		<path style="fill-rule:evenodd;clip-rule:evenodd;fill:#060504;" d="M420.354,115.335c-0.012,1.739-0.607,2.587-1.644,2.555
			c-1.017-0.031-1.696-0.982-1.708-2.373c-0.007-0.552,0.097-1.078,0.313-1.58c0.307-0.706,0.82-1.185,1.62-1.101
			c0.8,0.084,1.219,0.649,1.336,1.418C420.336,114.681,420.338,115.116,420.354,115.335z"/>
		<path style="fill-rule:evenodd;clip-rule:evenodd;fill:#060504;" d="M386.533,115.204c0.024-0.323,0.019-0.652,0.08-0.968
			c0.147-0.755,0.554-1.319,1.36-1.402c0.728-0.075,1.241,0.337,1.54,0.972c0.432,0.915,0.52,1.878,0.194,2.843
			c-0.276,0.82-0.99,1.308-1.705,1.232c-0.75-0.079-1.297-0.646-1.422-1.541c-0.052-0.371-0.009-0.755-0.009-1.134
			C386.56,115.205,386.546,115.205,386.533,115.204z"/>
		<path style="fill-rule:evenodd;clip-rule:evenodd;fill:#0A0706;" d="M403.461,122.239c1.233,0.007,2.631,1.165,2.812,2.325
			c0.046,0.289,0.002,0.563-0.24,0.728c-0.188,0.128-0.416,0.063-0.617-0.046c-0.047-0.026-0.105-0.04-0.142-0.077
			c-1.236-1.233-2.456-1.158-3.692,0.011c-0.191,0.182-0.493,0.276-0.748,0.084c-0.305-0.231-0.27-0.562-0.175-0.889
			C400.997,123.21,402.282,122.232,403.461,122.239z"/>
		<path style="fill-rule:evenodd;clip-rule:evenodd;fill:#100C09;" d="M366.577,116.247c-1.473-1.149-1.825-2.497-2.145-3.854
			c-0.06-0.261,0.003-0.558,0.332-0.648c0.299-0.082,0.521,0.084,0.687,0.308C366.308,113.206,366.801,114.461,366.577,116.247z"/>
		<path style="fill-rule:evenodd;clip-rule:evenodd;fill:#140F0B;" d="M440.343,116.206c-0.274-1.76,0.254-3.015,1.107-4.175
			c0.169-0.228,0.401-0.375,0.698-0.279c0.328,0.107,0.358,0.42,0.299,0.67C442.132,113.778,441.792,115.132,440.343,116.206z"/>
	</g>
	<g>
		<path style="fill-rule:evenodd;clip-rule:evenodd;fill:#010000;" d="M286.018,339.778c-0.432,2.028-0.82,3.944-1.248,5.851
			c-2.56,11.431-8.306,20.822-17.823,27.797c-1.232,0.902-2.546,1.673-3.868,2.426c-0.508,0.287-0.867,0.559-0.788,1.251
			c0.371,3.254,0.342,6.52,0.173,9.782c-0.05,0.967,0.284,1.266,1.172,1.536c5.097,1.557,10.063,3.411,14.779,5.974
			c5.563,3.026,10.886,6.382,15.804,10.368c5.832,4.729,11.041,10.026,14.759,16.628c2.635,4.679,4.374,9.725,5.576,14.926
			c0.709,3.065,0.993,6.232,0.938,9.4c-0.036,1.927-0.844,2.761-2.761,2.826c-2.722,0.092-5.441,0.2-8.162,0.215
			c-38.549,0.192-77.1,0.192-115.648,0c-2.613-0.015-5.223-0.123-7.836-0.204c-2.287-0.069-3.271-1.158-3.111-3.491
			c0.155-2.277,0.207-4.567,0.645-6.817c1.763-9.061,5.091-17.379,11.263-24.433c6.57-7.509,14.414-13.341,23.055-18.235
			c4.854-2.75,9.923-4.927,15.196-6.677c0.208-0.07,0.431-0.102,0.622-0.201c0.708-0.371,1.84-0.082,2.166-0.859
			c0.289-0.688,0.071-1.604,0.024-2.416c-0.141-2.616,0.013-5.228,0.208-7.831c0.068-0.927-0.157-1.451-1.013-1.927
			c-5.118-2.843-9.313-6.766-12.94-11.322c-3.399-4.275-5.551-9.195-7.302-14.313c-1.13-3.302-1.653-6.752-2.397-10.256
			c-1.109,0.492-2.223,0.755-3.24-0.022c-1.398-1.07-2.321-2.512-2.52-4.243c-0.23-2.004-0.02-4.024,0.435-5.996
			c0.195-0.847,0.538-1.707,1.252-2.243c0.59-0.441,0.677-0.913,0.501-1.539c-0.908-3.229-0.982-6.554-1.102-9.869
			c-0.142-3.882,0.413-7.709,0.992-11.529c0.251-1.667,0.565-3.324,0.866-4.983c0.177-0.964-0.029-1.769-0.652-2.572
			c-1.273-1.638-2.273-3.45-2.965-5.418c-0.517-1.47-0.225-1.912,1.298-1.956c0.924-0.026,1.849-0.022,2.773-0.037
			c0.033-0.001,0.065-0.064,0.165-0.169c-0.871-2.053-1.693-4.172-2.069-6.428c-0.046-0.267-0.142-0.53-0.156-0.8
			c-0.054-0.978,0.453-1.436,1.406-1.185c1.261,0.332,2.49,0.776,3.747,1.124c0.496,0.137,0.987,0.464,1.598,0.226
			c-0.21-1.183-0.482-2.336-0.604-3.504c-0.177-1.659,0.197-1.896,1.703-1.215c2.817,1.275,5.817,1.784,8.871,1.865
			c2.471,0.065,4.855-0.621,7.156-1.453c3.064-1.107,6.057-2.413,9.108-3.56c3.213-1.208,6.522-2.08,9.938-2.513
			c4.837-0.611,9.56,0.083,14.217,1.305c3.633,0.951,7.151,2.213,10.536,3.884c4.857,2.4,8.207,6.169,10.492,10.988
			c0.163,0.339,0.204,0.744,0.623,1.076c0.8-0.524,1.625-1.094,2.48-1.612c0.54-0.325,1.091-0.831,1.786-0.378
			c0.673,0.438,0.47,1.152,0.489,1.79c0.027,1.027-0.431,2.011-0.316,3.12c0.986,0.178,1.983,0.088,2.918,0.389
			c0.411,0.132,0.855,0.22,1.217,0.438c0.85,0.512,0.897,1.247,0.077,1.804c-1.171,0.798-2.472,1.361-3.902,1.843
			c0.266,0.805,0.485,1.618,0.8,2.393c1.542,3.805,1.941,7.784,1.91,11.843c-0.035,4.574-0.074,9.146-0.413,13.71
			c-0.052,0.703-0.134,1.404-0.208,2.209c2.029,0.553,2.565,2.232,2.829,4.056c0.171,1.182,0.239,2.38,0.318,3.575
			c0.111,1.715-0.505,3.197-1.556,4.518C289.035,340.288,288.139,340.529,286.018,339.778z"/>
		<path style="fill-rule:evenodd;clip-rule:evenodd;fill:#F46F6F;" d="M210.466,434.547c-0.92,0.326-0.876,1.021-0.926,1.64
			c-0.249,3.036-0.501,6.071-0.714,9.109c-0.121,1.731,0.006,1.521-1.691,1.532c-8.711,0.063-17.422-0.126-26.132,0.077
			c-1.136,0.026-1.183,0.004-1.155-1.159c0.096-4.04,0.867-7.982,1.72-11.922c1.985-9.172,6.871-16.623,13.568-22.977
			c5.593-5.309,11.797-9.804,18.62-13.42c2.403-1.272,4.725-2.699,7.265-3.709c0.688-0.274,1.045-0.271,1.573,0.442
			c2.754,3.73,5.805,7.211,9.571,9.968c2.147,1.575,4.272,3.187,6.499,4.66c2.05,1.359,4.216,2.485,6.364,3.657
			c1.14,0.622,2.268,0.595,3.427,0.014c3.512-1.761,6.769-3.917,9.985-6.165c3.776-2.638,7.175-5.652,10.148-9.163
			c0.843-0.996,1.808-1.899,2.415-3.07c0.328-0.636,0.725-0.686,1.309-0.403c0.589,0.283,1.212,0.492,1.797,0.778
			c8.403,4.109,16.277,9.04,23.175,15.395c4.136,3.809,7.826,8.017,10.538,13.012c2.902,5.342,4.383,11.104,5.244,17.061
			c0.289,1.988,0.665,3.968,0.63,5.997c-0.01,0.753-0.182,1.055-1.006,1.032c-9.036-0.25-18.073-0.034-27.112-0.105
			c-1.16-0.01-1.155-0.026-1.237-1.13c-0.23-2.981-0.593-5.953-0.694-8.946c-0.023-0.641-0.087-1.31-0.426-1.889
			c-0.068-0.116-0.27-0.237-0.393-0.22c-0.124,0.02-0.301,0.191-0.321,0.317c-0.064,0.373-0.061,0.758-0.079,1.138
			c-0.16,3.102-0.029,6.203,0.029,9.305c0.024,1.41,0.009,1.424-1.417,1.424c-23.029,0.003-46.059,0.004-69.088,0.001
			c-1.338,0-1.365-0.018-1.338-1.331c0.036-1.633,0.144-3.263,0.184-4.895C210.842,438.606,210.734,436.621,210.466,434.547z"/>
		<path style="fill-rule:evenodd;clip-rule:evenodd;fill:#FFCFA0;" d="M285.295,336.9c-1.001,5.563-2.538,10.954-4.662,16.18
			c-3.07,7.554-7.945,13.719-14.465,18.567c-3.565,2.654-7.602,4.432-11.832,5.75c-1.762,0.549-3.506,1.157-5.361,1.391
			c-2.139,0.27-4.251,0.186-6.318-0.356c-4.38-1.148-8.646-2.623-12.537-4.993c-6.357-3.876-11.348-9.073-14.954-15.608
			c-2.788-5.047-4.529-10.467-5.915-16.023c-0.376-1.513-1.043-2.974-0.873-4.596c0.013-0.121-0.153-0.261-0.273-0.451
			c-0.274,0.393-0.474,0.775-0.762,1.069c-0.791,0.807-1.789,0.796-2.561-0.031c-1.034-1.108-1.694-2.378-1.655-3.955
			c0.038-1.525,0.056-3.055,0.587-4.505c0.573-1.554,1.431-1.848,2.476-0.59c1.385,1.665,3.086,1.263,4.788,1.224
			c0.627-0.015,0.792-0.5,0.866-1.006c0.206-1.398,0.422-2.797,0.586-4.199c0.243-2.074,0.798-4.058,1.677-5.944
			c2.105-4.521,2.617-9.272,2.163-14.187c-0.272-2.968-0.552-2.526,2.314-2.895c7.338-0.948,14.427,0.25,21.39,2.436
			c3.981,1.251,8.016,2.109,12.193,1.837c6.677-0.436,13.128-1.837,19.113-4.979c0.138-0.069,0.296-0.098,0.547-0.179
			c0.266,2.128,0.474,4.211,0.793,6.276c0.837,5.375,1.661,10.759,3.915,15.785c1.132,2.523,2.658,4.741,4.904,6.412
			c1.543,1.149,4.089,1,5.499-0.322c1.62-1.522,2.397-1.313,3.01,0.854c0.481,1.7,0.453,3.451,0.288,5.186
			c-0.095,0.998-0.699,1.819-1.343,2.568c-0.968,1.124-2.013,1.074-2.987-0.095C285.719,337.298,285.731,336.848,285.295,336.9z"/>
		<path style="fill-rule:evenodd;clip-rule:evenodd;fill:#FFCC68;" d="M202.819,291.092c1.122,0,2.043,0.005,2.963-0.002
			c0.644-0.004,1.384,0.138,1.766-0.547c0.351-0.625-0.131-1.138-0.444-1.636c-0.584-0.929-1.006-1.931-1.322-2.974
			c-0.313-1.031-0.793-2.022-0.855-3.252c1.609,0.11,3.049,0.81,4.589,0.962c0.106,0.012,0.208,0.065,0.314,0.088
			c1.726,0.367,2.029,0.06,1.543-1.591c-0.29-0.981-0.611-1.955-0.709-2.93c0.136-0.253,0.308-0.201,0.445-0.139
			c5.149,2.362,10.387,2.503,15.725,0.689c2.01-0.682,3.982-1.453,5.93-2.293c3.915-1.686,7.988-2.858,12.177-3.589
			c4.806-0.838,9.564-0.234,14.234,0.928c3.637,0.905,7.166,2.157,10.577,3.781c4.588,2.186,7.749,5.692,10.018,10.126
			c0.271,0.533,0.477,1.103,0.791,1.608c0.559,0.904,1.163,1.022,2.039,0.411c0.702-0.489,1.282-1.16,2.354-1.602
			c-0.168,1.071-0.326,1.948-0.44,2.831c-0.156,1.209,0.139,1.564,1.368,1.666c0.743,0.06,1.489,0.088,2.648,0.155
			c-0.983,0.677-1.663,1.142-2.34,1.606c-0.565,0.389-0.892,0.806-0.702,1.604c0.12,0.506,0.087,1.095,0.249,1.596
			c1.641,5.048,1.81,10.261,1.78,15.494c-0.022,4.3-0.134,8.597-0.715,12.865c-0.216,1.577-0.312,1.508-1.828,1.6
			c-1.956,0.117-3.252-0.739-4.374-2.233c-1.929-2.565-3.184-5.435-4.05-8.489c-1.279-4.512-1.965-9.141-2.636-13.77
			c-0.203-1.397-0.263-2.814-0.439-4.218c-0.194-1.554-0.728-1.775-2.005-0.868c-2.894,2.054-6.2,3.142-9.587,3.977
			c-5.276,1.301-10.614,1.78-16.018,0.859c-1.664-0.284-3.285-0.736-4.899-1.233c-3.485-1.069-7.023-1.931-10.632-2.481
			c-3.039-0.462-6.079-0.265-9.122-0.082c-0.759,0.045-1.517,0.13-2.273,0.23c-0.753,0.1-1.52,0.171-2.249,0.375
			c-2.093,0.585-2.191,0.749-2.179,2.912c0.007,1.415-0.025,2.831,0.019,4.245c0.098,3.158-0.544,6.189-1.772,9.061
			c-1.473,3.444-2.409,6.985-2.52,10.73c-0.018,0.617-0.232,0.867-0.845,0.903c-1.13,0.066-2.042,0.059-3.038-0.904
			c-0.847-0.821-1.09-1.62-1.255-2.605c-1.104-6.569-0.776-13.113,0.355-19.643c0.354-2.035,0.659-4.08,1.028-6.113
			c0.208-1.147-0.04-2.118-0.741-3.058C204.611,294.63,203.492,293.091,202.819,291.092z"/>
		<path style="fill-rule:evenodd;clip-rule:evenodd;fill:#FFCFA0;" d="M232.733,377.243c0.614-0.104,1.045,0.301,1.535,0.494
			c3.496,1.381,7.022,2.613,10.802,2.995c1.978,0.199,3.921,0.046,5.834-0.361c2.872-0.61,5.671-1.502,8.377-2.665
			c0.442-0.191,0.893-0.371,1.425-0.591c0.257,0.44,0.164,0.872,0.161,1.273c-0.028,3.864-0.081,7.729-0.093,11.594
			c-0.002,0.64-0.172,1.121-0.604,1.605c-3.803,4.28-8.013,8.14-12.291,11.929c-1.104,0.975-1.157,0.975-2.281-0.018
			c-4.282-3.786-8.488-7.651-12.287-11.935c-0.337-0.38-0.576-0.746-0.577-1.287c-0.027-4.191-0.079-8.383-0.117-12.572
			C232.617,377.55,232.694,377.397,232.733,377.243z"/>
		<path style="fill-rule:evenodd;clip-rule:evenodd;fill:#FF9191;" d="M223.129,392.961c2.638-1.14,5.097-2.086,7.794-2.881
			c-0.114,1.807,0.997,2.877,1.986,4.013c3.507,4.037,7.498,7.565,11.604,10.968c0.209,0.173,0.431,0.333,0.654,0.487
			c1.386,0.953,1.84,0.994,3.209-0.053c2.682-2.049,5.176-4.314,7.631-6.629c1.821-1.722,3.523-3.551,5.156-5.446
			c0.795-0.918,1.56-1.839,1.28-3.377c2.804,0.815,5.292,1.784,7.77,2.854c-0.168,0.654-0.608,0.991-0.98,1.366
			c-0.651,0.654-1.368,1.249-1.991,1.929c-4.337,4.745-9.602,8.325-14.911,11.84c-1.445,0.957-3.043,1.682-4.542,2.564
			c-0.742,0.438-1.361,0.387-2.119-0.012c-2.843-1.5-5.545-3.215-8.215-4.998c-4.864-3.252-9.142-7.183-13.223-11.346
			C223.894,393.895,223.596,393.506,223.129,392.961z"/>
		<path style="fill-rule:evenodd;clip-rule:evenodd;fill:#FF9191;" d="M270.658,347.991c-0.021,2.877-1.162,4.688-3.449,5.473
			c-1.732,0.594-3.76,0.045-4.835-1.312c-1.115-1.404-1.215-3.435-0.161-5.002c1.085-1.61,2.661-2.503,4.554-2.828
			C268.671,343.997,271.101,345.245,270.658,347.991z"/>
		<path style="fill-rule:evenodd;clip-rule:evenodd;fill:#FF9191;" d="M227.724,344.29c0.728,0.043,1.207-0.009,1.689,0.159
			c2.928,1.023,3.607,3.916,1.466,6.172c-1.18,1.242-2.501,2.064-4.287,1.847c-1.658-0.201-2.81-1.15-3.446-2.619
			c-0.602-1.387-0.108-2.71,0.843-3.75C225.026,344.967,226.266,344.065,227.724,344.29z"/>
		<path style="fill-rule:evenodd;clip-rule:evenodd;fill:#020201;" d="M254.863,350.793c0.033,0.243-0.081,0.431-0.229,0.59
			c-0.632,0.675-1.202,1.436-2.019,1.884c-1.618,0.888-3.147,1.938-4.846,2.678c-0.509,0.222-1.014,0.461-1.555,0.193
			c-2.431-1.196-4.944-2.264-6.888-4.247c-0.189-0.194-0.37-0.396-0.542-0.607c-0.147-0.181-0.194-0.41-0.089-0.608
			c0.11-0.203,0.345-0.231,0.568-0.217c0.383,0.025,0.752,0.12,1.084,0.321c1.583,0.953,3.425,1.4,4.917,2.526
			c0.992,0.748,1.96,0.756,2.956,0.008c1.494-1.122,3.332-1.581,4.915-2.53c0.382-0.228,0.804-0.345,1.245-0.323
			C254.585,350.471,254.82,350.519,254.863,350.793z"/>
		<path style="fill-rule:evenodd;clip-rule:evenodd;fill:#040303;" d="M262.7,333.063c0.011-0.985,0.126-1.788,0.681-2.446
			c0.735-0.874,1.826-0.848,2.496,0.044c0.746,0.986,0.725,3.045-0.062,3.984c-0.472,0.565-1.048,1.002-1.832,0.797
			c-0.769-0.202-1.118-0.81-1.22-1.563C262.721,333.558,262.712,333.231,262.7,333.063z"/>
		<path style="fill-rule:evenodd;clip-rule:evenodd;fill:#040302;" d="M230.795,333.297c0-0.104,0.022,0.113-0.003,0.327
			c-0.115,1.012-0.615,1.691-1.339,1.837c-0.736,0.148-1.684-0.393-2.063-1.276c-0.446-1.042-0.429-2.134,0.034-3.159
			c0.596-1.318,2.019-1.412,2.828-0.219C230.694,331.456,230.832,332.198,230.795,333.297z"/>
		<path style="fill-rule:evenodd;clip-rule:evenodd;fill:#0A0705;" d="M246.433,339.196c1.772,0.001,3.376,1.415,3.588,2.915
			c0.021,0.145-0.012,0.345-0.102,0.446c-0.17,0.199-0.391,0.103-0.571-0.03c-0.172-0.129-0.328-0.288-0.506-0.411
			c-1.641-1.142-2.546-1.136-4.162-0.033c-0.322,0.221-0.609,0.867-1.047,0.476c-0.428-0.379-0.027-0.913,0.193-1.335
			C244.439,340.045,245.316,339.223,246.433,339.196z"/>
		<path style="fill-rule:evenodd;clip-rule:evenodd;fill:#140F0C;" d="M205.789,335.397c-0.985-1.013-1.228-1.962-1.192-3.013
			c0.012-0.319,0.007-0.696,0.409-0.783c0.5-0.108,0.619,0.312,0.754,0.661C206.121,333.195,206.057,334.134,205.789,335.397z"/>
		<path style="fill-rule:evenodd;clip-rule:evenodd;fill:#16110D;" d="M287.735,335.438c-0.299-1.397-0.349-2.423,0.108-3.436
			c0.113-0.256,0.297-0.487,0.6-0.43c0.286,0.054,0.438,0.305,0.465,0.589C289.02,333.279,288.709,334.265,287.735,335.438z"/>
	</g>
	<g>
		<path style="fill-rule:evenodd;clip-rule:evenodd;fill:#010000;" d="M135.798,405.916c2.562,1.359,4.853,2.816,7.123,4.317
			c2.511,1.658,4.792,3.574,6.9,5.717c2.957,3.008,5.094,6.5,6.26,10.556c1.023,3.553,2.03,7.115,2.684,10.754
			c0.491,2.729,0.745,5.504,0.643,8.285c-0.06,1.626-0.768,2.295-2.401,2.477c-0.323,0.036-0.653,0.021-0.979,0.025
			c-17.747,0.185-35.493,0.38-53.24,0.549c-20.957,0.202-41.908-0.408-62.862-0.506c-1.579-0.007-3.158-0.026-4.736-0.043
			c-0.381-0.004-0.766,0.013-1.142-0.036c-1.526-0.2-2.271-0.872-2.304-2.399c-0.069-3.327,0.212-6.639,0.924-9.889
			c0.557-2.549,1.297-5.057,1.903-7.594c1.724-7.216,6.162-12.476,11.992-16.744c4.183-3.064,8.777-5.44,13.277-7.978
			c0.515-0.289,1.024-0.588,1.81-1.041c-1.535-0.188-2.79-0.296-4.029-0.498c-7.725-1.265-13.671-5.138-17.399-12.108
			c-4.217-7.883-4.901-16.16-2.255-24.656c1.977-6.35,3.615-12.766,4.5-19.358c0.565-4.21,0.828-8.443,0.924-12.692
			c0.101-4.407,0.337-8.814,1.323-13.134c2.06-9.027,5.954-17.242,11.139-24.864c2.828-4.16,6.126-7.922,9.929-11.222
			c6.366-5.522,13.61-9.347,21.896-11.022c8.956-1.811,17.742-1.283,26.259,2.26c2.681,1.115,5.147,2.588,7.458,4.325
			c7.674,5.771,13.477,13.058,17.645,21.692c3.084,6.39,4.963,13.095,5.603,20.16c0.27,2.982,0.454,5.97,0.55,8.961
			c0.213,6.672-0.535,13.248-2.002,19.756c-1.454,6.444-1.294,12.818,0.722,19.168c1.431,4.511,2.569,9.11,2.787,13.881
			c0.365,8.018-2.276,14.836-8.125,20.372C137.71,404.206,136.813,404.993,135.798,405.916z"/>
		<path style="fill-rule:evenodd;clip-rule:evenodd;fill:#966A51;" d="M134.992,343.907c2.45,0.718,3.642-0.841,4.608-2.635
			c1.415-2.627,1.654-5.367,0.52-8.176c-0.294-0.73-0.775-1.3-1.409-1.758c-0.814-0.587-2.607-0.631-3.319,0.251
			c-0.224,0.279-0.395,0.662-0.942,0.747c-0.326-0.884-0.682-1.783-0.99-2.7c-1.694-5.05-4.937-8.938-9.24-11.92
			c-2.152-1.491-4.702-2.243-7.277-2.758c-4.76-0.951-9.598-1.251-14.42-1.693c-7.334-0.67-14.217-2.624-20.085-7.34
			c-0.89-0.715-1.795-1.422-2.753-2.04c-1.269-0.816-1.786-0.587-2.234,0.858c-1.729,5.58-4.083,10.885-6.965,15.964
			c-1.552,2.736-3.582,5.056-5.97,7.076c-1.966,1.663-4.417,2.304-6.781,3.1c-0.992,0.334-1.947,0.612-3.099,0.131
			c-1.269-0.527-2.607,0.284-3.389,1.621c-0.896,1.534-0.953,3.215-0.845,4.913c0.13,2.028,0.992,3.757,2.231,5.334
			c0.928,1.182,2.158,1.317,3.534,1.052c1.027,5.095,2.649,9.933,4.388,14.735c0.296,0.816,0.602,1.64,1.01,2.403
			c3.885,7.232,8.845,13.577,15.483,18.506c0.784,0.582,1.63,1.088,2.487,1.558c0.549,0.303,0.742,0.662,0.735,1.291
			c-0.036,2.994-0.033,5.988-0.006,8.983c0.005,0.683-0.179,1.005-0.87,1.307c-1.638,0.715-3.203,1.565-4.528,2.85
			c-0.971,0.94-2.259,1.489-3.489,2.072c-1.179,0.557-2.438,1.009-3.503,1.737c-2.162,1.48-4.528,1.682-7.005,1.47
			c-4.412-0.376-8.508-1.691-12.256-4.085c-2.834-1.81-4.925-4.327-6.511-7.195c-4.173-7.545-5.267-15.481-2.473-23.771
			c2.564-7.607,4.33-15.387,5.208-23.366c0.382-3.467,0.616-6.948,0.656-10.427c0.162-13.93,5.291-26.082,13.187-37.251
			c3.708-5.246,8.174-9.745,13.545-13.321c6.375-4.245,13.331-6.79,20.99-7.403c5.145-0.414,10.217-0.103,15.214,1.22
			c6.884,1.821,12.548,5.665,17.503,10.643c4.524,4.547,8.221,9.682,11.103,15.439c3.362,6.717,5.286,13.793,5.858,21.255
			c0.229,2.984,0.367,5.975,0.428,8.971c0.128,6.302-0.833,12.473-2.121,18.608c-1.366,6.512-1.291,12.944,0.718,19.351
			c1.154,3.683,2.012,7.453,2.498,11.301c1.02,8.071-1.181,15.071-6.874,20.926c-0.873,0.898-1.776,1.764-2.667,2.644
			c-0.42,0.417-0.836,0.609-1.439,0.254c-5.206-3.068-10.798-5.396-16.078-8.323c-0.377-0.209-0.788-0.413-1.076-0.722
			c-1.299-1.391-2.967-2.194-4.662-2.93c-0.564-0.244-0.722-0.525-0.719-1.079c0.013-3.103,0.025-6.205-0.013-9.309
			c-0.007-0.606,0.269-0.863,0.725-1.124c3.58-2.053,6.616-4.78,9.365-7.813c4.682-5.165,8.512-10.851,10.661-17.58
			C132.879,351.879,134.154,348.016,134.992,343.907z"/>
		<path style="fill-rule:evenodd;clip-rule:evenodd;fill:#FFA36C;" d="M117.397,398.073c3.447,1.876,6.693,3.641,9.964,5.363
			c5.385,2.839,10.773,5.691,15.783,9.189c2.474,1.727,4.686,3.745,6.642,6.016c2.342,2.717,3.936,5.844,4.706,9.386
			c1.155,5.313,2.277,10.629,2.77,16.056c0.196,2.164,0.184,2.165-2.02,2.188c-5.826,0.061-11.652,0.119-17.478,0.178
			c-0.436,0.005-0.874-0.023-1.306,0.016c-0.746,0.065-1.116-0.14-1.006-0.992c0.553-4.31-0.58-8.435-1.446-12.583
			c-0.135-0.651-0.175-1.433-1.052-1.842c-0.226,0.344-0.085,0.71-0.059,1.037c0.163,2.005,0.3,4.015,0.53,6.012
			c0.288,2.507,0.141,4.995-0.053,7.496c-0.059,0.757-0.343,0.928-0.984,0.894c-0.325-0.02-0.653,0.001-0.979,0.002
			c-10.999,0.066-21.998,0.188-32.996,0.184c-13.067-0.005-26.134-0.118-39.2-0.188c-1.337-0.007-1.263-0.031-1.456-1.402
			c-0.601-4.264,0.205-8.465,0.471-12.69c0.027-0.429,0.172-0.854,0.022-1.318c-0.814,0.191-0.886,0.898-1.017,1.508
			c-0.924,4.301-2.118,8.574-1.534,13.055c0.028,0.209,0.004,0.427,0.004,0.601c-0.45,0.327-0.9,0.22-1.325,0.215
			c-6.424-0.057-12.849-0.119-19.274-0.188c-1.328-0.015-1.367-0.031-1.27-1.361c0.288-3.968,0.941-7.881,1.742-11.773
			c0.351-1.703,0.731-3.4,1.095-5.101c0.878-4.108,2.917-7.571,5.79-10.601c3.568-3.762,7.878-6.493,12.317-9.064
			c5.558-3.219,11.325-6.047,16.948-9.145c0.617-0.34,1.223-0.699,1.932-1.105c0.912,1.334,2.011,2.522,2.992,3.795
			c3.159,4.102,7.444,6.313,12.377,7.307c4.568,0.921,9.19,0.912,13.751-0.146c4.63-1.073,8.652-3.198,11.621-7.052
			C115.388,400.728,116.619,399.633,117.397,398.073z"/>
		<path style="fill-rule:evenodd;clip-rule:evenodd;fill:#FFCFA0;" d="M57.483,340.44c-0.623,0.341-0.733,0.932-1.109,1.315
			c-0.871,0.895-1.728,0.951-2.498,0.018c-1.887-2.296-2.547-4.887-1.658-7.781c0.126-0.411,0.319-0.821,0.569-1.166
			c0.65-0.897,1.56-1.074,2.351-0.323c0.53,0.505,0.904,0.517,1.551,0.292c1.072-0.373,2.202-0.585,3.313-0.838
			c4.04-0.916,6.958-3.449,9.453-6.573c2.361-2.958,4.091-6.293,5.514-9.774c1.335-3.267,2.865-6.462,3.823-9.877
			c0.026-0.091,0.138-0.157,0.274-0.307c0.764,0.611,1.532,1.204,2.276,1.824c4.539,3.784,9.759,6.012,15.559,7.06
			c4.027,0.73,8.107,0.843,12.156,1.31c4.163,0.48,8.308,0.989,12.246,2.56c1.126,0.448,2.164,0.993,3.105,1.754
			c3.367,2.718,6.008,5.963,7.546,10.057c0.438,1.17,0.962,2.309,1.502,3.436c0.484,1.011,0.88,1.049,1.687,0.236
			c0.306-0.31,0.574-0.653,0.867-0.975c0.78-0.853,1.582-0.851,2.293,0.057c0.624,0.794,0.866,1.755,0.965,2.735
			c0.23,2.274-0.404,4.313-1.819,6.096c-0.925,1.166-1.854,1.149-2.816,0.008c-0.301-0.356-0.436-0.86-0.876-1.104
			c-0.392,0.266-0.347,0.633-0.239,0.889c0.624,1.479,0.193,2.896-0.237,4.297c-1.327,4.314-2.846,8.565-4.591,12.728
			c-1.524,3.636-3.788,6.862-6.153,9.977c-3.511,4.623-7.668,8.564-12.713,11.567c-3.958,2.355-8.233,3.326-12.737,3.578
			c-2.233,0.126-4.459-0.05-6.675-0.347c-4.655-0.624-8.719-2.652-12.429-5.408c-6.277-4.662-10.922-10.737-14.649-17.524
			c-1.729-3.147-2.725-6.632-3.97-9.994c-0.547-1.477-1.014-2.984-1.468-4.495c-0.42-1.402-0.887-2.81-0.275-4.295
			C57.732,341.181,57.736,340.822,57.483,340.44z"/>
		<path style="fill-rule:evenodd;clip-rule:evenodd;fill:#FFCFA0;" d="M109.559,382.607c-0.211,3.381-0.378,6.746-0.374,10.113
			c0.001,0.59-0.189,1.034-0.647,1.413c-1.381,1.144-2.716,2.348-4.22,3.332c-3.184,2.086-6.712,2.616-10.441,2.351
			c-3.687-0.266-6.691-1.917-9.534-4.167c-1.714-1.356-2.597-2.742-2.451-5.036c0.167-2.639-0.154-5.312-0.263-8.001
			C90.89,386.155,100.123,386.15,109.559,382.607z"/>
		<path style="fill-rule:evenodd;clip-rule:evenodd;fill:#FF8F6C;" d="M80.066,393.73c7.279,10.617,23.195,11.171,31.048,0.03
			c1.368,0.873,2.772,1.684,3.87,2.93c0.458,0.519,0.605,0.894,0.129,1.534c-4.451,5.989-10.364,9.285-17.818,9.811
			c-5.312,0.375-10.214-0.933-14.808-3.547c-0.81-0.462-1.556-1-2.19-1.686c-1.37-1.474-2.721-2.965-4.114-4.417
			c-0.631-0.657-0.534-1.146,0.059-1.783C77.335,395.425,78.69,394.631,80.066,393.73z"/>
		<path style="fill-rule:evenodd;clip-rule:evenodd;fill:#030202;" d="M82.379,354.076c0.612-0.234,1.105,0.159,1.614,0.393
			c5.993,2.749,12.219,3.237,18.61,1.848c1.698-0.369,3.255-1.205,4.875-1.831c0.357-0.138,0.859-0.565,1.161-0.085
			c0.378,0.604-0.13,1.03-0.605,1.304c-2.377,1.371-4.943,2.216-7.64,2.701c-4.323,0.775-8.561,0.203-12.752-0.845
			c-1.809-0.45-3.389-1.446-4.832-2.63C82.575,354.739,82.262,354.554,82.379,354.076z"/>
		<path style="fill-rule:evenodd;clip-rule:evenodd;fill:#FF9191;" d="M118.687,348.257c0.929-0.083,1.832,0.051,2.72,0.314
			c0.999,0.297,1.704,0.916,1.934,1.947c0.254,1.146-0.438,1.957-1.311,2.377c-1.96,0.94-4.91,0.936-6.59-0.964
			c-1.147-1.297-0.754-2.859,0.845-3.446C117.084,348.191,117.884,348.294,118.687,348.257z"/>
		<path style="fill-rule:evenodd;clip-rule:evenodd;fill:#FF9191;" d="M72.918,352.522c-0.884,0.057-1.755-0.033-2.543-0.435
			c-0.752-0.382-1.284-0.942-1.276-1.908c0.008-0.97,0.546-1.554,1.324-1.865c1.739-0.697,3.578-0.898,5.434-0.677
			c1.11,0.132,1.988,1.154,2.076,2.216c0.074,0.883-0.566,1.746-1.662,2.156c-0.504,0.188-1.037,0.331-1.567,0.409
			C74.115,352.503,73.514,352.492,72.918,352.522z"/>
		<path style="fill-rule:evenodd;clip-rule:evenodd;fill:#070504;" d="M80.602,337.41c0.011,0.547-0.045,1.076-0.283,1.586
			c-0.278,0.597-0.714,0.977-1.375,0.948c-0.591-0.023-1.029-0.392-1.219-0.938c-0.325-0.931-0.471-1.883-0.146-2.866
			c0.207-0.625,0.572-1.082,1.229-1.143c0.722-0.064,1.215,0.332,1.521,0.992C80.54,336.446,80.599,336.921,80.602,337.41z"/>
		<path style="fill-rule:evenodd;clip-rule:evenodd;fill:#050403;" d="M115.188,337.161c0.013,0.544-0.043,1.072-0.273,1.575
			c-0.283,0.613-0.778,0.889-1.425,0.833c-0.659-0.058-1.095-0.466-1.24-1.097c-0.223-0.965-0.148-1.92,0.244-2.841
			c0.259-0.609,0.699-0.958,1.371-0.9c0.604,0.052,0.928,0.458,1.137,1.002C115.18,336.199,115.175,336.679,115.188,337.161z"/>
		<path style="fill-rule:evenodd;clip-rule:evenodd;fill:#080504;" d="M95.002,344.223c1.65-0.03,2.737,0.675,3.088,1.741
			c0.1,0.306,0.185,0.649-0.118,0.895c-0.285,0.23-0.612,0.171-0.908,0.003c-0.186-0.105-0.348-0.255-0.524-0.377
			c-1.099-0.767-1.477-0.766-2.603,0.01c-0.133,0.093-0.247,0.219-0.39,0.289c-0.45,0.219-0.941,0.88-1.399,0.298
			c-0.401-0.511,0.22-0.975,0.534-1.381C93.372,344.808,94.243,344.211,95.002,344.223z"/>
		<path style="fill-rule:evenodd;clip-rule:evenodd;fill:#120D0A;" d="M136.333,338.669c-0.419-1.027-0.457-2.035-0.104-3.03
			c0.069-0.192,0.239-0.37,0.483-0.363c0.258,0.009,0.362,0.208,0.404,0.427C137.328,336.803,137.128,337.802,136.333,338.669z"/>
		<path style="fill-rule:evenodd;clip-rule:evenodd;fill:#120D0A;" d="M54.997,338.643c-0.564,0.046-0.636-0.347-0.733-0.617
			c-0.315-0.875-0.512-1.775-0.045-2.663c0.06-0.114,0.286-0.166,0.423-0.027c0.698,0.705,0.486,1.602,0.489,2.447
			C55.132,338.08,55.041,338.376,54.997,338.643z"/>
	</g>
	<g>
		<path style="fill-rule:evenodd;clip-rule:evenodd;fill:#010000;" d="M208.324,86.983c-3.704-1.051-7.34-1.857-10.536-4.024
			c-3.867-2.624-5.857-6.2-6.113-10.771c-0.182-3.242,0.393-6.397,1.576-9.427c1.15-2.943,3.281-5.11,5.734-6.972
			c1.603-1.217,3.32-2.316,5.258-2.915c4.739-1.465,9.235-1.243,13.167,2.203c2.851,2.497,4.948,5.473,5.822,9.221
			c0.172,0.735,0.392,1.458,0.587,2.173c0.582,0.144,0.862-0.269,1.2-0.482c5.471-3.453,11.273-6.159,17.673-7.3
			c7.32-1.306,14.513-0.69,21.508,1.946c4.09,1.541,7.914,3.581,11.652,5.996c0.621-0.901,0.697-1.946,0.966-2.906
			c1.233-4.411,3.888-7.796,7.729-10.131c3.354-2.038,7.089-2.014,10.731-0.836c3.48,1.126,6.374,3.254,8.825,5.97
			c1.602,1.773,2.632,3.841,3.234,6.146c0.934,3.58,1.332,7.172,0.281,10.792c-0.847,2.929-2.612,5.175-5.073,6.984
			c-3.296,2.422-7.159,3.297-10.989,4.331c0.01,0.74,0.338,1.377,0.566,2.037c1.382,3.963,2.532,8.003,3.109,12.151
			c0.684,4.911,0.895,9.861-0.577,14.711c-0.166,0.544-0.009,0.895,0.289,1.332c2.02,2.956,2.082,6.229,1.333,9.555
			c-0.372,1.645-1.292,3.005-3.02,3.58c-0.512,0.17-0.625,0.504-0.604,0.996c0.054,1.36,0.102,2.721,0.1,4.081
			c-0.009,3.265-0.036,6.53-0.085,9.796c-0.011,0.637,0.091,1.07,0.681,1.489c0.896,0.64,1.123,1.584,0.754,2.444
			c-0.363,0.853-0.982,1.432-1.962,1.505c-0.871,0.062-1.554-0.358-1.951-1.195c-0.415-0.878-0.398-1.861,0.35-2.395
			c0.913-0.65,0.826-1.456,0.8-2.299c-0.142-4.302,0.001-8.598,0.22-12.894c0.017-0.326,0.027-0.653,0.004-0.979
			c-0.022-0.34-0.328-0.401-0.579-0.473c-0.409-0.115-0.436,0.235-0.482,0.474c-0.306,1.605-0.695,3.189-1.184,4.747
			c-4.199,13.403-11.88,23.977-24.74,30.306c-0.748,0.368-0.974,0.752-0.935,1.611c0.132,2.934,0.312,5.864,0.519,8.794
			c0.054,0.784,0.305,1.119,1.076,1.318c13.131,3.404,24.793,9.635,34.964,18.565c7.655,6.72,12.931,15.05,15.976,24.789
			c0.688,2.2,0.846,4.481,1.222,6.729c0.194,1.178-0.121,1.476-1.28,1.546c-0.488,0.029-0.98,0.007-1.468,0.009
			c-21.503,0.077-43.008,0.216-64.51,0.215c-21.939-0.001-43.877-0.139-65.816-0.217c-0.218-0.001-0.437,0.011-0.653-0.007
			c-1.048-0.095-1.374-0.398-1.195-1.477c0.352-2.142,0.478-4.325,1.116-6.419c2.969-9.757,8.26-18.049,15.776-24.922
			c5.992-5.478,12.804-9.724,20.108-13.213c4.172-1.993,8.378-3.9,12.877-5.057c0.79-0.204,1.581-0.406,2.379-0.567
			c0.605-0.122,0.939-0.367,0.974-1.059c0.156-3.096,0.329-6.192,0.572-9.282c0.07-0.891-0.467-1.096-1.061-1.384
			c-4.596-2.229-8.754-5.099-12.263-8.812c-5.848-6.186-10.096-13.325-12.417-21.558c-0.413-1.464-0.86-2.92-1.086-4.433
			c-0.043-0.287-0.041-0.738-0.48-0.709c-0.503,0.033-0.708,0.355-0.686,0.896c0.107,2.665,0.338,5.325,0.291,7.995
			c-0.035,1.958-0.028,3.918-0.033,5.878c-0.002,0.644,0.01,1.176,0.638,1.708c1.071,0.911,0.964,2.433-0.019,3.297
			c-0.836,0.736-2.111,0.611-2.913-0.287c-0.891-0.995-0.874-2.301,0.234-3.141c0.628-0.475,0.722-0.952,0.73-1.633
			c0.052-4.517-0.2-9.035,0.02-13.551c0.028-0.574-0.003-1.014-0.688-1.271c-2.158-0.813-2.983-2.663-3.196-4.737
			c-0.309-3.007-0.278-6.012,1.741-8.565c0.384-0.485,0.181-0.906,0.041-1.371c-0.886-2.954-0.954-5.991-0.923-9.042
			c0.062-6.179,1.709-12.026,3.65-17.82C208.048,88.208,208.343,87.665,208.324,86.983z"/>
		<path style="fill-rule:evenodd;clip-rule:evenodd;fill:#FFCFA0;" d="M208.395,128.614c-0.466-0.427-0.186-1.117-0.663-1.447
			c-0.385,0.093-0.385,0.374-0.419,0.646c-0.027,0.212-0.078,0.421-0.132,0.702c-1.382-0.651-1.895-1.876-2.086-3.154
			c-0.256-1.718-0.288-3.478,0.188-5.187c0.159-0.57,0.366-1.15,0.67-1.653c0.961-1.591,1.975-1.782,3.484-0.697
			c0.484,0.348,0.924,0.756,1.392,1.125c0.536,0.423,1.057,0.372,1.356-0.239c1.425-2.919,3.887-4.948,6.126-7.158
			c2.149-2.121,4.642-3.702,7.475-4.845c4.7-1.896,9.644-3.045,14.358-4.875c6.892-2.675,13.349-6.101,18.954-11.009
			c1.741-1.524,3.228-3.222,4.391-5.22c0.844-1.451,1.735-2.874,2.772-4.587c-0.143,4.323,0.474,8.234,2.073,11.943
			c1.928,4.468,4.497,8.557,7.374,12.476c1.902,2.589,4.063,4.972,5.911,7.602c1.797,2.553,3.186,5.311,4.314,8.215
			c0.294,0.75,0.287,1.921,1.478,1.856c1.019-0.057,0.842-1.127,1.105-1.786c0.43-1.061,0.816-2.149,1.522-3.057
			c1.235-1.586,2.737-1.514,3.834,0.159c0.265,0.403,0.464,0.866,0.608,1.329c0.604,1.912,0.532,3.879,0.272,5.823
			c-0.173,1.287-0.813,2.068-1.961,2.879c-0.408-0.315,0.022-0.995-0.841-1.358c0.136,0.046,0.014,0.154-0.027,0.314
			c-0.093,0.365-0.16,0.738-0.26,1.215c-0.82-0.19-1.352-0.634-1.742-1.317c-0.181-0.319-0.422-0.733-0.87-0.542
			c-0.433,0.184-0.435,0.65-0.222,0.985c0.944,1.496,0.313,2.907-0.125,4.36c-2.416,8.023-6.14,15.363-11.625,21.714
			c-4.94,5.719-11.031,9.888-18.251,12.162c-6.874,2.167-13.748,1.86-20.434-0.954c-8.659-3.643-15.346-9.577-20.28-17.546
			c-3.231-5.218-5.661-10.775-7.327-16.677c-0.245-0.87-0.456-1.67,0.081-2.495c0.144-0.222,0.218-0.503,0.266-0.768
			c0.059-0.333,0.018-0.695-0.356-0.815c-0.283-0.09-0.531,0.119-0.669,0.357C209.722,127.77,209.236,128.331,208.395,128.614z"/>
		<path style="fill-rule:evenodd;clip-rule:evenodd;fill:#454444;" d="M293.347,115.679c-3.061-0.532-4.442,1.656-5.924,3.688
			c-0.536-0.06-0.452-0.561-0.586-0.868c-1.742-4.035-4.286-7.534-7.036-10.929c-2.461-3.036-4.846-6.146-6.871-9.505
			c-2.343-3.885-4.299-7.929-5.014-12.467c-0.227-1.445-0.511-2.885-0.51-4.357c0-0.381-0.01-0.762-0.015-1.143
			c-0.008-0.399-0.085-0.784-0.503-0.933c-0.366-0.133-0.603,0.159-0.834,0.38c-0.592,0.565-1.136,1.171-1.589,1.855
			c-0.209,0.317-0.49,0.589-0.673,0.919c-2.985,5.378-7.777,8.842-12.802,12.042c-4.326,2.753-8.906,5.012-13.753,6.697
			c-1.896,0.659-3.822,1.233-5.744,1.818c-2.707,0.823-5.333,1.868-7.919,3.004c-1.847,0.808-3.489,2.021-5.039,3.292
			c-1.677,1.376-3.204,2.938-4.795,4.421c-1.048,0.975-1.672,2.267-2.563,3.487c-1.508-0.488-2.686-2.265-4.661-1.151
			c-0.206-1.399-0.479-2.594-0.531-3.835c-0.143-3.32-0.028-6.638,0.378-9.927c0.237-1.927,0.82-3.812,1.281-5.709
			c1.382-5.682,3.331-11.132,6.559-16.064c5.157-7.878,12.044-13.627,20.855-17.029c3.143-1.214,6.339-2.2,9.669-2.82
			c4.698-0.875,9.276-0.447,13.846,0.752c5.196,1.365,10.043,3.507,14.587,6.353c2.591,1.624,4.932,3.519,6.973,5.827
			c1.841,2.08,3.651,4.168,5.236,6.453c3.434,4.947,5.246,10.563,6.866,16.282c1.115,3.949,1.697,7.984,1.747,12.039
			C294.012,110.655,294.152,113.147,293.347,115.679z"/>
		<path style="fill-rule:evenodd;clip-rule:evenodd;fill:#50A5BA;" d="M221.235,184.505c0.119,2.53,0.25,4.901,0.338,7.272
			c0.273,7.393,0.453,14.793,0.826,22.182c0.2,3.98,0.394,3.454,3.454,3.678c3.806,0.28,7.617,0.181,11.423,0.274
			c6.2,0.153,12.404,0.353,18.606,0.138c6.362-0.219,12.732-0.053,19.09-0.467c1.972-0.129,2.077-0.204,2.389-2.129
			c0.085-0.535,0.131-1.08,0.149-1.622c0.143-4.296,0.199-8.596,0.433-12.888c0.288-5.325,0.454-10.653,0.637-15.983
			c0.005-0.094,0.073-0.187,0.144-0.363c0.802,0.111,1.494,0.561,2.223,0.877c2.601,1.129,4.962,2.707,7.466,4.019
			c0.858,0.449,0.883,1.128,0.827,1.912c-0.247,3.527-0.556,7.051-0.601,10.591c-0.028,2.448-0.13,4.9-0.056,7.345
			c0.177,5.662-0.395,11.312-0.255,16.974c0.029,1.209-0.031,1.236-1.298,1.236c-5.825-0.004-11.648-0.02-17.473-0.036
			c-9.96-0.026-19.919-0.079-29.879-0.075c-8.708,0.005-17.416,0.075-26.124,0.114c-0.381,0.001-0.763-0.018-1.143,0.001
			c-0.619,0.029-0.913-0.241-0.868-0.868c0.008-0.107-0.005-0.216-0.002-0.325c0.145-6.584-0.394-13.157-0.197-19.749
			c0.141-4.722-0.225-9.462-0.611-14.181c-0.022-0.271-0.036-0.544-0.081-0.812c-0.188-1.083,0.133-1.787,1.193-2.345
			c2.74-1.443,5.357-3.119,8.228-4.316C220.411,184.816,220.757,184.691,221.235,184.505z"/>
		<path style="fill-rule:evenodd;clip-rule:evenodd;fill:#6ECFE8;" d="M249.932,198.227c1.166,1.334,2.175,2.545,3.25,3.697
			c0.89,0.955,1.83,1.863,2.794,2.743c0.83,0.759,1.418,0.742,2.29-0.009c4.039-3.487,7.252-7.643,9.922-12.241
			c1.778-3.061,3.27-6.267,4.801-9.451c0.287-0.6,0.51-0.879,1.196-0.527c0.82,0.418,1.69,0.743,2.544,1.096
			c0.499,0.207,0.702,0.433,0.619,1.093c-1.186,9.41-1.545,18.866-1.552,28.342c0,2.83-0.016,2.835-2.839,2.872
			c-7.619,0.099-15.237,0.275-22.855,0.268c-8.217-0.008-16.434-0.185-24.651-0.297c-1.271-0.017-1.289-0.043-1.314-1.404
			c-0.071-3.755-0.053-7.515-0.205-11.265c-0.249-6.143-0.531-12.287-1.363-18.386c-0.089-0.657-0.014-0.989,0.618-1.242
			c1.058-0.421,2.065-0.97,3.17-1.276c0.703,0.835,1.112,1.842,1.557,2.814c1.977,4.313,4.263,8.44,7.009,12.319
			c1.934,2.733,4.273,5.072,6.726,7.311c0.823,0.751,1.435,0.714,2.295-0.041c1.637-1.442,3.137-3.018,4.526-4.701
			C248.917,199.397,249.383,198.868,249.932,198.227z"/>
		<path style="fill-rule:evenodd;clip-rule:evenodd;fill:#6ECFE8;" d="M290.736,190.967c3.565,2.279,6.7,4.879,9.657,7.684
			c6.881,6.529,11.837,14.284,14.729,23.346c0.506,1.591,0.456,3.217,0.585,4.837c0.035,0.46-0.13,0.731-0.631,0.721
			c-0.326-0.006-0.654,0.003-0.98,0.003c-7.457-0.003-14.913-0.008-22.369-0.012c-0.326,0-0.654-0.021-0.979,0.002
			c-0.632,0.043-0.865-0.209-0.828-0.86c0.095-1.684,0.11-3.372,0.201-5.055c0.222-4.024,0.349-8.046,0.241-12.077
			c-0.162-6.042,0.094-12.08,0.188-18.119C290.554,191.342,290.621,191.248,290.736,190.967z"/>
		<path style="fill-rule:evenodd;clip-rule:evenodd;fill:#6ECFE8;" d="M209.284,191.064c0.233,5.383,0.382,10.662,0.254,15.933
			c-0.153,6.373,0.172,12.729,0.365,19.091c0.044,1.437,0.062,1.453-1.323,1.455c-7.728,0.011-15.455,0.015-23.182,0.012
			c-1.26,0-1.211-0.021-1.22-1.268c-0.021-2.954,0.957-5.655,2.045-8.329c3.169-7.791,7.934-14.469,14.137-20.123
			c2.374-2.163,4.842-4.218,7.504-6.024C208.256,191.544,208.604,191.183,209.284,191.064z"/>
		<path style="fill-rule:evenodd;clip-rule:evenodd;fill:#454444;" d="M193.565,70.558c0.15-4.082,1.398-8.419,5.07-11.758
			c1.741-1.582,3.646-2.972,5.842-3.821c4.162-1.611,8.152-1.465,11.754,1.536c1.952,1.627,3.481,3.568,4.642,5.827
			c0.371,0.723,0.325,1.169-0.418,1.579c-2.738,1.515-5.029,3.624-7.224,5.798c-3.862,3.827-6.851,8.277-8.879,13.341
			c-0.231,0.578-0.465,1.027-1.165,0.705c-2.929-1.343-5.802-2.746-7.676-5.574C194.106,76.073,193.516,73.764,193.565,70.558z"/>
		<path style="fill-rule:evenodd;clip-rule:evenodd;fill:#FFCFA0;" d="M262.086,167.171c0,0.805,0.022,1.44-0.004,2.073
			c-0.137,3.163,0.386,6.294,0.433,9.446c0.009,0.657-0.039,1.245-0.435,1.847c-3.358,5.097-7.196,9.808-11.361,14.262
			c-0.222,0.237-0.469,0.448-0.816,0.779c-1.154-1.239-2.348-2.405-3.41-3.682c-3.023-3.633-6.075-7.246-8.61-11.257
			c-0.406-0.642-0.553-1.248-0.523-1.979c0.151-3.746,0.665-7.476,0.368-11.505C245.883,170.283,253.932,170.319,262.086,167.171z"
			/>
		<path style="fill-rule:evenodd;clip-rule:evenodd;fill:#454444;" d="M306.319,71.307c0.105,5.128-2.385,8.66-6.746,11.04
			c-0.809,0.444-1.641,0.854-2.483,1.231c-1.059,0.475-1.103,0.437-1.545-0.62c-0.946-2.262-2.076-4.441-3.411-6.481
			c-2.511-3.841-5.521-7.252-9.211-10.041c-1.17-0.882-2.235-1.9-3.563-2.564c-0.557-0.276-0.813-0.646-0.474-1.304
			c1.708-3.321,3.982-6.129,7.432-7.726c2.671-1.235,5.535-1.279,8.237-0.225c3.485,1.359,6.538,3.438,8.775,6.54
			C305.52,64.193,306.183,67.672,306.319,71.307z"/>
		<path style="fill-rule:evenodd;clip-rule:evenodd;fill:#50A5BA;" d="M227.765,181.713c2.352-1.156,4.732-1.7,7.071-2.371
			c0.281-0.081,0.487-0.009,0.635,0.308c1.555,3.304,3.611,6.286,5.919,9.096c2.103,2.56,4.139,5.185,6.605,7.421
			c0.54,0.49,0.647,0.845,0.086,1.459c-1.54,1.683-3.021,3.417-4.685,4.986c-0.531,0.501-0.874,0.65-1.458,0.062
			c-2.027-2.044-4.067-4.057-5.71-6.457c-2.52-3.686-4.708-7.555-6.748-11.518C228.985,183.739,228.405,182.822,227.765,181.713z"/>
		<path style="fill-rule:evenodd;clip-rule:evenodd;fill:#50A5BA;" d="M257.4,203.1c-0.36,0.059-0.497-0.13-0.654-0.271
			c-1.867-1.672-3.485-3.578-5.15-5.443c-0.521-0.586-0.042-0.882,0.293-1.198c2.262-2.131,4.153-4.588,6.195-6.916
			c2.271-2.594,3.851-5.652,5.927-8.37c0.365-0.48,0.118-1.421,0.705-1.522c0.637-0.108,1.36,0.251,2.038,0.438
			c1.518,0.419,3.019,0.885,4.491,1.453c0.625,0.241,0.893,0.484,0.492,1.173c-2.81,4.831-5.232,9.891-8.535,14.434
			c-1.575,2.166-3.46,4.039-5.381,5.882C257.67,202.907,257.493,203.027,257.4,203.1z"/>
		<path style="fill-rule:evenodd;clip-rule:evenodd;fill:#FE9191;" d="M278.385,65.428c3.256,2.112,6.121,4.663,8.715,7.545
			c2.763,3.068,4.706,6.64,6.502,10.305c0.604,1.239,0.514,1.365-0.804,1.861c-0.253,0.097-0.521,0.155-0.774,0.253
			c-0.804,0.309-1.252,0.077-1.626-0.748c-2.54-5.624-6.287-10.391-10.632-14.72c-0.501-0.497-0.993-1.025-1.574-1.413
			c-0.796-0.531-0.914-1.12-0.462-1.912C277.915,66.275,277.888,65.849,278.385,65.428z"/>
		<path style="fill-rule:evenodd;clip-rule:evenodd;fill:#FE9191;" d="M221.524,65.388c0.213,0.254,0.309,0.324,0.347,0.419
			c0.748,1.844,0.714,1.809-0.773,3.205c-4.72,4.429-8.688,9.428-11.494,15.302c-0.216,0.453-0.225,1.208-0.919,1.201
			c-0.932-0.005-1.85-0.316-2.58-0.879c-0.462-0.357-0.049-0.921,0.165-1.335c1.144-2.223,2.214-4.489,3.621-6.563
			C212.986,72.178,216.909,68.47,221.524,65.388z"/>
		<path style="fill-rule:evenodd;clip-rule:evenodd;fill:#FF9191;" d="M272.309,136.814c0.282,2.609-2.919,5.209-5.548,4.903
			c-1.569-0.183-2.825-1.196-3.174-2.842c-0.565-2.671,0.726-5.232,3.271-6.113C269.295,131.919,272.829,134.266,272.309,136.814z"
			/>
		<path style="fill-rule:evenodd;clip-rule:evenodd;fill:#FF9191;" d="M232.393,140.1c-2.432,0-3.872-1.409-3.871-3.784
			c0-2.652,1.695-4.551,3.865-4.765c1.862-0.183,4.302,2.315,4.317,4.658C236.717,138.034,234.63,140.507,232.393,140.1z"/>
		<path style="fill-rule:evenodd;clip-rule:evenodd;fill:#030201;" d="M249.921,143.843c-0.301-0.09-0.632-0.142-0.919-0.282
			c-2.302-1.113-4.484-2.427-6.531-3.959c-0.217-0.162-0.412-0.354-0.604-0.546c-0.206-0.202-0.339-0.466-0.196-0.729
			c0.147-0.272,0.46-0.269,0.721-0.205c1.324,0.329,2.54,0.934,3.757,1.526c0.975,0.475,1.95,0.957,2.89,1.497
			c0.634,0.364,1.163,0.335,1.816,0.006c1.792-0.9,3.522-1.93,5.406-2.643c0.505-0.191,0.994-0.455,1.559-0.398
			c0.445,0.044,0.536,0.346,0.37,0.686c-0.112,0.233-0.324,0.436-0.532,0.601c-2.141,1.688-4.483,3.05-6.93,4.235
			C250.488,143.748,250.205,143.773,249.921,143.843z"/>
		<path style="fill-rule:evenodd;clip-rule:evenodd;fill:#050403;" d="M229.854,122.269c-0.033-0.822,0.185-1.534,0.731-2.12
			c0.96-1.032,2.356-0.804,2.88,0.504c0.478,1.19,0.299,2.374-0.393,3.419c-0.762,1.151-2.269,0.995-2.894-0.253
			C229.932,123.329,229.819,122.795,229.854,122.269z"/>
		<path style="fill-rule:evenodd;clip-rule:evenodd;fill:#050403;" d="M266.163,121.797c0.054-0.257,0.089-0.698,0.239-1.096
			c0.497-1.313,1.89-1.59,2.865-0.594c0.925,0.943,1.034,3.052,0.213,4.08c-0.711,0.887-1.945,0.869-2.646-0.065
			C266.36,123.493,266.237,122.739,266.163,121.797z"/>
		<path style="fill-rule:evenodd;clip-rule:evenodd;fill:#0A0706;" d="M249.877,127.579c1.426-0.033,2.819,1.069,3.072,2.422
			c0.041,0.222,0.059,0.445-0.146,0.58c-0.192,0.127-0.412,0.093-0.609-0.028c-0.091-0.057-0.185-0.116-0.262-0.188
			c-1.348-1.264-2.682-1.216-4.016,0.026c-0.243,0.227-0.548,0.415-0.864,0.157c-0.33-0.27-0.095-0.591,0.012-0.882
			C247.52,128.405,248.598,127.608,249.877,127.579z"/>
		<path style="fill-rule:evenodd;clip-rule:evenodd;fill:#0F0C09;" d="M293.026,122.504c-0.036,0.872-0.124,1.509-0.56,2.035
			c-0.362,0.434-0.733,0.387-0.969-0.146c-0.448-1.018-0.236-1.996,0.254-2.938c0.131-0.253,0.35-0.406,0.654-0.374
			c0.308,0.034,0.478,0.236,0.521,0.523C292.985,121.972,293.011,122.347,293.026,122.504z"/>
		<path style="fill-rule:evenodd;clip-rule:evenodd;fill:#0A0907;" d="M206.855,122.471c0.101-0.488-0.177-1.297,0.665-1.358
			c0.769-0.056,0.805,0.744,0.979,1.273c0.168,0.512,0.15,1.067,0.033,1.594c-0.079,0.348-0.145,0.801-0.609,0.823
			c-0.437,0.021-0.606-0.382-0.774-0.714C206.897,123.597,206.874,123.059,206.855,122.471z"/>
	</g>
	<g>
		<path style="fill-rule:evenodd;clip-rule:evenodd;fill:#010000;" d="M446.392,403.587c6.578,6.245,11.419,13.613,15.137,21.754
			c1.78,3.895,2.538,8.078,3.248,12.265c0.3,1.771,0.549,3.547,0.818,5.322c0.033,0.214,0.067,0.43,0.086,0.647
			c0.174,2.209-0.168,2.617-2.355,2.703c-2.175,0.085-4.352,0.157-6.527,0.19c-17.908,0.278-35.814,0.605-53.724,0.798
			c-14.26,0.152-28.518-0.301-42.778-0.54c-7.782-0.131-15.565-0.281-23.347-0.429c-0.6-0.01-1.203-0.021-1.791-0.11
			c-1.051-0.159-1.275-0.426-1.344-1.495c-0.074-1.204,0.109-2.388,0.309-3.569c0.678-3.966,1.21-7.964,2.392-11.822
			c1.657-5.411,4.409-10.289,7.568-14.935c2.633-3.87,5.394-7.657,9.018-10.662c-0.18-0.67-0.782-0.625-1.171-0.858
			c-3.093-1.867-5.316-4.319-5.577-8.116c-0.11-1.649,0.23-3.247,0.655-4.829c0.452-1.684,1.082-3.305,1.694-4.933
			c1.404-3.731,1.204-7.356-0.809-10.838c-0.625-1.082-1.296-2.142-1.898-3.236c-2.727-4.976-2.489-9.899,0.399-14.71
			c0.983-1.632,2.239-3.082,3.51-4.504c2.65-2.966,3.47-6.567,3.664-10.393c0.018-0.382-0.011-0.753-0.21-1.104
			c-1.763-3.092-1.549-6.377-0.87-9.681c0.147-0.714,0.189-1.327-0.043-2.036c-0.445-1.355-0.353-2.796-0.453-4.205
			c-0.543-7.665,1.497-14.769,4.793-21.566c5.035-10.387,12.74-18.346,22.544-24.311c2.697-1.643,5.624-2.84,8.679-3.685
			c3.249-0.898,6.486-1.803,9.891-1.972c3.18-0.157,6.296,0.169,9.398,0.82c10.165,2.137,18.377,7.557,25.486,14.94
			c6.405,6.65,10.727,14.453,13.399,23.236c1.154,3.795,1.418,7.69,1.345,11.617c-0.036,1.95-0.016,3.924-0.699,5.803
			c-0.162,0.444,0.059,0.854,0.156,1.272c0.522,2.305,0.707,4.616,0.224,6.956c-0.156,0.753-0.332,1.515-0.737,2.149
			c-0.569,0.891-0.642,1.821-0.531,2.81c0.4,3.638,1.396,7.011,3.989,9.782c1.147,1.226,2.217,2.565,3.097,3.992
			c2.993,4.836,3.218,9.809,0.428,14.835c-0.712,1.283-1.504,2.525-2.189,3.822c-1.67,3.16-1.834,6.438-0.621,9.786
			c0.779,2.147,1.62,4.268,2.118,6.506c1.207,5.414-0.731,9.534-5.693,12.027C446.834,403.202,446.535,403.219,446.392,403.587z"/>
		<path style="fill-rule:evenodd;clip-rule:evenodd;fill:#DF91FF;" d="M400.51,399.111c0.661,0.014,0.852,0.467,1.157,0.737
			c1.871,1.666,3.748,3.319,5.939,4.568c2.927,1.669,6.005,2.116,9.284,1.285c3.849-0.975,7.067-4.642,7.244-8.314
			c0.069-1.436-0.266-2.795-0.861-4.185c0.513-0.146,0.876,0.126,1.234,0.274c5.066,2.121,10.063,4.378,14.769,7.252
			c3.755,2.294,7.092,5.052,9.911,8.408c2.839,3.379,5.329,7.006,7.594,10.804c3.228,5.416,5.196,11.229,6.05,17.451
			c0.28,2.046,0.623,4.086,0.881,6.136c0.135,1.063,0.054,1.119-0.993,1.133c-8.218,0.088-16.437,0.172-24.655,0.247
			c-1.33,0.012-1.371-0.017-1.234-1.373c0.474-4.729,0.046-9.337-1.701-13.794c-0.297-0.753-0.436-1.57-0.637-2.359
			c-0.075-0.299-0.242-0.52-0.549-0.466c-0.291,0.05-0.44,0.308-0.428,0.608c0.01,0.269,0.046,0.541,0.1,0.806
			c0.157,0.8,0.276,1.611,0.503,2.393c1.256,4.374,1.196,8.809,0.689,13.275c-0.077,0.665-0.258,1.021-0.97,0.941
			c-0.163-0.018-0.326-0.002-0.491,0c-22.532,0.356-45.065,0.339-67.601-0.002c-1.387-0.022-1.35-0.026-1.518-1.432
			c-0.549-4.532-0.392-9.009,0.901-13.419c0.24-0.828,0.446-1.686,0.405-2.571c-0.016-0.281-0.073-0.568-0.414-0.586
			c-0.302-0.018-0.463,0.187-0.554,0.48c-1.602,5.048-2.989,10.125-2.352,15.513c0.05,0.432,0.027,0.87,0.055,1.306
			c0.031,0.484-0.185,0.698-0.666,0.683c-0.434-0.016-0.87-0.004-1.307-0.01c-7.729-0.079-15.457-0.16-23.186-0.238
			c-1.4-0.014-1.427-0.013-1.302-1.449c0.896-10.396,3.945-20.009,10.202-28.503c2.979-4.043,6.027-7.987,10.017-11.12
			c2.365-1.859,4.966-3.329,7.568-4.802c3.979-2.254,8.207-3.979,12.381-5.733c0.278,0.236,0.154,0.42,0.066,0.617
			c-1.692,3.905-0.365,7.602,2.899,10.137c3.655,2.839,7.704,2.99,11.852,1.15c2.517-1.117,4.577-2.915,6.6-4.744
			c0.429-0.388,0.854-0.777,1.33-1.213c0.339,0.653,0.203,1.198,0.201,1.718c-0.01,3.319-0.046,6.639-0.068,9.96
			c-0.004,0.599,0.011,1.2,0.287,1.755c0.128,0.255,0.313,0.45,0.618,0.444c0.309-0.004,0.538-0.216,0.599-0.47
			c0.122-0.524,0.232-1.07,0.23-1.606c-0.009-3.374-0.05-6.747-0.081-10.12C400.506,400.162,400.51,399.641,400.51,399.111z"/>
		<path style="fill-rule:evenodd;clip-rule:evenodd;fill:#FF995F;" d="M361.982,331.851c-0.38-0.958-0.698-1.88-1.111-2.756
			c-0.442-0.933-1.037-1.735-1.88-2.411c-1.265-1.013-2.465-0.928-3.771-0.198c-0.414,0.229-0.704,0.675-1.32,0.73
			c-0.525-3.466-0.659-6.927-0.02-10.352c1.786-9.567,5.901-18.032,12.314-25.367c3.975-4.541,8.489-8.458,13.735-11.44
			c5.933-3.368,12.337-5.428,19.12-6.15c2.449-0.262,4.86,0.429,7.243,0.992c13.563,3.202,23.798,11.135,31.495,22.494
			c3.655,5.398,6.121,11.396,7.537,17.777c0.833,3.751,0.752,7.565,0.393,11.373c-0.019,0.21-0.104,0.413-0.155,0.609
			c-0.501,0.125-0.694-0.29-0.989-0.47c-1.993-1.227-3.128-1.108-4.992,0.87c-0.788,0.835-1.228,1.916-1.59,3.012
			c-0.131,0.403-0.264,0.806-0.419,1.276c-1.218-0.59-2.016-1.593-3.014-2.327c-2.854-2.094-5.743-4.13-8.84-5.85
			c-6.038-3.354-10.906-8.08-15.448-13.182c-2.134-2.397-4.245-4.815-6.115-7.435c-1.205-1.69-2.343-3.401-3.097-5.348
			c-0.194-0.505-0.439-0.997-0.714-1.464c-0.418-0.711-0.754-0.717-1.172-0.045c-0.173,0.275-0.313,0.574-0.43,0.878
			c-1.309,3.406-3.498,6.265-5.766,9.044c-2.924,3.585-6.025,7.023-9.381,10.215c-2.969,2.822-6.213,5.286-9.781,7.316
			c-3.839,2.184-7.494,4.633-10.846,7.52C362.686,331.408,362.352,331.596,361.982,331.851z"/>
		<path style="fill-rule:evenodd;clip-rule:evenodd;fill:#FFCFA0;" d="M439.039,338.378c-0.072,1.922-0.579,3.406-1.125,4.89
			c-1.502,4.082-2.848,8.224-4.738,12.155c-2.656,5.523-5.834,10.68-10.114,15.13c-4.197,4.365-9.26,7.143-15.056,8.718
			c-3.06,0.83-6.119,1.497-9.326,1.344c-2.364-0.113-4.607-0.722-6.883-1.274c-7.8-1.894-13.879-6.296-18.691-12.608
			c-4.57-5.994-7.761-12.696-10.216-19.779c-0.392-1.131-0.765-2.267-1.196-3.384c-0.608-1.573-1.188-3.147-1.203-5.041
			c-0.874,0.366-1.401,0.986-2.016,1.469c-1.112,0.875-1.635,0.887-2.736,0.04c-0.623-0.478-1.044-1.104-1.32-1.83
			c-1.066-2.814-0.935-5.648-0.092-8.483c0.092-0.309,0.223-0.634,0.425-0.875c1.794-2.13,3.193-2.248,4.541,0.104
			c0.628,1.097,0.922,2.315,1.294,3.507c0.416,1.329,0.801,1.429,1.954,0.601c1.236-0.888,2.383-1.902,3.752-2.619
			c0.552,0.336,1.003,0.841,1.692,0.919c0.987,0.11,1.174,0.786,1.15,1.635c-0.059,1.961,0.173,3.915,0.227,5.867
			c0.129,4.678,2.695,6.576,7.006,6.989c3.412,0.326,6.852-0.105,10.264-0.406c2.946-0.261,5.01-1.909,6.35-4.522
			c0.772-1.505,1.359-3.085,2.012-4.64c0.652-1.563,1.549-2.986,2.392-4.447c0.929-1.614,3.695-1.62,4.702-0.031
			c1.321,2.083,2.335,4.295,3.27,6.559c0.373,0.905,0.791,1.791,1.223,2.668c1.374,2.79,3.689,4.286,6.726,4.484
			c3.093,0.201,6.189,0.486,9.297,0.393c1.715-0.051,3.318-0.502,4.791-1.411c1.384-0.854,2.212-2.058,2.468-3.662
			c0.37-2.317,0.463-4.654,0.482-6.995c0.004-0.542,0.047-1.085,0.094-1.625c0.029-0.35,0.199-0.597,0.571-0.7
			c0.675-0.193,1.354-0.365,1.898-0.881c0.378-0.36,0.706,0.021,0.999,0.228c1.063,0.755,2.108,1.539,3.171,2.298
			c0.991,0.707,1.395,0.589,1.786-0.537c0.287-0.82,0.512-1.662,0.796-2.483c0.142-0.408,0.318-0.813,0.538-1.185
			c1.334-2.255,3.244-2.241,4.638,0.022c1.414,2.296,1.253,8.066-0.295,10.236c-0.386,0.54-0.883,0.945-1.484,1.245
			c-0.603,0.304-1.135,0.289-1.66-0.15C440.697,339.723,439.986,339.152,439.039,338.378z"/>
		<path style="fill-rule:evenodd;clip-rule:evenodd;fill:#FF995F;" d="M354.748,341.82c1.732,0.796,3.29,1.198,4.729-0.381
			c0.719,1.793,1.277,3.522,1.77,5.278c2.135,7.618,5.456,14.661,10.245,20.978c3.428,4.519,7.485,8.331,12.647,10.822
			c0.759,0.367,1.003,0.795,0.972,1.616c-0.075,2.064-0.094,4.134-0.046,6.198c0.02,0.931-0.22,1.411-1.159,1.792
			c-5.691,2.306-11.438,4.474-17.009,7.074c-4.247,1.986-8.354,4.196-12.061,7.089c-0.561,0.438-0.92,0.599-1.477-0.014
			c-0.841-0.924-1.767-1.771-2.689-2.616c-2.361-2.168-2.929-4.856-2.33-7.893c0.391-1.986,1.132-3.857,1.924-5.708
			c0.689-1.614,1.137-3.277,1.243-5.038c0.151-2.511-0.376-4.871-1.558-7.075c-0.743-1.391-1.605-2.717-2.347-4.105
			c-2.252-4.227-2.195-8.438,0.24-12.57c0.856-1.453,1.88-2.809,3.002-4.066c2.628-2.942,3.761-6.427,3.902-10.298
			C354.756,342.634,354.748,342.363,354.748,341.82z"/>
		<path style="fill-rule:evenodd;clip-rule:evenodd;fill:#FF995F;" d="M440.084,341.59c1.714,1.213,1.843,1.225,4.478,0.393
			c0.347,0.756,0.197,1.589,0.279,2.369c0.344,3.227,1.456,6.097,3.576,8.591c1.092,1.281,2.14,2.621,3.03,4.044
			c2.65,4.236,2.751,8.595,0.351,12.986c-0.602,1.098-1.272,2.154-1.893,3.239c-2.343,4.103-2.592,8.334-0.757,12.688
			c0.847,2.006,1.644,4.02,2.045,6.18c0.537,2.894-0.121,5.387-2.256,7.453c-0.978,0.945-1.979,1.867-2.924,2.842
			c-0.451,0.464-0.763,0.394-1.228,0.024c-5.604-4.447-12.095-7.262-18.603-10.024c-3.555-1.507-7.154-2.899-10.74-4.324
			c-0.588-0.233-1.014-0.432-1.002-1.229c0.038-2.393-0.006-4.786-0.064-7.18c-0.012-0.552,0.272-0.768,0.682-0.972
			c9.592-4.763,15.228-13.013,19.671-22.316c2.164-4.535,3.381-9.4,4.926-14.151C439.723,342.001,439.727,341.77,440.084,341.59z"/>
		<path style="fill-rule:evenodd;clip-rule:evenodd;fill:#FFCFA0;" d="M425.832,325.897c-17.527-0.376-35.024-0.446-52.694,0.147
			c5.976-3.049,11.012-7.213,15.434-12.118c4.35-4.827,8.87-9.553,11.107-15.917c0.131,0.143,0.295,0.241,0.333,0.377
			c0.754,2.794,2.359,5.133,4.059,7.395c4.028,5.365,8.482,10.347,13.668,14.641C420.255,322.503,423.011,324.224,425.832,325.897z"
			/>
		<path style="fill-rule:evenodd;clip-rule:evenodd;fill:#FFCFA0;" d="M386.728,379.455c8.738,3.919,17.344,3.9,26.12-0.029
			c0,1.41,0.011,2.52-0.002,3.631c-0.017,1.468-0.075,2.937-0.064,4.402c0.005,0.648-0.137,1.165-0.71,1.528
			c-2.245,1.424-4.235,3.197-6.532,4.574c-3.946,2.363-7.695,2.347-11.631-0.023c-2.293-1.381-4.295-3.136-6.521-4.589
			c-0.367-0.24-0.667-0.531-0.664-1.043C386.733,385.2,386.728,382.493,386.728,379.455z"/>
		<path style="fill-rule:evenodd;clip-rule:evenodd;fill:#AF6FF3;" d="M432.179,329.73c-0.594,0.176-0.749,0.229-0.905,0.268
			c-2.018,0.511-2.403,0.942-2.451,3.023c-0.054,2.235-0.359,4.447-0.515,6.671c-0.158,2.243-1.475,3.63-3.998,4.312
			c-1.004,0.271-2.046,0.289-3.084,0.246c-2.391-0.102-4.783-0.251-7.177-0.305c-2.907-0.063-4.976-1.338-6.14-4.026
			c-0.712-1.647-1.435-3.29-2.139-4.94c-0.598-1.402-1.268-2.757-2.072-4.064c-1.578-2.56-6.399-2.476-7.901-0.013
			c-0.855,1.404-1.565,2.858-2.201,4.36c-0.743,1.753-1.438,3.523-2.314,5.22c-1.097,2.124-2.805,3.289-5.178,3.411
			c-2.934,0.15-5.871,0.274-8.808,0.345c-1.487,0.035-2.908-0.276-4.19-1.128c-1.011-0.672-1.654-1.518-1.808-2.756
			c-0.215-1.728-0.484-3.446-0.549-5.188c-0.026-0.763-0.022-1.525-0.063-2.286c-0.11-1.891-0.505-2.368-2.289-2.843
			c-0.247-0.067-0.494-0.133-1.145-0.307c1.785-0.959,2.931-2.092,4.879-2.184c7.347-0.345,14.694-0.181,22.041-0.261
			c1.526-0.016,3.041,0.119,4.557,0.257c1.853,0.167,3.689-0.257,5.537-0.25c6.424,0.023,12.849,0.037,19.27,0.087
			c1.576,0.013,3.152,0.142,4.727,0.228c0.268,0.016,0.575,0.013,0.792,0.142C430.016,328.323,430.947,328.941,432.179,329.73z"/>
		<path style="fill-rule:evenodd;clip-rule:evenodd;fill:#C56EE8;" d="M384.878,389.267c4.117,3.348,7.953,6.847,13.228,7.91
			c-0.059,0.647-0.503,0.823-0.815,1.077c-2.031,1.639-3.986,3.387-6.285,4.665c-2.418,1.345-4.952,1.884-7.699,1.207
			c-2.798-0.686-4.757-2.364-5.87-4.971c-1.235-2.897,0.439-6.869,3.301-8.086C382.137,390.476,383.526,389.856,384.878,389.267z"/>
		<path style="fill-rule:evenodd;clip-rule:evenodd;fill:#C56EE8;" d="M401.058,397.319c2.184-0.607,4.075-1.254,5.82-2.292
			c2.625-1.563,5.018-3.423,7.255-5.486c0.301-0.278,0.474-0.318,0.815-0.164c1.585,0.715,3.284,1.242,4.747,2.148
			c1.64,1.017,2.4,2.773,2.661,4.661c0.374,2.705-0.845,4.784-2.901,6.355c-2.944,2.25-6.199,2.379-9.574,1.061
			c-0.964-0.376-1.857-0.903-2.713-1.484C405.098,400.712,403.203,399.082,401.058,397.319z"/>
		<path style="fill-rule:evenodd;clip-rule:evenodd;fill:#FF9191;" d="M380.828,348.272c0.943-0.139,1.845,0.065,2.728,0.323
			c1.646,0.483,2.076,2.174,0.895,3.417c-1.651,1.736-5.518,1.973-7.358,0.494c-0.784-0.631-0.918-1.42-0.811-2.322
			c0.105-0.901,0.791-1.292,1.522-1.502C378.785,348.401,379.784,348.103,380.828,348.272z"/>
		<path style="fill-rule:evenodd;clip-rule:evenodd;fill:#FF9191;" d="M422.442,349.578c0.897-0.12,1.755,0.022,2.551,0.38
			c1.547,0.698,1.825,2.596,0.398,3.505c-1.859,1.188-3.948,1.718-6.167,1.071c-1.26-0.366-1.761-0.971-1.79-1.983
			c-0.031-1.143,0.573-2.128,1.688-2.502C420.195,349.69,421.304,349.419,422.442,349.578z"/>
		<path style="fill-rule:evenodd;clip-rule:evenodd;fill:#040302;" d="M399.769,353.426c-3.247-0.542-6.449-0.821-9.539-1.712
			c-0.308-0.09-0.6-0.257-0.871-0.431c-0.12-0.075-0.241-0.263-0.234-0.392c0.012-0.243,0.222-0.347,0.456-0.356
			c1.035-0.042,2.067-0.049,3.098,0.084c2.209,0.284,4.413,0.675,6.632,0.802c1.387,0.079,2.802-0.221,4.201-0.39
			c1.996-0.242,3.983-0.587,6.004-0.513c0.304,0.01,0.726-0.105,0.811,0.328c0.075,0.393-0.278,0.563-0.581,0.668
			c-0.564,0.192-1.138,0.354-1.716,0.507C405.289,352.745,402.458,352.916,399.769,353.426z"/>
		<path style="fill-rule:evenodd;clip-rule:evenodd;fill:#0A0604;" d="M396.229,344.063c0.398-1.901,1.635-3.196,3.106-3.345
			c1.627-0.163,3.201,0.909,3.861,2.623c0.098,0.256,0.223,0.514-0.085,0.7c-0.214,0.129-0.42,0.022-0.586-0.119
			c-0.247-0.21-0.465-0.454-0.717-0.654c-1.39-1.101-2.735-1.095-4.131-0.01C397.27,343.577,397.006,344.144,396.229,344.063z"/>
		<path style="fill-rule:evenodd;clip-rule:evenodd;fill:#17130E;" d="M442.183,336.821c-0.786-1.614-0.611-3.01-0.19-4.411
			c0.079-0.266,0.261-0.486,0.569-0.48c0.241,0.003,0.391,0.185,0.411,0.412C443.114,333.832,443.116,335.298,442.183,336.821z"/>
		<path style="fill-rule:evenodd;clip-rule:evenodd;fill:#130F0C;" d="M357.349,336.488c-0.931-1.207-0.97-2.59-0.919-3.987
			c0.011-0.272,0.171-0.534,0.476-0.575c0.325-0.042,0.489,0.217,0.574,0.47C357.935,333.753,357.867,335.108,357.349,336.488z"/>
		<path style="fill-rule:evenodd;clip-rule:evenodd;fill:#030202;" d="M418.723,342.739c-1.998-0.103-4.015,0.185-6.003-0.309
			c-1.401-0.348-2.496-1.061-3.229-2.288c-1.486-2.489-2.485-5.197-3.182-7.988c-0.547-2.191,0.239-3.168,2.455-3.473
			c0.968-0.135,1.954-0.267,2.923-0.225c2.45,0.108,4.893-0.09,7.337-0.117c1.689-0.02,3.367,0.056,5.043,0.271
			c2.11,0.272,3.211,1.18,3.425,3.26c0.227,2.215,0.265,4.465-0.037,6.675c-0.403,2.956-1.694,4.063-4.656,4.186
			C421.441,342.786,420.08,342.739,418.723,342.739z"/>
		<path style="fill-rule:evenodd;clip-rule:evenodd;fill:#030202;" d="M383.923,328.46c1.594,0.153,3.556-0.158,5.507,0.098
			c0.377,0.05,0.76,0.055,1.136,0.105c2.423,0.321,3.29,1.46,2.579,3.823c-0.733,2.436-1.599,4.846-2.795,7.115
			c-1.07,2.031-2.827,2.98-5.025,3.084c-2.931,0.142-5.868,0.192-8.802,0.042c-2.808-0.145-4.166-1.379-4.483-4.184
			c-0.245-2.163-0.218-4.348-0.044-6.514c0.173-2.172,1.253-3.129,3.429-3.422C378.135,328.241,380.849,328.32,383.923,328.46z"/>
		<path style="fill-rule:evenodd;clip-rule:evenodd;fill:#FFCFA0;" d="M416.966,329.672c2.17,0,4.342-0.036,6.514,0.013
			c1.425,0.031,2.12,0.543,2.439,1.914c0.603,2.568,0.571,5.177,0.048,7.749c-0.297,1.46-1.03,2.016-2.522,2.07
			c-2.818,0.103-5.643,0.212-8.461,0.15c-2.21-0.049-4.16-0.733-5.105-3.055c-0.735-1.808-1.515-3.597-2.127-5.45
			c-0.121-0.359-0.258-0.722-0.318-1.093c-0.201-1.232,0.206-1.792,1.409-2.061c1.229-0.276,2.477-0.274,3.726-0.277
			c1.467-0.004,2.931-0.002,4.397-0.002C416.966,329.645,416.966,329.658,416.966,329.672z"/>
		<path style="fill-rule:evenodd;clip-rule:evenodd;fill:#FFCFA0;" d="M382.579,329.653c1.904,0,3.81-0.017,5.714,0.009
			c0.648,0.007,1.303,0.082,1.943,0.189c1.712,0.283,2.132,0.852,1.689,2.54c-0.314,1.203-0.816,2.358-1.252,3.529
			c-0.247,0.662-0.573,1.296-0.792,1.966c-0.818,2.536-2.719,3.55-5.203,3.69c-1.246,0.069-2.5,0.009-3.751-0.013
			c-1.521-0.026-3.046-0.053-4.567-0.118c-1.881-0.084-2.734-0.772-2.976-2.58c-0.297-2.217-0.343-4.461,0.022-6.673
			c0.26-1.568,0.876-2.603,2.969-2.554c2.065,0.049,4.135,0.011,6.203,0.011C382.579,329.651,382.579,329.652,382.579,329.653z"/>
		<path style="fill-rule:evenodd;clip-rule:evenodd;fill:#080705;" d="M415.534,335.41c0.023-1.355,0.508-2.149,1.373-2.258
			c0.92-0.112,1.434,0.485,1.67,1.945c0.025,0.159,0.066,0.318,0.074,0.479c0.059,1.185-0.577,2.113-1.479,2.167
			c-0.916,0.056-1.57-0.747-1.639-2.01C415.53,335.626,415.534,335.519,415.534,335.41z"/>
		<path style="fill-rule:evenodd;clip-rule:evenodd;fill:#060504;" d="M383.911,335.352c0,1.573-0.576,2.41-1.535,2.388
			c-1.014-0.022-1.633-1.005-1.504-2.422c0.026-0.319,0.116-0.633,0.189-0.947c0.177-0.768,0.612-1.27,1.451-1.212
			c0.831,0.059,1.201,0.626,1.323,1.387C383.888,334.861,383.895,335.185,383.911,335.352z"/>
	</g>
</g>
</svg>
