<?xml version="1.0" encoding="utf-8"?>
<!-- Generator: Adobe Illustrator 27.5.0, SVG Export Plug-In . SVG Version: 6.00 Build 0)  -->
<svg version="1.1" xmlns="http://www.w3.org/2000/svg" xmlns:xlink="http://www.w3.org/1999/xlink" x="0px" y="0px"
	 viewBox="0 0 800 800" style="enable-background:new 0 0 800 800;" xml:space="preserve">
<g id="Background">
	<rect x="-0.704" style="fill:#004860;" width="800" height="800"/>
</g>
<g id="Objects">
	<g>
		<path style="fill:#FFFFFF;" d="M398.106,755.543h0.588v-0.738c0-0.777,0.096-1.385,0.293-1.842
			c0.191-0.457,0.527-0.787,0.992-0.996c0.465-0.205,1.108-0.309,1.921-0.309c1.441,0,2.158,0.35,2.158,1.061
			c0,0.227-0.078,0.422-0.227,0.584c-0.15,0.16-0.326,0.244-0.531,0.244c-0.096,0-0.264-0.02-0.502-0.059
			c-0.225-0.031-0.432-0.053-0.592-0.053c-0.445,0-0.73,0.133-0.859,0.395c-0.123,0.262-0.188,0.637-0.188,1.127v0.586h0.602
			c0.941,0,1.41,0.285,1.41,0.851c0,0.399-0.123,0.654-0.375,0.764c-0.25,0.109-0.594,0.164-1.035,0.164h-0.602v6.533
			c0,0.484-0.113,0.857-0.351,1.109c-0.23,0.26-0.527,0.387-0.898,0.387c-0.346,0-0.637-0.127-0.871-0.387
			c-0.23-0.252-0.346-0.625-0.346-1.109v-6.533h-0.68c-0.367,0-0.65-0.08-0.85-0.248c-0.197-0.164-0.297-0.379-0.297-0.645
			C396.868,755.836,397.28,755.543,398.106,755.543"/>
		<path style="fill:#FFFFFF;" d="M406.178,761.795v2.061c0,0.498-0.123,0.875-0.355,1.121c-0.236,0.254-0.531,0.375-0.891,0.375
			c-0.363,0-0.654-0.123-0.881-0.381c-0.228-0.25-0.344-0.623-0.344-1.115v-6.869c0-1.109,0.4-1.662,1.199-1.662
			c0.412,0,0.705,0.131,0.891,0.389c0.178,0.262,0.279,0.643,0.299,1.152c0.293-0.51,0.594-0.891,0.902-1.152
			c0.315-0.258,0.725-0.389,1.244-0.389c0.522,0,1.02,0.131,1.508,0.389c0.486,0.262,0.732,0.604,0.732,1.029
			c0,0.303-0.104,0.555-0.313,0.748c-0.209,0.197-0.428,0.293-0.67,0.293c-0.094,0-0.313-0.055-0.658-0.17
			c-0.348-0.109-0.652-0.162-0.916-0.162c-0.359,0-0.656,0.098-0.883,0.281c-0.23,0.193-0.41,0.473-0.535,0.842
			c-0.127,0.375-0.213,0.822-0.26,1.336C406.199,760.428,406.178,761.055,406.178,761.795"/>
		<path style="fill:#FFFFFF;" d="M417.512,760.947h-4.824c0.006,0.557,0.117,1.053,0.34,1.48c0.219,0.426,0.51,0.748,0.875,0.967
			c0.369,0.215,0.768,0.324,1.207,0.324c0.295,0,0.563-0.033,0.807-0.107c0.246-0.066,0.484-0.176,0.711-0.322
			c0.228-0.148,0.437-0.305,0.631-0.475c0.193-0.168,0.443-0.398,0.75-0.688c0.129-0.106,0.309-0.162,0.543-0.162
			c0.252,0,0.455,0.068,0.615,0.207c0.158,0.143,0.232,0.334,0.232,0.588c0,0.225-0.084,0.482-0.256,0.781
			c-0.178,0.303-0.441,0.586-0.797,0.859c-0.35,0.271-0.795,0.504-1.328,0.68c-0.531,0.184-1.145,0.272-1.836,0.272
			c-1.584,0-2.814-0.447-3.691-1.352c-0.883-0.906-1.322-2.133-1.322-3.678c0-0.731,0.109-1.406,0.326-2.029
			c0.215-0.627,0.533-1.156,0.951-1.604c0.414-0.445,0.924-0.789,1.531-1.025c0.609-0.238,1.279-0.356,2.023-0.356
			c0.965,0,1.791,0.201,2.478,0.613c0.691,0.402,1.213,0.93,1.551,1.572c0.342,0.648,0.516,1.303,0.516,1.973
			c0,0.615-0.18,1.02-0.533,1.203C418.656,760.854,418.154,760.947,417.512,760.947 M412.688,759.543h4.471
			c-0.059-0.842-0.287-1.471-0.68-1.891c-0.394-0.416-0.914-0.625-1.56-0.625c-0.609,0-1.117,0.209-1.512,0.637
			C413.012,758.088,412.771,758.715,412.688,759.543"/>
		<path style="fill:#FFFFFF;" d="M427.766,760.947h-4.822c0.006,0.557,0.119,1.053,0.338,1.48c0.221,0.426,0.514,0.748,0.877,0.967
			c0.361,0.215,0.768,0.324,1.205,0.324c0.293,0,0.566-0.033,0.807-0.107c0.246-0.066,0.48-0.176,0.715-0.322
			c0.225-0.148,0.435-0.305,0.631-0.475c0.189-0.168,0.439-0.398,0.746-0.688c0.129-0.106,0.311-0.162,0.541-0.162
			c0.256,0,0.461,0.068,0.619,0.207c0.154,0.143,0.23,0.334,0.23,0.588c0,0.225-0.084,0.482-0.262,0.781
			c-0.17,0.303-0.434,0.586-0.791,0.859c-0.35,0.271-0.797,0.504-1.328,0.68c-0.531,0.184-1.144,0.272-1.838,0.272
			c-1.582,0-2.815-0.447-3.693-1.352c-0.879-0.906-1.32-2.133-1.32-3.678c0-0.731,0.109-1.406,0.328-2.029
			c0.219-0.627,0.531-1.156,0.947-1.604c0.416-0.445,0.928-0.789,1.535-1.025c0.607-0.238,1.283-0.356,2.023-0.356
			c0.961,0,1.789,0.201,2.484,0.613c0.686,0.402,1.205,0.93,1.545,1.572c0.342,0.648,0.516,1.303,0.516,1.973
			c0,0.615-0.18,1.02-0.533,1.203C428.91,760.854,428.408,760.947,427.766,760.947 M422.943,759.543h4.473
			c-0.059-0.842-0.293-1.471-0.684-1.891c-0.395-0.416-0.914-0.625-1.561-0.625c-0.613,0-1.115,0.209-1.512,0.637
			C423.264,758.088,423.027,758.715,422.943,759.543"/>
		<path style="fill:#FFFFFF;" d="M433.168,756.713v0.295c0.461-0.572,0.947-0.994,1.447-1.258c0.498-0.271,1.066-0.406,1.695-0.406
			c0.758,0,1.459,0.197,2.1,0.586c0.639,0.395,1.141,0.967,1.51,1.719c0.373,0.754,0.559,1.645,0.559,2.674
			c0,0.758-0.107,1.457-0.32,2.092c-0.211,0.635-0.508,1.166-0.881,1.6c-0.373,0.426-0.816,0.76-1.322,0.994
			c-0.514,0.227-1.057,0.344-1.645,0.344c-0.703,0-1.295-0.141-1.775-0.422c-0.479-0.281-0.932-0.701-1.367-1.244v3.701
			c0,1.082-0.397,1.627-1.182,1.627c-0.467,0-0.77-0.141-0.924-0.418c-0.145-0.285-0.223-0.689-0.223-1.229v-10.643
			c0-0.469,0.1-0.816,0.303-1.053c0.207-0.228,0.49-0.348,0.844-0.348c0.348,0,0.635,0.119,0.852,0.355
			C433.06,755.922,433.168,756.262,433.168,756.713 M438,760.297c0-0.654-0.098-1.211-0.297-1.678
			c-0.197-0.469-0.475-0.822-0.822-1.07c-0.352-0.252-0.746-0.379-1.174-0.379c-0.678,0-1.254,0.268-1.721,0.801
			c-0.469,0.541-0.697,1.326-0.697,2.369c0,0.979,0.228,1.746,0.693,2.289c0.465,0.547,1.035,0.816,1.725,0.816
			c0.408,0,0.791-0.119,1.139-0.354c0.35-0.238,0.631-0.594,0.842-1.07C437.898,761.545,438,760.967,438,760.297"/>
		<path style="fill:#FFFFFF;" d="M442.961,754.178c-0.344,0-0.633-0.109-0.877-0.316c-0.246-0.215-0.371-0.508-0.371-0.891
			c0-0.35,0.127-0.639,0.377-0.865c0.252-0.225,0.541-0.34,0.871-0.34c0.32,0,0.604,0.103,0.852,0.303
			c0.246,0.209,0.371,0.508,0.371,0.902c0,0.377-0.123,0.676-0.363,0.887C443.58,754.068,443.293,754.178,442.961,754.178
			 M444.184,756.725v7.131c0,0.492-0.119,0.865-0.354,1.115c-0.238,0.258-0.533,0.381-0.896,0.381c-0.361,0-0.652-0.127-0.877-0.387
			c-0.228-0.262-0.344-0.631-0.344-1.109v-7.059c0-0.488,0.115-0.855,0.344-1.1c0.225-0.25,0.516-0.373,0.877-0.373
			c0.363,0,0.658,0.123,0.896,0.373C444.064,755.941,444.184,756.289,444.184,756.725"/>
		<path style="fill:#FFFFFF;" d="M452.131,764.229l-2.174-3.584l-1.338,1.266v1.963c0,0.475-0.127,0.84-0.379,1.092
			c-0.242,0.26-0.535,0.387-0.859,0.387c-0.379,0-0.68-0.123-0.895-0.381c-0.217-0.25-0.326-0.623-0.326-1.115v-10.52
			c0-0.545,0.105-0.961,0.316-1.25c0.209-0.289,0.514-0.428,0.904-0.428c0.379,0,0.68,0.129,0.9,0.391
			c0.229,0.256,0.338,0.639,0.338,1.141v5.986l2.773-2.912c0.344-0.357,0.602-0.609,0.787-0.74c0.178-0.131,0.398-0.201,0.656-0.201
			c0.309,0,0.565,0.1,0.773,0.297c0.201,0.195,0.303,0.441,0.303,0.736c0,0.359-0.334,0.844-1.004,1.445L451.602,759l2.529,3.979
			c0.184,0.297,0.318,0.516,0.4,0.67c0.084,0.152,0.123,0.307,0.123,0.44c0,0.395-0.105,0.697-0.32,0.93
			c-0.215,0.223-0.498,0.334-0.844,0.334c-0.303,0-0.535-0.076-0.701-0.244C452.631,764.943,452.406,764.65,452.131,764.229"/>
		<path style="fill:#FFFFFF;" d="M457.488,765.352c-0.371,0-0.693-0.121-0.965-0.361c-0.27-0.236-0.408-0.576-0.408-1.012
			c0-0.367,0.133-0.684,0.391-0.947c0.26-0.264,0.578-0.398,0.957-0.398c0.381,0,0.699,0.135,0.975,0.393
			c0.266,0.264,0.402,0.584,0.402,0.953c0,0.43-0.137,0.768-0.402,1.008C458.162,765.231,457.848,765.352,457.488,765.352"/>
		<path style="fill:#FFFFFF;" d="M469.75,762.299c0,0.307-0.092,0.635-0.275,0.986c-0.185,0.35-0.463,0.682-0.84,0.998
			c-0.377,0.315-0.848,0.57-1.424,0.762c-0.572,0.193-1.217,0.293-1.93,0.293c-1.525,0-2.717-0.447-3.572-1.332
			c-0.854-0.889-1.279-2.084-1.279-3.576c0-1.014,0.193-1.904,0.588-2.684c0.385-0.775,0.953-1.375,1.695-1.803
			c0.738-0.424,1.629-0.635,2.652-0.635c0.641,0,1.229,0.092,1.762,0.279c0.535,0.185,0.982,0.43,1.355,0.721
			c0.367,0.301,0.65,0.611,0.846,0.945c0.197,0.334,0.295,0.646,0.295,0.938c0,0.295-0.109,0.545-0.33,0.746
			c-0.221,0.209-0.486,0.31-0.799,0.31c-0.207,0-0.375-0.053-0.51-0.158c-0.139-0.103-0.289-0.275-0.457-0.516
			c-0.299-0.453-0.615-0.799-0.945-1.023c-0.326-0.232-0.746-0.346-1.252-0.346c-0.723,0-1.311,0.285-1.76,0.852
			c-0.445,0.57-0.668,1.35-0.668,2.334c0,0.467,0.059,0.895,0.174,1.283c0.111,0.385,0.273,0.719,0.494,0.99
			c0.219,0.275,0.479,0.48,0.785,0.625c0.309,0.144,0.647,0.213,1.01,0.213c0.5,0,0.918-0.115,1.272-0.344
			c0.359-0.227,0.668-0.576,0.938-1.049c0.15-0.273,0.313-0.488,0.482-0.645c0.178-0.16,0.395-0.24,0.645-0.24
			c0.305,0,0.553,0.115,0.75,0.344C469.652,761.797,469.75,762.043,469.75,762.299"/>
		<path style="fill:#FFFFFF;" d="M480.393,760.34c0,0.734-0.117,1.412-0.34,2.035c-0.234,0.621-0.563,1.152-1,1.596
			c-0.428,0.445-0.951,0.787-1.551,1.025c-0.608,0.234-1.281,0.356-2.033,0.356c-0.746,0-1.416-0.121-2.016-0.361
			c-0.594-0.236-1.115-0.584-1.547-1.029c-0.438-0.453-0.77-0.982-1-1.596c-0.219-0.611-0.334-1.285-0.334-2.025
			c0-0.748,0.119-1.43,0.344-2.051c0.227-0.623,0.559-1.152,0.988-1.588c0.428-0.441,0.943-0.779,1.549-1.021
			c0.611-0.236,1.283-0.355,2.016-0.355c0.748,0,1.426,0.119,2.033,0.363c0.607,0.238,1.127,0.584,1.562,1.027
			c0.436,0.447,0.764,0.979,0.99,1.588C480.277,758.922,480.393,759.598,480.393,760.34 M477.916,760.34
			c0-1.006-0.223-1.785-0.664-2.35c-0.442-0.56-1.035-0.842-1.783-0.842c-0.482,0-0.906,0.127-1.275,0.377
			c-0.367,0.25-0.648,0.617-0.848,1.106c-0.197,0.49-0.301,1.057-0.301,1.709c0,0.645,0.098,1.205,0.291,1.686
			c0.201,0.488,0.48,0.856,0.848,1.111c0.365,0.25,0.793,0.385,1.285,0.385c0.748,0,1.342-0.285,1.783-0.85
			C477.693,762.109,477.916,761.33,477.916,760.34"/>
		<path style="fill:#FFFFFF;" d="M489.797,760.523v3.275c0,0.521-0.115,0.902-0.352,1.166c-0.236,0.26-0.545,0.387-0.932,0.387
			c-0.371,0-0.68-0.127-0.904-0.387c-0.232-0.264-0.353-0.644-0.353-1.166v-3.928c0-0.623-0.02-1.104-0.059-1.447
			c-0.045-0.34-0.16-0.627-0.346-0.844c-0.184-0.221-0.484-0.33-0.885-0.33c-0.809,0-1.336,0.275-1.594,0.834
			c-0.254,0.549-0.385,1.344-0.385,2.383v3.332c0,0.514-0.117,0.898-0.348,1.162c-0.232,0.26-0.537,0.391-0.918,0.391
			c-0.375,0-0.68-0.131-0.914-0.391c-0.238-0.264-0.363-0.648-0.363-1.162v-7.057c0-0.461,0.109-0.816,0.324-1.055
			c0.215-0.244,0.496-0.363,0.846-0.363c0.338,0,0.617,0.117,0.846,0.34c0.225,0.227,0.338,0.535,0.338,0.938v0.23
			c0.43-0.508,0.885-0.887,1.375-1.125c0.488-0.242,1.027-0.363,1.623-0.363c0.621,0,1.156,0.123,1.6,0.369
			c0.447,0.248,0.813,0.621,1.104,1.119c0.414-0.502,0.861-0.879,1.336-1.125c0.48-0.242,1.002-0.363,1.582-0.363
			c0.674,0,1.258,0.135,1.744,0.396c0.488,0.268,0.85,0.648,1.088,1.137c0.215,0.451,0.318,1.15,0.318,2.109v4.813
			c0,0.521-0.117,0.902-0.35,1.166c-0.236,0.26-0.543,0.387-0.932,0.387c-0.371,0-0.68-0.131-0.918-0.391
			c-0.238-0.264-0.353-0.648-0.353-1.162v-4.148c0-0.529-0.023-0.951-0.07-1.271c-0.041-0.318-0.168-0.588-0.365-0.805
			c-0.201-0.215-0.504-0.324-0.904-0.324c-0.326,0-0.631,0.096-0.926,0.289c-0.291,0.191-0.52,0.451-0.684,0.775
			C489.889,758.727,489.797,759.467,489.797,760.523"/>
		<path style="fill-rule:evenodd;clip-rule:evenodd;fill:#FFFFFF;" d="M381.029,766.215c0,0-1.348-0.213-2.658-1.65
			c-1.324-1.447-1.547-2.984-1.547-2.984s1.678,0.398,2.884,0.529c2.122,0.242,4.034,0.107,4.936,0.01
			c1.953-0.215,2.991-0.574,3.414-0.68c2.494-0.596,4.891-2.213,4.891-2.213s0.303,1.875-1.107,3.955
			c-0.549,0.811-1.643,1.742-2.904,2.385C384.624,767.404,381.029,766.215,381.029,766.215"/>
		<path style="fill-rule:evenodd;clip-rule:evenodd;fill:#FFFFFF;" d="M391.227,755.568c-0.467-0.563-2.011-3.211-5.137-3.59
			c-0.801-0.098-5.027,0.066-7.561,2.416c-0.253,0.234-1.54,1.367-1.968,3.469c-0.332,1.627,0.213,3.463,0.213,3.463
			s2.813,0.584,4.932,0.531c3.361-0.086,5.05-0.381,6.809-0.912c2.587-0.787,4.418-2.1,4.418-2.1S391.691,756.135,391.227,755.568
			 M381.527,759.598c-1.42,0.094-2.645-0.979-2.732-2.393c-0.09-1.41,0.992-2.633,2.414-2.721c1.422-0.098,2.647,0.98,2.732,2.389
			C384.032,758.289,382.949,759.508,381.527,759.598 M388.787,757.773c-0.895,0.053-1.667-0.619-1.723-1.51
			c-0.054-0.885,0.627-1.654,1.521-1.713c0.893-0.059,1.667,0.623,1.72,1.506C390.363,756.949,389.68,757.717,388.787,757.773"/>
		<path style="fill-rule:evenodd;clip-rule:evenodd;fill:#FFFFFF;" d="M390.01,753.738l0.815-0.982c0,0,1.128,0.557,1.853,1.603
			c0.723,1.039,1.189,1.992,1.189,1.992l-1.346,0.82c0,0-0.418-1.004-1.044-1.813C390.855,754.555,390.01,753.738,390.01,753.738"/>
		<path style="fill-rule:evenodd;clip-rule:evenodd;fill:#FFFFFF;" d="M392.572,754.418c0.211-0.127,0.566-0.143,0.547-0.445
			c-0.014-0.295-0.217-0.883,0.367-1.084c0.595-0.201,0.262,0.176,0.059,0.434c-0.203,0.262-0.137,0.416-0.111,0.801
			c0.021,0.375-0.246,0.5-0.647,0.688C392.389,755.002,392.363,754.545,392.572,754.418"/>
		<path style="fill-rule:evenodd;clip-rule:evenodd;fill:#FFFFFF;" d="M377.593,755.019c0,0-0.945,1.1-1.186,2.092
			c-0.237,0.998-0.19,2.195-0.19,2.195l-1.4-0.482c0,0-0.079-1.377,0.556-2.49c0.712-1.232,1.616-1.789,1.616-1.789L377.593,755.019
			z"/>
		<path style="fill-rule:evenodd;clip-rule:evenodd;fill:#FFFFFF;" d="M375.533,756.271c-0.229-0.15-0.25-0.506-0.429-0.736
			c-0.18-0.236-0.224-0.094-0.635-0.094c-0.411-0.002-0.424-0.193-0.542-0.291c-0.115-0.104-0.17,0.307-0.17,0.307
			s0.076,0.35,0.518,0.375c0.435,0.027,0.426-0.188,0.617,0.207c0.186,0.396,0.563,0.699,0.563,0.699
			S375.764,756.418,375.533,756.271"/>
		<path style="fill-rule:evenodd;clip-rule:evenodd;fill:#FFFFFF;" d="M382.963,751.057c2.295-0.576,3.732,0.088,3.732,0.088
			l-0.121,0.66c0,0-1.68-0.111-3.011,0.088c-1.328,0.189-1.935,0.607-1.935,0.607l-0.289-0.66
			C381.34,751.84,381.969,751.305,382.963,751.057"/>
		
			<rect x="383.855" y="750.015" transform="matrix(0.9376 -0.3478 0.3478 0.9376 -237.1096 180.4451)" style="fill-rule:evenodd;clip-rule:evenodd;fill:#FFFFFF;" width="0.342" height="1.224"/>
		<path style="fill-rule:evenodd;clip-rule:evenodd;fill:#FFFFFF;" d="M393.766,752.238c0.327-0.018,0.603,0.229,0.62,0.553
			c0.023,0.324-0.223,0.6-0.548,0.619c-0.324,0.025-0.6-0.225-0.621-0.547C393.197,752.541,393.441,752.269,393.766,752.238"/>
		<path style="fill-rule:evenodd;clip-rule:evenodd;fill:#FFFFFF;" d="M373.598,754.459c0.326-0.018,0.605,0.227,0.625,0.549
			c0.018,0.322-0.227,0.598-0.552,0.619c-0.323,0.023-0.6-0.223-0.625-0.547C373.029,754.76,373.277,754.484,373.598,754.459"/>
		<path style="fill-rule:evenodd;clip-rule:evenodd;fill:#FFFFFF;" d="M383.932,748.652c0.516-0.033,0.96,0.354,0.992,0.869
			c0.031,0.512-0.359,0.953-0.877,0.986c-0.518,0.037-0.957-0.356-0.994-0.871C383.021,749.127,383.414,748.68,383.932,748.652"/>
		<path style="fill:#FFFFFF;" d="M310.573,763.994c0,0.58-0.364,0.959-0.867,0.959c-0.475,0-0.753-0.26-0.858-0.721
			c-0.326,0.529-0.992,0.789-1.58,0.789c-1.736,0-2.836-1.609-2.836-3.238c0-1.68,0.922-3.414,2.775-3.414
			c0.6,0,1.185,0.205,1.641,0.604v-2.352c0-0.57,0.357-0.953,0.858-0.953c0.503,0,0.867,0.383,0.867,0.953V763.994z
			 M307.495,759.949c-0.898,0-1.341,0.943-1.341,1.76c0,0.805,0.442,1.736,1.341,1.736c0.943,0,1.353-0.957,1.353-1.795
			C308.848,760.81,308.416,759.949,307.495,759.949"/>
		<path style="fill:#FFFFFF;" d="M312.938,762.269c0.121,0.85,0.826,1.248,1.631,1.248c0.884,0,1.494-0.695,1.949-0.695
			c0.371,0,0.705,0.371,0.705,0.744c0,0.742-1.532,1.455-2.812,1.455c-1.938,0-3.232-1.41-3.232-3.311
			c0-1.748,1.271-3.342,3.088-3.342c1.867,0,3.102,1.703,3.102,3.137c0,0.516-0.229,0.764-0.756,0.764H312.938z M315.645,761.123
			c-0.095-0.756-0.574-1.313-1.378-1.313c-0.765,0-1.28,0.58-1.362,1.313H315.645z"/>
		<path style="fill:#FFFFFF;" d="M321.604,760.381c-0.324,0-0.982-0.502-1.546-0.502c-0.309,0-0.587,0.143-0.587,0.479
			c0,0.799,2.993,0.684,2.993,2.648c0,1.144-0.969,2.016-2.454,2.016c-0.969,0-2.404-0.547-2.404-1.324
			c0-0.264,0.263-0.766,0.742-0.766c0.668,0,0.969,0.586,1.782,0.586c0.526,0,0.684-0.166,0.684-0.492
			c0-0.789-2.994-0.668-2.994-2.644c0-1.193,0.971-2.012,2.333-2.012c0.851,0,2.156,0.398,2.156,1.248
			C322.31,760.01,322.01,760.381,321.604,760.381"/>
		<path style="fill:#FFFFFF;" d="M324.881,756.803c0,0.543-0.428,0.994-0.969,0.994c-0.515,0-0.968-0.467-0.968-0.994
			c0-0.49,0.453-0.943,0.968-0.943C324.427,755.859,324.881,756.299,324.881,756.803 M323.051,759.402
			c0-0.576,0.358-0.959,0.861-0.959c0.502,0,0.863,0.383,0.863,0.959v4.592c0,0.58-0.361,0.959-0.863,0.959
			c-0.503,0-0.861-0.379-0.861-0.959V759.402z"/>
		<path style="fill:#FFFFFF;" d="M331.619,764.381c0,2.066-1.352,3.113-3.314,3.113c-0.706,0-2.718-0.35-2.718-1.297
			c0-0.322,0.358-0.754,0.695-0.754c0.552,0,1.161,0.535,2.152,0.535c0.838,0,1.462-0.484,1.462-1.361v-0.404h-0.024
			c-0.358,0.523-0.945,0.809-1.733,0.809c-1.808,0-2.661-1.588-2.661-3.297c0-1.74,1.103-3.356,2.839-3.356
			c0.587,0,1.257,0.264,1.58,0.789c0.108-0.453,0.382-0.715,0.861-0.715c0.502,0,0.861,0.383,0.861,0.959V764.381z M328.542,759.949
			c-0.895,0-1.338,0.936-1.338,1.738c0,0.92,0.443,1.758,1.338,1.758c0.922,0,1.354-0.859,1.354-1.705
			C329.896,760.91,329.488,759.949,328.542,759.949"/>
		<path style="fill:#FFFFFF;" d="M332.599,759.402c0-0.576,0.358-0.959,0.862-0.959c0.444,0,0.731,0.238,0.788,0.637
			c0.34-0.471,0.853-0.711,1.665-0.711c1.353,0,2.357,0.863,2.357,2.322v3.303c0,0.58-0.355,0.959-0.859,0.959
			c-0.503,0-0.864-0.379-0.864-0.959v-3.004c0-0.799-0.501-1.18-1.125-1.18c-0.702,0-1.099,0.512-1.099,1.18v3.004
			c0,0.58-0.361,0.959-0.863,0.959c-0.504,0-0.862-0.379-0.862-0.959V759.402z"/>
		<path style="fill:#FFFFFF;" d="M340.641,762.269c0.12,0.85,0.826,1.248,1.628,1.248c0.885,0,1.495-0.695,1.95-0.695
			c0.369,0,0.709,0.371,0.709,0.744c0,0.742-1.534,1.455-2.814,1.455c-1.939,0-3.232-1.41-3.232-3.311
			c0-1.748,1.268-3.342,3.09-3.342c1.866,0,3.097,1.703,3.097,3.137c0,0.516-0.226,0.764-0.751,0.764H340.641z M343.346,761.123
			c-0.097-0.756-0.574-1.313-1.375-1.313c-0.768,0-1.282,0.58-1.364,1.313H343.346z"/>
		<path style="fill:#FFFFFF;" d="M351.567,763.994c0,0.58-0.359,0.959-0.862,0.959c-0.479,0-0.754-0.26-0.859-0.721
			c-0.326,0.529-0.994,0.789-1.583,0.789c-1.733,0-2.832-1.609-2.832-3.238c0-1.68,0.919-3.414,2.775-3.414
			c0.597,0,1.182,0.205,1.64,0.604v-2.352c0-0.57,0.356-0.953,0.859-0.953c0.503,0,0.862,0.383,0.862,0.953V763.994z
			 M348.492,759.949c-0.896,0-1.339,0.943-1.339,1.76c0,0.805,0.442,1.736,1.339,1.736c0.944,0,1.354-0.957,1.354-1.795
			C349.846,760.81,349.415,759.949,348.492,759.949"/>
		<path style="fill:#FFFFFF;" d="M355.755,756.621c0-0.57,0.361-0.953,0.864-0.953c0.5,0,0.858,0.383,0.858,0.953v2.352
			c0.458-0.398,1.042-0.604,1.64-0.604c1.856,0,2.776,1.734,2.776,3.414c0,1.629-1.1,3.238-2.836,3.238
			c-0.586,0-1.257-0.26-1.58-0.789c-0.108,0.461-0.381,0.721-0.858,0.721c-0.503,0-0.864-0.379-0.864-0.961V756.621z
			 M358.831,763.445c0.896,0,1.341-0.932,1.341-1.734c0-0.818-0.444-1.762-1.341-1.762c-0.923,0-1.354,0.861-1.354,1.701
			C357.477,762.488,357.887,763.445,358.831,763.445"/>
		<path style="fill:#FFFFFF;" d="M362.193,759.625c-0.049-0.127-0.085-0.264-0.085-0.438c0-0.434,0.457-0.742,0.814-0.742
			c0.418,0,0.72,0.229,0.863,0.607l1.183,3.244l1.27-3.244c0.143-0.379,0.442-0.607,0.861-0.607c0.361,0,0.813,0.309,0.813,0.742
			c0,0.174-0.022,0.31-0.081,0.438l-2.885,7.184c-0.146,0.357-0.408,0.685-0.815,0.685c-0.583,0-0.898-0.377-0.898-0.744
			c0-0.172,0.05-0.35,0.107-0.506l0.757-1.861L362.193,759.625z"/>
	</g>
	<g>
		<g>
			<g>
				<path style="fill:#AFC01D;" d="M285.977,268.941v1.881c0.033-0.627,0.037-1.261,0.094-1.881H285.977z"/>
				<path style="fill:#AFC01D;" d="M365.604,274.58c-0.029,0.624-0.037,1.256-0.095,1.874v74.103h0.095V274.58z"/>
				<path style="fill:#AFC01D;" d="M325.789,324.566l-10.323-10.752c3.335-0.766,6.782-1.202,10.325-1.202
					c-21.407,0-38.828-16.868-39.814-38.032v75.978h39.814v-25.991H325.789z"/>
				<path style="fill:#AFC01D;" d="M365.604,268.941h-0.095c0.058,0.62,0.061,1.254,0.095,1.881V268.941z"/>
				<path style="fill:#FFFFFF;" d="M285.881,272.703c0,0.634,0.066,1.25,0.096,1.877v-3.758
					C285.942,271.45,285.881,272.068,285.881,272.703z"/>
				<path style="fill:#FFFFFF;" d="M365.699,272.703c0-0.635-0.06-1.253-0.095-1.881v3.758
					C365.635,273.953,365.699,273.336,365.699,272.703z"/>
				<path style="fill:#FFFFFF;" d="M365.604,274.58v-3.758c-0.033-0.627-0.037-1.261-0.095-1.881v7.513
					C365.567,275.835,365.575,275.204,365.604,274.58z"/>
				<path style="fill:#FFFFFF;" d="M307.135,268.941c-3.294,1.115-6.836,1.741-10.544,1.741c-3.698,0-7.228-0.635-10.521-1.741
					c-0.057,0.62-0.06,1.254-0.094,1.881v3.758c0.986,21.164,18.407,38.032,39.814,38.032v-43.671v-17.355
					C322.623,259.645,315.764,266.023,307.135,268.941z"/>
				<path style="fill:#AFC01D;" d="M286.07,268.941c3.293,1.107,6.822,1.741,10.521,1.741c3.708,0,7.25-0.626,10.544-1.741
					c8.629-2.918,15.488-9.296,18.656-17.355v-18.791C305.02,232.794,287.969,248.665,286.07,268.941z"/>
				<path style="fill:#FFFFFF;" d="M325.789,324.566h0.002v-11.954c-3.543,0-6.99,0.437-10.325,1.202L325.789,324.566z"/>
				<rect x="325.791" y="350.557" style="fill:#002738;" width="39.719" height="18.422"/>
				<path style="fill:#DCDCDC;" d="M354.988,270.682c-3.706,0-7.25-0.626-10.544-1.741c-8.63-2.918-15.487-9.296-18.653-17.355
					v17.355v43.671c20.773,0,37.826-15.877,39.719-36.158v-7.513C362.219,270.047,358.685,270.682,354.988,270.682z"/>
				<g>
					<path style="fill:#7EA800;" d="M325.791,312.612c3.541,0,6.989,0.437,10.324,1.202l-10.322,10.752h-0.002v25.991h39.719
						v-74.103C363.617,296.735,346.564,312.612,325.791,312.612z"/>
					<path style="fill:#7EA800;" d="M344.444,268.941c3.294,1.115,6.838,1.741,10.544,1.741c3.697,0,7.23-0.635,10.522-1.741
						c-1.898-20.275-18.947-36.146-39.719-36.146v18.791C328.957,259.645,335.814,266.023,344.444,268.941z"/>
				</g>
				<path style="fill:#DCDCDC;" d="M325.793,324.566l10.322-10.752c-3.335-0.766-6.783-1.202-10.324-1.202v11.954H325.793z"/>
			</g>
			<g>
				<g>
					<path style="fill:#00BEC5;" d="M325.793,324.566h-0.002h-0.002l0,0c0,0,0.002,0.048,0.002,0.101
						C325.791,324.614,325.793,324.566,325.793,324.566L325.793,324.566z"/>
					<path style="fill:#002738;" d="M348.566,318.627c-0.264,3.32-2.045,13.607-12.619,15.369
						c-9.858,1.643-10.162-7.897-10.156-9.258c0.006,1.361-0.301,10.9-10.157,9.258c-10.573-1.762-12.354-12.049-12.622-15.369
						c-16.639,9.261-28.076,28.307-28.076,50.352h101.709C376.645,346.934,365.206,327.888,348.566,318.627z"/>
					<path style="fill:#69E2DE;" d="M325.789,324.566l-10.323-10.752c-0.507,0.116-1.018,0.219-1.517,0.351
						c-3.839,1.015-7.492,2.543-10.938,4.463c0.268,3.32,2.049,13.607,12.622,15.369c9.856,1.643,10.163-7.897,10.157-9.258
						c0-0.03,0-0.05,0-0.072C325.791,324.614,325.789,324.566,325.789,324.566z"/>
					<path style="fill:#00BEC5;" d="M337.633,314.165c-0.5-0.132-1.011-0.234-1.518-0.351l-10.322,10.752
						c0,0-0.002,0.048-0.002,0.101c0,0.022,0,0.042,0,0.072c-0.006,1.361,0.299,10.9,10.156,9.258
						c10.574-1.762,12.355-12.049,12.619-15.369C345.123,316.707,341.471,315.179,337.633,314.165z"/>
					<path style="fill:#DCDCDC;" d="M325.791,324.667c0,0.022,0,0.042,0,0.072C325.791,324.708,325.791,324.689,325.791,324.667z"/>
				</g>
				<path style="fill:#69E2DE;" d="M327.971,339.214c0,1.206-0.977,2.183-2.182,2.183c-1.206,0-2.184-0.977-2.184-2.183
					c0-1.206,0.978-2.182,2.184-2.182C326.994,337.033,327.971,338.008,327.971,339.214z"/>
				<path style="fill:#69E2DE;" d="M327.971,348.375c0,1.206-0.977,2.183-2.182,2.183c-1.206,0-2.184-0.977-2.184-2.183
					c0-1.205,0.978-2.182,2.184-2.182C326.994,346.193,327.971,347.169,327.971,348.375z"/>
				<path style="fill:#69E2DE;" d="M327.971,357.535c0,1.206-0.977,2.183-2.182,2.183c-1.206,0-2.184-0.977-2.184-2.183
					c0-1.206,0.978-2.182,2.184-2.182C326.994,355.353,327.971,356.329,327.971,357.535z"/>
			</g>
		</g>
		<g>
			<g>
				<path style="fill:#AFC01D;" d="M688.91,539.168c0-29.621-20.621-53.888-46.815-56.173v56.173H688.91z"/>
				<path style="fill:#AFC01D;" d="M587.2,539.168h46.811v-56.173C607.817,485.28,587.2,509.547,587.2,539.168z"/>
				<path style="fill:#7EA800;" d="M642.095,482.995c-1.334-0.116-2.679-0.193-4.042-0.193c-1.361,0-2.707,0.077-4.041,0.193v56.173
					h8.083V482.995z"/>
			</g>
			<g>
				<path style="fill:#FFFFFF;" d="M614.512,429.05c-9.429,1.684-16.367,13.843-16.367,13.843c0,22.043,17.871,39.909,39.908,39.909
					v-79.817C636.337,419.69,623.943,427.366,614.512,429.05z"/>
				<path style="fill:#DCDCDC;" d="M677.963,442.893c0-22.042-17.867-39.908-39.91-39.908v79.817
					C660.096,482.802,677.963,464.935,677.963,442.893z"/>
			</g>
			<g>
				<path style="fill:#002738;" d="M614.512,429.05c9.432-1.684,21.825-9.359,23.541-26.065c-22.037,0-39.908,17.866-39.908,39.908
					C598.144,442.893,605.083,430.733,614.512,429.05z"/>
				<path style="fill:#002738;" d="M661.596,429.05c-9.429-1.684-21.825-9.359-23.543-26.065c22.043,0,39.91,17.866,39.91,39.908
					C677.963,442.893,671.028,430.733,661.596,429.05z"/>
			</g>
			<path style="fill:#002738;" d="M656.658,465.033c0-8.238-8.33-14.918-18.606-14.918c-10.273,0-18.602,6.68-18.602,14.918"/>
		</g>
		<g>
			<g>
				<path style="fill:#69E2DE;" d="M154.788,677.541c-1.5,2.35-2.678,5.295-2.974,8.984l-17.79-17.393l18.706,45.574l6.035-29.666
					L154.788,677.541z"/>
				<path style="fill:#FFFFFF;" d="M163.717,658.35c-5.144,0.025-10.109,0.891-14.786,2.488l14.786,8.82V658.35z"/>
				<path style="fill:#FF5B45;" d="M154.788,677.541l3.977,7.5l-6.035,29.666h10.986v-44.826
					C162.666,670.33,157.979,672.547,154.788,677.541z"/>
				<path style="fill:#69E2DE;" d="M154.788,677.541c3.19-4.994,7.878-7.211,8.929-7.66v-0.223l-14.786-8.82
					c-5.413,1.852-10.433,4.682-14.906,8.295l17.79,17.393C152.11,682.836,153.288,679.891,154.788,677.541z"/>
				<path style="fill:#002738;" d="M113.084,714.707h39.646l-18.706-45.574C121.336,679.383,113.084,695.973,113.084,714.707z"/>
				<path style="fill:#FFFFFF;" d="M140.396,604.588c-9.431,1.684-16.367,13.844-16.367,13.844c0,21.967,17.75,39.777,39.688,39.897
					v-78.299C161.422,595.676,149.533,602.959,140.396,604.588z"/>
				<path style="fill:#FF5B45;" d="M140.396,604.588c9.137-1.629,21.025-8.912,23.32-24.559v-1.494
					c-21.938,0.119-39.688,17.93-39.688,39.896C124.029,618.432,130.966,606.271,140.396,604.588z"/>
				<path style="fill:#FFA033;" d="M163.717,578.521v0.014c0.075-0.002,0.146-0.014,0.222-0.014H163.717z"/>
				<path style="fill:#FFA033;" d="M163.717,658.328v0.021c0.075,0,0.146-0.008,0.222-0.008
					C163.863,658.342,163.792,658.33,163.717,658.328z"/>
				<path style="fill:#DCDCDC;" d="M163.938,669.789l15.007-8.951c-4.744-1.621-9.783-2.496-15.007-2.496
					c-0.075,0-0.146,0.008-0.222,0.008v11.309L163.938,669.789z"/>
				<path style="fill:#00BEC5;" d="M176.063,686.525c-0.296-3.69-1.474-6.635-2.974-8.984l-3.979,7.5l6.036,29.666l18.706-45.574
					L176.063,686.525z"/>
				<path style="fill:#EF3522;" d="M173.089,677.541c-3.613-5.652-9.15-7.752-9.15-7.752s-0.081,0.031-0.222,0.092v44.826h11.43
					l-6.036-29.666L173.089,677.541z"/>
				<path style="fill:#FFA033;" d="M163.717,669.881c0.141-0.061,0.222-0.092,0.222-0.092l-0.222-0.131V669.881z"/>
				<path style="fill:#00BEC5;" d="M173.089,677.541c1.5,2.35,2.678,5.295,2.974,8.984l17.79-17.393
					c-4.474-3.613-9.493-6.443-14.907-8.295l-15.007,8.951C163.938,669.789,169.476,671.889,173.089,677.541z"/>
				<path style="fill:#002738;" d="M193.852,669.133l-18.706,45.574h39.646C214.793,695.973,206.541,679.383,193.852,669.133z"/>
				<path style="fill:#DCDCDC;" d="M203.848,618.432c0,0-6.937-12.16-16.367-13.844c-9.431-1.682-21.825-9.359-23.542-26.066
					c-0.054,0.52-0.147,1.006-0.222,1.508v78.299c0.075,0.002,0.146,0.014,0.222,0.014
					C185.979,658.342,203.848,640.475,203.848,618.432z"/>
				<path style="fill:#FFA033;" d="M163.938,578.521c-0.075,0-0.146,0.012-0.222,0.014v1.494
					C163.791,579.527,163.885,579.041,163.938,578.521z"/>
				<path style="fill:#EF3522;" d="M187.48,604.588c9.431,1.684,16.367,13.844,16.367,13.844c0-22.041-17.869-39.91-39.909-39.91
					C165.655,595.229,178.05,602.906,187.48,604.588z"/>
			</g>
			<path style="fill:#FFA033;" d="M178.891,610.107c-5.721,0-10.531,3.912-11.939,9.195c-1.77-0.754-3.473-1.027-5.067-0.711
				c-0.385,0.076-0.735,0.185-1.067,0.313c-1.535-5.084-6.256-8.797-11.832-8.797c-6.818,0-12.363,5.547-12.363,12.365
				c0,6.818,5.545,12.365,12.363,12.365c6.55,0,11.909-5.123,12.323-11.57c0.261-0.244,0.704-0.58,1.374-0.713
				c1.064-0.205,2.409,0.182,3.903,1.076c0.585,6.275,5.878,11.207,12.306,11.207c6.818,0,12.365-5.547,12.365-12.365
				C191.256,615.654,185.709,610.107,178.891,610.107z M148.984,630.797c-4.588,0-8.322-3.734-8.322-8.324
				c0-4.59,3.734-8.322,8.322-8.322c4.588,0,8.322,3.732,8.322,8.322C157.307,627.063,153.572,630.797,148.984,630.797z
				 M178.891,630.797c-4.59,0-8.324-3.734-8.324-8.324c0-4.59,3.734-8.322,8.324-8.322c4.59,0,8.323,3.732,8.323,8.322
				C187.214,627.063,183.48,630.797,178.891,630.797z"/>
		</g>
		<g>
			<path style="fill:none;" d="M200.23,90.287c0.189,0.65,0.352,1.312,0.509,1.977C200.582,91.598,200.422,90.937,200.23,90.287z"/>
			<path style="fill:none;" d="M197.582,83.598c0.238,0.475,0.472,0.949,0.69,1.435C198.054,84.547,197.82,84.073,197.582,83.598z"
				/>
			<path style="fill:none;" d="M201.659,97.626c0.122,1.272,0.195,2.561,0.195,3.865C201.854,100.185,201.781,98.898,201.659,97.626
				z"/>
			<path style="fill:none;" d="M195.877,80.555c0.24,0.389,0.484,0.776,0.711,1.173C196.361,81.331,196.117,80.944,195.877,80.555z"
				/>
			<path style="fill:none;" d="M201.11,93.885c0.151,0.787,0.261,1.592,0.365,2.396C201.371,95.477,201.262,94.672,201.11,93.885z"
				/>
			<path style="fill:none;" d="M192.424,75.754L192.424,75.754c0.002,0.005,0.004,0.006,0.006,0.008
				C192.428,75.76,192.426,75.759,192.424,75.754z"/>
			<path style="fill:none;" d="M199.047,86.851c0.219,0.557,0.422,1.12,0.617,1.689C199.469,87.971,199.266,87.408,199.047,86.851z"
				/>
			<path style="fill:none;" d="M193.992,77.779c0.213,0.287,0.436,0.565,0.642,0.856C194.428,78.344,194.205,78.066,193.992,77.779z
				"/>
			<path style="fill:#DCDCDC;" d="M201.854,101.491c0-1.304-0.073-2.593-0.195-3.865c-0.044-0.452-0.125-0.895-0.184-1.344
				c-0.105-0.805-0.214-1.609-0.365-2.396c-0.107-0.548-0.243-1.085-0.371-1.622c-0.157-0.665-0.319-1.326-0.509-1.977
				c-0.172-0.589-0.367-1.169-0.566-1.746c-0.195-0.569-0.398-1.133-0.617-1.689c-0.246-0.614-0.502-1.22-0.774-1.818
				c-0.219-0.485-0.452-0.96-0.69-1.435c-0.318-0.631-0.644-1.258-0.994-1.87c-0.227-0.396-0.471-0.784-0.711-1.173
				c-0.402-0.648-0.805-1.296-1.243-1.92c-0.206-0.291-0.429-0.569-0.642-0.856c-0.507-0.683-1.014-1.367-1.562-2.017
				c-0.002-0.002-0.004-0.003-0.006-0.008v19.002h-30.479V141.4c2.484,0,4.906-0.257,7.264-0.692
				C187.776,137.288,201.854,121.048,201.854,101.491z"/>
			<path style="fill:#FCD07A;" d="M200.739,92.263c0.128,0.537,0.265,1.074,0.371,1.622
				C201.004,93.337,200.865,92.802,200.739,92.263z"/>
			<path style="fill:#FCD07A;" d="M199.664,88.54c0.199,0.577,0.395,1.157,0.566,1.746C200.059,89.696,199.863,89.118,199.664,88.54
				z"/>
			<path style="fill:#FFA033;" d="M161.945,54.847v6.735v33.174h30.479V75.754c0.002,0.005,0.004,0.006,0.006,0.008
				c0.549,0.649,1.056,1.332,1.562,2.017c0.213,0.287,0.436,0.565,0.642,0.856c0.439,0.624,0.841,1.271,1.243,1.92
				c0.24,0.389,0.484,0.776,0.711,1.173c0.351,0.614,0.676,1.239,0.994,1.87c0.238,0.475,0.472,0.949,0.69,1.435
				c0.272,0.601,0.53,1.204,0.774,1.818c0.219,0.557,0.422,1.12,0.617,1.689c0.199,0.577,0.395,1.155,0.566,1.746
				c0.191,0.65,0.352,1.312,0.509,1.977c0.126,0.539,0.265,1.074,0.371,1.622c0.151,0.787,0.261,1.592,0.365,2.396
				c0.059,0.449,0.14,0.89,0.184,1.344c0.122,1.272,0.195,2.56,0.195,3.865c0,19.558-14.078,35.797-32.645,39.217
				c5.995,0.247,11.114,0.788,15.467,1.512c19.922,3.316,23.914,10.465,23.914,10.465v-51.193
				C208.59,75.729,187.705,54.847,161.945,54.847z"/>
			<path style="fill:#FCD07A;" d="M192.43,75.762c0.549,0.649,1.056,1.334,1.562,2.017C193.485,77.094,192.979,76.412,192.43,75.762
				z"/>
			<path style="fill:#FCD07A;" d="M194.634,78.635c0.439,0.624,0.841,1.271,1.243,1.92
				C195.475,79.907,195.072,79.259,194.634,78.635z"/>
			<path style="fill:#FCD07A;" d="M198.272,85.033c0.272,0.599,0.528,1.204,0.774,1.818
				C198.803,86.237,198.545,85.633,198.272,85.033z"/>
			<path style="fill:#FCD07A;" d="M196.588,81.728c0.351,0.612,0.676,1.239,0.994,1.87
				C197.264,82.967,196.938,82.342,196.588,81.728z"/>
			<path style="fill:#FCD07A;" d="M201.476,96.282c0.059,0.449,0.14,0.892,0.184,1.344
				C201.615,97.171,201.534,96.731,201.476,96.282z"/>
			<path style="fill:#DCDCDC;" d="M195.068,155.03v42.753h17.732C212.801,180.68,205.92,165.369,195.068,155.03z"/>
			<path style="fill:#7EA800;" d="M194.307,154.297c-2.596-2.376-5.41-4.463-8.398-6.235c-0.685,2.232-1.703,4.326-3.004,6.235
				c-4.45,6.53-12.166,10.861-20.959,10.861v32.624h33.123V155.03C194.813,154.787,194.564,154.535,194.307,154.297z"/>
			<path style="fill:#DCDCDC;" d="M182.904,154.297c1.301-1.909,2.318-4.003,3.004-6.235c-7.141-4.238-15.298-6.646-23.963-6.646
				v23.743C170.738,165.159,178.454,160.828,182.904,154.297z"/>
			<path style="fill:#FCD07A;" d="M129.265,78.623c0.189-0.267,0.396-0.524,0.592-0.791
				C129.661,78.099,129.454,78.356,129.265,78.623z"/>
			<path style="fill:#FCD07A;" d="M125.625,85.017c0.214-0.472,0.44-0.936,0.672-1.395
				C126.064,84.081,125.839,84.545,125.625,85.017z"/>
			<path style="fill:#FCD07A;" d="M127.31,81.713c0.217-0.38,0.452-0.749,0.684-1.122C127.763,80.964,127.527,81.334,127.31,81.713z
				"/>
			<path style="fill:#FCD07A;" d="M124.232,88.524c0.191-0.558,0.391-1.111,0.607-1.657
				C124.623,87.413,124.426,87.966,124.232,88.524z"/>
			<path style="fill:#FCD07A;" d="M122.416,96.273c0.103-0.801,0.213-1.601,0.364-2.384
				C122.629,94.672,122.521,95.472,122.416,96.273z"/>
			<path style="fill:#FCD07A;" d="M122.036,101.491c0-1.304,0.073-2.593,0.195-3.863
				C122.109,98.898,122.036,100.187,122.036,101.491z"/>
			<path style="fill:#FCD07A;" d="M123.155,92.248c0.155-0.656,0.315-1.312,0.501-1.952
				C123.469,90.937,123.31,91.592,123.155,92.248z"/>
			<path style="fill:#FFFFFF;" d="M131.465,94.756V75.759c-0.564,0.667-1.088,1.368-1.608,2.073
				c-0.195,0.267-0.402,0.524-0.592,0.791c-0.448,0.64-0.86,1.303-1.271,1.968c-0.231,0.373-0.467,0.742-0.684,1.122
				c-0.358,0.625-0.689,1.264-1.014,1.909c-0.231,0.459-0.458,0.923-0.672,1.395c-0.277,0.607-0.537,1.227-0.785,1.85
				c-0.217,0.546-0.416,1.1-0.607,1.657c-0.201,0.587-0.4,1.174-0.576,1.772c-0.186,0.641-0.346,1.296-0.501,1.952
				c-0.13,0.545-0.269,1.087-0.375,1.641c-0.151,0.783-0.261,1.583-0.364,2.384c-0.061,0.452-0.141,0.896-0.185,1.354
				c-0.122,1.271-0.195,2.56-0.195,3.863c0,19.558,14.077,35.797,32.646,39.217c2.357,0.436,4.779,0.692,7.264,0.692V94.756H131.465
				z"/>
			<path style="fill:#FCD07A;" d="M115.301,101.491v51.193c0,0,3.992-7.148,23.913-10.465c4.354-0.724,9.473-1.265,15.468-1.512
				c-18.568-3.42-32.646-19.659-32.646-39.217c0-1.304,0.073-2.593,0.195-3.863c0.044-0.458,0.124-0.902,0.185-1.354
				c0.105-0.801,0.213-1.601,0.364-2.384c0.106-0.556,0.245-1.096,0.375-1.641c0.155-0.656,0.313-1.312,0.501-1.952
				c0.176-0.599,0.375-1.186,0.576-1.772c0.193-0.558,0.391-1.111,0.607-1.657c0.245-0.626,0.508-1.242,0.785-1.85
				c0.214-0.472,0.439-0.936,0.672-1.395c0.324-0.646,0.656-1.282,1.014-1.909c0.217-0.38,0.452-0.749,0.684-1.122
				c0.41-0.665,0.822-1.328,1.271-1.968c0.189-0.267,0.396-0.524,0.592-0.791c0.513-0.694,1.054-1.368,1.608-2.026v18.95h30.48
				V61.583v-6.735C136.186,54.847,115.301,75.729,115.301,101.491z"/>
			<path style="fill:#FCD07A;" d="M122.78,93.889c0.106-0.554,0.245-1.096,0.375-1.641C123.025,92.794,122.887,93.334,122.78,93.889
				z"/>
			<path style="fill:#FCD07A;" d="M122.231,97.627c0.044-0.458,0.124-0.902,0.185-1.354
				C122.355,96.725,122.275,97.169,122.231,97.627z"/>
			<path style="fill:#FCD07A;" d="M127.994,80.591c0.41-0.665,0.822-1.328,1.271-1.968
				C128.816,79.263,128.404,79.926,127.994,80.591z"/>
			<path style="fill:#FCD07A;" d="M123.656,90.296c0.176-0.599,0.375-1.186,0.576-1.772
				C124.031,89.111,123.832,89.698,123.656,90.296z"/>
			<path style="fill:#FCD07A;" d="M126.297,83.623c0.324-0.646,0.655-1.284,1.014-1.909
				C126.953,82.34,126.621,82.977,126.297,83.623z"/>
			<path style="fill:#FCD07A;" d="M124.84,86.867c0.248-0.623,0.508-1.242,0.785-1.85C125.348,85.624,125.085,86.241,124.84,86.867z
				"/>
			<path style="fill:#FFFFFF;" d="M111.09,197.783h17.237v-42.277C117.762,165.835,111.09,180.94,111.09,197.783z"/>
			<path style="fill:#AFC01D;" d="M140.986,154.297c-1.301-1.909-2.318-4.003-3.004-6.235c-2.989,1.773-5.803,3.859-8.398,6.235
				c-0.426,0.392-0.84,0.802-1.257,1.208v42.277h33.618v-32.624C153.152,165.159,145.436,160.828,140.986,154.297z"/>
			<path style="fill:#FFFFFF;" d="M140.986,154.297c4.449,6.53,12.166,10.861,20.959,10.861v-23.743
				c-8.665,0-16.822,2.408-23.963,6.646C138.668,150.294,139.686,152.388,140.986,154.297z"/>
		</g>
		<g>
			<path style="fill:#FF5B45;" d="M319.736,181.696l-29.672-29.688c-12.83,10.234-21.193,26.917-21.193,45.774h101.711
				c0-0.077-0.004-0.154-0.004-0.231h-50.842V181.696z"/>
			<path style="fill:#AFC01D;" d="M319.736,170.147l-22.765-22.773c-2.419,1.344-4.728,2.896-6.907,4.635l29.672,29.688V170.147z"/>
			<path style="fill:#FFFFFF;" d="M319.736,170.147v-7.301l-0.012,0.004c0,0-14.753-5.57-20.27-16.76
				c-0.837,0.405-1.665,0.831-2.482,1.283L319.736,170.147z"/>
			<path style="fill:#FFFFFF;" d="M304.774,89.911c-4.591,0-8.323,3.734-8.323,8.324c0,4.59,3.732,8.324,8.323,8.324
				c4.586,0,8.319-3.734,8.319-8.324C313.094,93.645,309.36,89.911,304.774,89.911z"/>
			<path style="fill:#FFFFFF;" d="M319.725,113.888c0.004,0,0.008,0,0.012,0V98.341c-0.45-0.075-0.881-0.103-1.268-0.025
				c-0.666,0.134-1.112,0.47-1.373,0.714c-0.414,6.447-5.773,11.57-12.321,11.57c-6.819,0-12.364-5.547-12.364-12.365
				c0-6.818,5.545-12.364,12.364-12.364c5.577,0,10.297,3.714,11.832,8.795c0.331-0.124,0.683-0.235,1.066-0.313
				c0.671-0.132,1.361-0.147,2.064-0.089V61.583c-0.004,0-0.004,0-0.008,0c-12.377,0-23.432,5.633-30.752,14.474
				c3.342,1.504,4.498,8.706,2.549,16.685c-2.053,8.409-6.769,14.478-10.537,13.56c-0.324-0.079-0.624-0.226-0.912-0.399
				c1.314,11.961,7.933,22.301,17.428,28.693C298.491,119.784,307.21,113.888,319.725,113.888z"/>
			<path style="fill:#002738;" d="M291.525,92.741c1.949-7.979,0.793-15.181-2.549-16.685c-5.72,6.907-9.157,15.767-9.157,25.435
				c0,1.492,0.095,2.96,0.257,4.41c0.288,0.174,0.588,0.32,0.912,0.399C284.757,107.218,289.473,101.15,291.525,92.741z"/>
			<path style="fill:#002738;" d="M319.736,113.888c-0.004,0-0.008,0-0.012,0c-12.515,0-21.233,5.896-22.221,20.706
				c-0.059,0.93-0.098,1.888-0.098,2.891c0,3.166,0.781,6.035,2.048,8.605c5.518,11.189,20.27,16.76,20.27,16.76l0.012-0.004
				v-21.431V141.4v-7.227c-0.004,0-0.004,0-0.008,0c-5.806,0-10.514-4.706-10.514-10.511h10.522V113.888z"/>
			<path style="fill:#FFFFFF;" d="M309.215,123.663c0,5.805,4.708,10.511,10.514,10.511c0.004,0,0.004,0,0.008,0v-10.511H309.215z"
				/>
			<path style="fill:#AFC01D;" d="M317.672,94.353c-0.383,0.077-0.734,0.188-1.066,0.313c-1.535-5.081-6.255-8.795-11.832-8.795
				c-6.819,0-12.364,5.546-12.364,12.364c0,6.818,5.545,12.365,12.364,12.365c6.548,0,11.907-5.123,12.321-11.57
				c0.261-0.244,0.707-0.58,1.373-0.714c0.387-0.077,0.817-0.05,1.268,0.025v-4.077C319.033,94.206,318.343,94.221,317.672,94.353z
				 M304.774,106.559c-4.591,0-8.323-3.734-8.323-8.324c0-4.59,3.732-8.324,8.323-8.324c4.586,0,8.319,3.734,8.319,8.324
				C313.094,102.825,309.36,106.559,304.774,106.559z"/>
			<path style="fill:#EF3522;" d="M349.408,152.027l-29.656,29.683l-0.016-0.014v15.855h50.842
				C370.507,178.799,362.176,162.219,349.408,152.027z"/>
			<path style="fill:#7EA800;" d="M319.752,181.71l29.656-29.683c-2.18-1.739-4.484-3.294-6.903-4.638l-22.753,22.773l-0.016-0.016
				v11.549L319.752,181.71z"/>
			<path style="fill:#DCDCDC;" d="M342.505,147.389c-0.825-0.458-1.661-0.889-2.507-1.299
				c-5.478,11.109-20.053,16.678-20.262,16.756v7.301l0.016,0.016L342.505,147.389z"/>
			<path style="fill:#DCDCDC;" d="M322.752,95.031c1.416-5.267,6.22-9.16,11.927-9.16c6.819,0,12.364,5.546,12.364,12.364
				c0,6.818-5.545,12.365-12.364,12.365c-6.425,0-11.718-4.932-12.306-11.209c-0.955-0.572-1.836-0.916-2.637-1.05v15.547
				c12.512,0.003,21.226,5.901,22.212,20.708c9.495-6.395,16.114-16.732,17.433-28.693c-0.288,0.174-0.588,0.318-0.912,0.397
				c-3.769,0.918-8.484-5.15-10.537-13.56c-1.945-7.976-0.793-15.179,2.55-16.683c-7.321-8.841-18.372-14.473-30.745-14.476v32.682
				C320.715,94.345,321.718,94.587,322.752,95.031z"/>
			<path style="fill:#DCDCDC;" d="M334.679,106.559c4.59,0,8.323-3.734,8.323-8.324c0-4.59-3.733-8.324-8.323-8.324
				c-4.591,0-8.324,3.734-8.324,8.324C326.354,102.825,330.088,106.559,334.679,106.559z"/>
			<path style="fill:#002738;" d="M350.481,76.058c-3.343,1.504-4.495,8.707-2.55,16.683c2.053,8.409,6.769,14.478,10.537,13.56
				c0.324-0.079,0.624-0.224,0.912-0.397c0.158-1.452,0.256-2.92,0.256-4.412C359.637,91.826,356.2,82.963,350.481,76.058z"/>
			<path style="fill:#002738;" d="M341.948,134.596c-0.986-14.807-9.7-20.705-22.212-20.708v9.774h10.502
				c0,5.801-4.7,10.505-10.502,10.511v7.227v0.016v21.431c0.209-0.078,14.784-5.646,20.262-16.756
				c1.268-2.57,2.049-5.439,2.049-8.605C342.047,136.485,342.008,135.526,341.948,134.596z"/>
			<path style="fill:#DCDCDC;" d="M330.238,123.663h-10.502v10.511C325.538,134.167,330.238,129.463,330.238,123.663z"/>
			<path style="fill:#AFC01D;" d="M334.679,110.6c6.819,0,12.364-5.547,12.364-12.365c0-6.818-5.545-12.364-12.364-12.364
				c-5.707,0-10.511,3.894-11.927,9.16c-1.034-0.443-2.037-0.686-3.016-0.767v4.077c0.801,0.134,1.682,0.478,2.637,1.05
				C322.961,105.669,328.254,110.6,334.679,110.6z M334.679,89.911c4.59,0,8.323,3.734,8.323,8.324c0,4.59-3.733,8.324-8.323,8.324
				c-4.591,0-8.324-3.734-8.324-8.324C326.354,93.645,330.088,89.911,334.679,89.911z"/>
		</g>
		<g>
			<path style="fill:#7EA800;" d="M471.428,61.583c0,0,11.128-23.298,34.451-13.699c23.323,9.598,26.401,38.512,22.842,51.587
				c-3.561,13.075-6.592,24.6,5.533,27.426c0,0-18.803,2.983-23.8-17.05L471.428,61.583z"/>
			<g>
				<path style="fill:#69E2DE;" d="M459.775,142.968c-22.374,5.916-39.014,28.203-39.014,54.814h50.666v-44.43
					C465.44,153.259,460.528,148.773,459.775,142.968z"/>
				<path style="fill:#FFFFFF;" d="M471.428,153.353v-11.931c-4.012,0.018-7.911,0.559-11.652,1.546
					C460.528,148.773,465.44,153.259,471.428,153.353z"/>
				<path style="fill:#FFFFFF;" d="M442.418,99.47c-3.698,0-7.23-0.636-10.523-1.74c-0.114,1.239-0.189,2.49-0.189,3.761
					c0,21.979,17.771,39.799,39.722,39.899V80.8C466.928,91.71,455.663,99.47,442.418,99.47z"/>
				<path style="fill:#AFC01D;" d="M471.428,80.8V61.59c-20.687,0.097-37.64,15.925-39.532,36.14
					c3.292,1.104,6.824,1.74,10.523,1.74C455.663,99.47,466.928,91.71,471.428,80.8z"/>
				<path style="fill:#00BEC5;" d="M483.459,142.968c-0.762,5.867-5.766,10.401-11.844,10.401c-0.063,0-0.122-0.015-0.188-0.017
					v44.43h51.045C522.473,171.171,505.829,148.884,483.459,142.968z"/>
				<path style="fill:#DCDCDC;" d="M471.615,153.37c6.078,0,11.082-4.534,11.844-10.401c-3.801-1.004-7.764-1.553-11.844-1.553
					c-0.063,0-0.124,0.007-0.188,0.007v11.931C471.493,153.355,471.553,153.37,471.615,153.37z"/>
				<path style="fill:#DCDCDC;" d="M511.524,101.491c0-1.271-0.075-2.521-0.189-3.761c-3.292,1.104-6.819,1.74-10.519,1.74
					c-13.422,0-24.824-7.961-29.201-19.097c-0.058,0.145-0.129,0.283-0.188,0.427v60.589c0.064,0,0.125,0.011,0.188,0.011
					C493.657,141.4,511.524,123.534,511.524,101.491z"/>
				<path style="fill:#7EA800;" d="M471.615,80.373c4.377,11.136,15.779,19.097,29.201,19.097c3.699,0,7.227-0.636,10.519-1.74
					c-1.898-20.276-18.948-36.148-39.72-36.148c-0.063,0-0.124,0.008-0.188,0.008V80.8
					C471.486,80.657,471.558,80.518,471.615,80.373z"/>
			</g>
		</g>
		<g>
			<path style="fill:#FCD07A;" d="M686.762,60.095c-0.338,4.38-4.379,11.45-13.58,12.46c-9.202,1.011-18.36-4.637-18.36-4.637
				s-0.005,0.027-0.007,0.037c-6.216-4.006-13.596-6.357-21.543-6.357c-20.116,0-36.708,14.896-39.463,34.251
				c13.431-1.173,24.198-11.562,25.994-24.809c7.313,14.607,22.407,24.638,39.853,24.638c2.953,0,5.823-0.326,8.612-0.885
				c1.271-0.17,2.646-0.489,4.151-1.011C694.787,86.045,686.762,60.095,686.762,60.095z"/>
			<g>
				<path style="fill:#002738;" d="M633.269,174.651c-16.666-6.382-24.658-26.055-24.693-26.144
					c-15.602,9.626-26.161,28.08-26.161,49.275h50.857v-23.132H633.269z"/>
				<path style="fill:#FFFFFF;" d="M633.269,174.651h0.002v-33.235h-0.002c-8.965,0-17.381,2.581-24.693,7.092
					C608.611,148.596,616.603,168.269,633.269,174.651z"/>
				<polygon style="fill:none;" points="614.728,124.195 614.74,124.184 614.736,124.186 				"/>
				<path style="fill:#FFFFFF;" d="M619.803,71.04c-1.775,13.089-12.314,23.372-25.521,24.747c-0.159,0.016-0.313,0.048-0.474,0.062
					c-0.263,1.853-0.445,3.732-0.445,5.657c0,12.506,5.782,23.627,14.782,30.942c0.204,0.166,0.398,0.339,0.605,0.501
					c6.771,5.287,15.266,8.466,24.521,8.466V87.017C627.614,82.846,622.974,77.377,619.803,71.04z M614.728,124.195
					c0.002-0.002,0.004-0.007,0.008-0.009c0-0.002,0.002-0.002,0.004-0.002C614.736,124.188,614.732,124.193,614.728,124.195z"/>
				<path style="fill:#002738;" d="M657.965,148.507c-0.035,0.089-8.027,19.76-24.693,26.144v23.132h50.854
					C684.125,176.587,673.565,158.133,657.965,148.507z"/>
				<path style="fill:#DCDCDC;" d="M657.965,148.507c-7.313-4.511-15.727-7.092-24.693-7.092v33.235
					C649.938,168.267,657.93,148.596,657.965,148.507z"/>
				<path style="fill:#DCDCDC;" d="M658.398,132.449c9-7.315,14.783-18.438,14.783-30.942c0-2.475-0.257-4.883-0.689-7.229
					c-0.029-0.164-0.041-0.332-0.073-0.494c-4.049,1.214-8.323,1.896-12.764,1.896c-9.878,0-18.999-3.222-26.384-8.661v54.398
					c9.256,0,17.751-3.179,24.522-8.466C658,132.788,658.195,132.615,658.398,132.449z"/>
			</g>
		</g>
		<g>
			<path style="fill:none;" d="M605.227,249.044c-0.196,0.264-0.405,0.52-0.595,0.791
				C604.822,249.565,605.031,249.308,605.227,249.044z"/>
			<path style="fill:none;" d="M599.028,261.502c-0.191,0.646-0.352,1.308-0.507,1.967
				C598.677,262.81,598.839,262.149,599.028,261.502z"/>
			<path style="fill:none;" d="M597.6,268.837c-0.122,1.272-0.195,2.561-0.195,3.865C597.404,271.399,597.477,270.11,597.6,268.837z
				"/>
			<path style="fill:none;" d="M601.669,254.827c-0.235,0.465-0.462,0.934-0.679,1.408
				C601.207,255.76,601.435,255.292,601.669,254.827z"/>
			<path style="fill:none;" d="M603.365,251.797c-0.232,0.375-0.469,0.748-0.688,1.131
				C602.896,252.545,603.133,252.172,603.365,251.797z"/>
			<path style="fill:none;" d="M600.211,258.071c-0.219,0.553-0.419,1.111-0.613,1.673
				C599.79,259.182,599.992,258.624,600.211,258.071z"/>
			<path style="fill:none;" d="M598.148,265.098c-0.154,0.787-0.261,1.59-0.365,2.393
				C597.888,266.688,597.996,265.885,598.148,265.098z"/>
			<path style="fill:#FFFFFF;" d="M607.887,323.021c-12.963,10.214-21.428,26.983-21.428,45.958h21.428v-28.184V323.021z"/>
			<path style="fill:#FFFFFF;" d="M637.313,340.795v-28.184c-9.249,0-17.912,2.751-25.385,7.532v20.651H637.313z"/>
			<path style="fill:#69E2DE;" d="M611.929,340.795v-20.651c-1.39,0.89-2.739,1.85-4.042,2.877v17.774v28.184h29.427v-28.184
				H611.929z"/>
			<path style="fill:#FFFFFF;" d="M606.835,267.045v-20.077c-0.565,0.667-1.087,1.37-1.608,2.076
				c-0.196,0.264-0.405,0.52-0.595,0.791c-0.445,0.637-0.858,1.298-1.268,1.962c-0.232,0.375-0.469,0.748-0.688,1.131
				c-0.355,0.621-0.685,1.256-1.009,1.898c-0.233,0.465-0.462,0.934-0.679,1.408c-0.274,0.604-0.535,1.216-0.779,1.836
				c-0.219,0.553-0.421,1.111-0.613,1.673c-0.2,0.583-0.396,1.164-0.569,1.759c-0.189,0.646-0.352,1.308-0.507,1.967
				c-0.128,0.541-0.266,1.077-0.373,1.629c-0.152,0.787-0.261,1.59-0.365,2.393c-0.06,0.45-0.14,0.893-0.184,1.347
				c-0.122,1.272-0.195,2.561-0.195,3.865c0,8.993,3.01,17.261,8.027,23.935c7.284,9.684,18.832,15.975,31.882,15.975v-45.566
				H606.835z"/>
			<path style="fill:#FF5B45;" d="M597.6,268.837c0.044-0.454,0.124-0.897,0.184-1.347c0.104-0.803,0.211-1.605,0.365-2.393
				c0.107-0.552,0.245-1.086,0.373-1.629c0.155-0.659,0.315-1.32,0.507-1.967c0.172-0.595,0.369-1.176,0.569-1.759
				c0.194-0.562,0.395-1.12,0.613-1.673c0.244-0.62,0.505-1.232,0.779-1.836c0.217-0.475,0.443-0.943,0.679-1.408
				c0.323-0.643,0.653-1.277,1.009-1.898c0.219-0.383,0.455-0.756,0.688-1.131c0.409-0.665,0.822-1.325,1.268-1.962
				c0.189-0.271,0.398-0.527,0.595-0.791c4.482-6.067,10.622-10.811,17.773-13.562v-10.402c-20.483,6.148-35.41,25.137-35.41,47.622
				v23.935h6.135h11.706c-5.018-6.674-8.027-14.941-8.027-23.935C597.404,271.399,597.477,270.11,597.6,268.837z"/>
			<path style="fill:#FF5B45;" d="M637.313,222.98c-2.311,0-4.578,0.171-6.805,0.476l6.805,3.257V222.98z"/>
			<path style="fill:#FF5B45;" d="M598.521,263.469c-0.128,0.543-0.266,1.077-0.373,1.629
				C598.256,264.546,598.394,264.01,598.521,263.469z"/>
			<path style="fill:#FF5B45;" d="M597.783,267.491c-0.06,0.45-0.14,0.893-0.184,1.347
				C597.644,268.383,597.724,267.941,597.783,267.491z"/>
			<path style="fill:#FF5B45;" d="M604.633,249.835c-0.445,0.637-0.858,1.297-1.268,1.962
				C603.774,251.133,604.188,250.472,604.633,249.835z"/>
			<path style="fill:#FF5B45;" d="M602.678,252.928c-0.355,0.621-0.685,1.256-1.009,1.898
				C601.992,254.184,602.322,253.549,602.678,252.928z"/>
			<path style="fill:#FF5B45;" d="M600.99,256.235c-0.274,0.604-0.535,1.216-0.779,1.836
				C600.455,257.451,600.716,256.838,600.99,256.235z"/>
			<path style="fill:#FF5B45;" d="M599.598,259.744c-0.2,0.583-0.397,1.164-0.569,1.759
				C599.202,260.908,599.397,260.327,599.598,259.744z"/>
			<path style="fill:#FF5B45;" d="M623.001,241.296v-5.814c-7.151,2.751-13.292,7.494-17.773,13.562
				c0.521-0.706,1.043-1.409,1.608-2.076v20.077h30.478v-32.599L623.001,241.296z"/>
			<path style="fill:#69E2DE;" d="M623.001,219.863v5.218c2.43-0.729,4.938-1.273,7.508-1.625L623.001,219.863z"/>
			<path style="fill:#69E2DE;" d="M637.313,232.794v-6.082l-6.805-3.257c-2.57,0.352-5.078,0.896-7.508,1.625v10.402
				C627.449,233.771,632.262,232.794,637.313,232.794z"/>
			<path style="fill:#69E2DE;" d="M637.313,234.447v-1.652c-5.052,0-9.864,0.977-14.313,2.688v5.814L637.313,234.447z"/>
			<path style="fill:#FF5B45;" d="M675.03,259.744c-0.195-0.562-0.395-1.12-0.614-1.673
				C674.636,258.624,674.836,259.182,675.03,259.744z"/>
			<path style="fill:#FF5B45;" d="M676.105,263.469c-0.156-0.659-0.315-1.32-0.507-1.967
				C675.787,262.149,675.949,262.81,676.105,263.469z"/>
			<path style="fill:#FF5B45;" d="M677.223,272.703c0-1.304-0.072-2.593-0.195-3.865C677.15,270.11,677.223,271.399,677.223,272.703
				z"/>
			<path style="fill:#FF5B45;" d="M676.844,267.491c-0.106-0.803-0.212-1.605-0.365-2.393
				C676.631,265.885,676.738,266.688,676.844,267.491z"/>
			<path style="fill:#FF5B45;" d="M671.949,252.928c-0.219-0.383-0.455-0.756-0.688-1.131
				C671.494,252.172,671.73,252.545,671.949,252.928z"/>
			<path style="fill:#FF5B45;" d="M669.994,249.835c-0.189-0.271-0.398-0.527-0.594-0.791
				C669.596,249.308,669.805,249.565,669.994,249.835z"/>
			<path style="fill:#FF5B45;" d="M673.637,256.235c-0.217-0.475-0.444-0.943-0.679-1.408
				C673.19,255.292,673.42,255.76,673.637,256.235z"/>
			<path style="fill:#DCDCDC;" d="M666.74,323.021v17.774v28.184h21.429C688.169,350.004,679.703,333.235,666.74,323.021z"/>
			<path style="fill:#DCDCDC;" d="M662.699,340.795v-20.651c-7.475-4.781-16.137-7.532-25.386-7.532v28.184H662.699z"/>
			<path style="fill:#00BEC5;" d="M666.74,323.021c-1.303-1.027-2.652-1.987-4.041-2.877v20.651h-25.386v28.184h29.427v-28.184
				V323.021z"/>
			<path style="fill:#DCDCDC;" d="M669.194,296.637c5.019-6.674,8.028-14.941,8.028-23.935c0-1.304-0.072-2.593-0.195-3.865
				c-0.043-0.454-0.125-0.897-0.183-1.347c-0.106-0.803-0.213-1.605-0.365-2.393c-0.106-0.552-0.244-1.088-0.373-1.629
				c-0.156-0.659-0.318-1.32-0.507-1.967c-0.174-0.595-0.369-1.176-0.568-1.759c-0.194-0.562-0.395-1.12-0.614-1.673
				c-0.244-0.62-0.505-1.232-0.779-1.836c-0.217-0.475-0.446-0.943-0.679-1.408c-0.324-0.643-0.653-1.277-1.009-1.898
				c-0.219-0.383-0.455-0.756-0.688-1.131c-0.408-0.664-0.82-1.325-1.267-1.962c-0.189-0.271-0.398-0.527-0.594-0.791
				c-0.521-0.706-1.044-1.409-1.609-2.076v20.077h-30.478v45.566C650.363,312.612,661.912,306.321,669.194,296.637z"/>
			<path style="fill:#EF3522;" d="M644.117,223.456c-2.226-0.305-4.493-0.476-6.804-0.476v3.732L644.117,223.456z"/>
			<path style="fill:#EF3522;" d="M669.4,249.044c0.195,0.264,0.404,0.52,0.594,0.791c0.446,0.637,0.858,1.297,1.267,1.962
				c0.233,0.375,0.47,0.748,0.688,1.131c0.356,0.621,0.685,1.256,1.009,1.898c0.234,0.465,0.462,0.934,0.679,1.408
				c0.274,0.604,0.535,1.216,0.779,1.836c0.22,0.553,0.419,1.111,0.614,1.673c0.199,0.583,0.396,1.164,0.568,1.759
				c0.191,0.646,0.351,1.308,0.507,1.967c0.129,0.543,0.267,1.077,0.373,1.629c0.153,0.787,0.26,1.59,0.365,2.393
				c0.058,0.45,0.141,0.893,0.183,1.347c0.123,1.272,0.195,2.561,0.195,3.865c0,8.993-3.01,17.261-8.028,23.935H680.9h6.136v-23.935
				c0-22.485-14.929-41.474-35.41-47.62v10.4C658.777,238.234,664.919,242.977,669.4,249.044z"/>
			<path style="fill:#FF5B45;" d="M676.478,265.098c-0.106-0.552-0.244-1.086-0.373-1.629
				C676.234,264.01,676.372,264.546,676.478,265.098z"/>
			<path style="fill:#FF5B45;" d="M677.027,268.837c-0.043-0.454-0.125-0.897-0.183-1.347
				C676.902,267.941,676.984,268.383,677.027,268.837z"/>
			<path style="fill:#FF5B45;" d="M672.958,254.827c-0.324-0.643-0.653-1.277-1.009-1.898
				C672.305,253.549,672.634,254.184,672.958,254.827z"/>
			<path style="fill:#FF5B45;" d="M671.261,251.797c-0.408-0.665-0.82-1.325-1.267-1.962
				C670.44,250.472,670.852,251.133,671.261,251.797z"/>
			<path style="fill:#FF5B45;" d="M675.599,261.502c-0.172-0.595-0.369-1.176-0.568-1.759
				C675.229,260.327,675.425,260.908,675.599,261.502z"/>
			<path style="fill:#EF3522;" d="M651.626,235.483v5.814l-14.313-6.85v32.599h30.478v-20.077c0.565,0.667,1.088,1.37,1.609,2.076
				C664.919,242.977,658.777,238.234,651.626,235.483z"/>
			<path style="fill:#FF5B45;" d="M674.416,258.071c-0.244-0.62-0.505-1.232-0.779-1.836
				C673.911,256.838,674.172,257.451,674.416,258.071z"/>
			<polygon style="fill:#00BEC5;" points="644.117,223.456 637.313,226.712 637.313,232.794 637.313,234.447 651.626,241.296 
				651.626,235.483 651.626,225.083 651.626,219.863 			"/>
		</g>
		<g>
			<path style="fill:#69E2DE;" d="M472.4,331.813c-1.499,2.348-2.676,5.294-2.972,8.982l-17.792-17.392
				c-12.689,10.25-20.94,26.84-20.94,45.575h39.648l6.034-29.666L472.4,331.813z"/>
			<path style="fill:#FFFFFF;" d="M481.551,312.612c-5.226,0-10.264,0.876-15.007,2.498l15.007,8.951V312.612z"/>
			<path style="fill:#1D1D1B;" d="M472.4,331.813l3.978,7.5l-6.034,29.666h11.206v-44.918
				C481.529,324.069,476.008,326.169,472.4,331.813z"/>
			<path style="fill:#AFC01D;" d="M472.4,331.813c3.607-5.644,9.129-7.744,9.15-7.752l0,0l-15.007-8.951
				c-5.411,1.85-10.432,4.682-14.907,8.294l17.792,17.392C469.725,337.107,470.901,334.161,472.4,331.813z"/>
			<path style="fill:#FFFFFF;" d="M481.551,280.549V258.1c-5.658-4.17-10.299-9.64-13.47-15.977
				c-1.796,13.247-12.563,23.638-25.993,24.81c-0.263,1.853-0.446,3.732-0.446,5.657c0,12.787,6.036,24.14,15.389,31.443
				C459.99,290.502,469.833,280.549,481.551,280.549z"/>
			<path style="fill:#FCD07A;" d="M471.039,295.053h10.512v-14.504c-11.718,0-21.561,9.953-24.521,23.484
				c6.771,5.287,15.266,8.466,24.521,8.466v-6.935C475.746,305.565,471.039,300.859,471.039,295.053z"/>
			<path style="fill:#FCD07A;" d="M468.081,242.124c3.171,6.337,7.811,11.807,13.47,15.977v-25.419
				c-20.116,0-36.708,14.896-39.463,34.252C455.519,265.761,466.285,255.371,468.081,242.124z"/>
			<path style="fill:#FFFFFF;" d="M481.551,305.565v-10.512h-10.512C471.039,300.859,475.746,305.565,481.551,305.565z"/>
			<path style="fill:#DCDCDC;" d="M481.554,324.061l15.005-8.951c-4.744-1.622-9.784-2.498-15.005-2.498h-0.003v11.449H481.554z"/>
			<path style="fill:#00BEC5;" d="M511.465,323.404l-17.788,17.392c-0.295-3.689-1.476-6.635-2.976-8.982l-3.979,7.5l6.038,29.666
				h39.646C532.406,350.244,524.153,333.654,511.465,323.404z"/>
			<path style="fill:#002738;" d="M490.701,331.813c-3.61-5.654-9.148-7.752-9.148-7.752h-0.003v44.918h11.21l-6.038-29.666
				L490.701,331.813z"/>
			<polygon style="fill:#FFFFFF;" points="481.551,324.061 481.554,324.061 481.551,324.061 			"/>
			<path style="fill:#7EA800;" d="M490.701,331.813c1.5,2.348,2.681,5.294,2.976,8.982l17.788-17.392
				c-4.472-3.612-9.491-6.443-14.906-8.294l-15.005,8.951C481.554,324.061,487.091,326.159,490.701,331.813z"/>
			<path style="fill:#DCDCDC;" d="M481.551,258.1v22.449c11.718,0,21.561,9.953,24.522,23.484
				c9.351-7.304,15.389-18.658,15.389-31.443c0-2.645-0.272-5.224-0.763-7.725c-4.049,1.215-8.324,1.896-12.764,1.896
				C498.056,266.761,488.935,263.54,481.551,258.1z"/>
			<path style="fill:#FFA033;" d="M481.551,280.549v14.504h10.512c0,5.806-4.706,10.512-10.512,10.512v6.935
				c9.256,0,17.751-3.179,24.522-8.466C503.111,290.502,493.269,280.549,481.551,280.549z"/>
			<path style="fill:#FFA033;" d="M507.935,266.761c4.439,0,8.715-0.681,12.764-1.896c-3.599-18.341-19.753-32.184-39.147-32.184
				V258.1C488.935,263.54,498.056,266.761,507.935,266.761z"/>
			<path style="fill:#DCDCDC;" d="M492.063,295.053h-10.512v10.512C487.356,305.565,492.063,300.859,492.063,295.053z"/>
		</g>
		<g>
			<g>
				<path style="fill:#FFFFFF;" d="M130.119,272.703c0,22.043,17.869,39.909,39.909,39.909v-79.817
					C147.988,232.794,130.119,250.661,130.119,272.703z"/>
				<path style="fill:#FFFFFF;" d="M155.376,337.665c8.091,0,14.65,6.559,14.65,14.648c0-0.013,0.002-0.024,0.002-0.039v-39.662
					h-0.002c-10.915,0-21.017,3.824-29.3,10.311v29.391C140.727,344.223,147.285,337.665,155.376,337.665z"/>
				<path style="fill:#FF5B45;" d="M170.026,352.313c0-8.09-6.56-14.648-14.65-14.648c-8.091,0-14.649,6.559-14.649,14.648v-29.391
					c-13.035,10.207-21.554,27.023-21.554,46.057h21.554h29.302v-16.705C170.028,352.289,170.026,352.3,170.026,352.313z"/>
				<path style="fill:#DCDCDC;" d="M209.938,272.703c0-22.042-17.869-39.908-39.909-39.908v79.817
					C192.068,312.612,209.938,294.746,209.938,272.703z"/>
				<path style="fill:#DCDCDC;" d="M184.676,337.665c8.092,0,14.65,6.559,14.65,14.648V322.92
					c-8.283-6.486-18.383-10.309-29.298-10.309v39.662C170.05,344.204,176.6,337.665,184.676,337.665z"/>
				<path style="fill:#EF3522;" d="M199.326,322.92v29.393c0-8.09-6.559-14.648-14.65-14.648c-8.076,0-14.626,6.539-14.648,14.609
					v16.705h29.298h21.557C220.883,349.944,212.362,333.125,199.326,322.92z"/>
			</g>
			<path style="fill:#002738;" d="M227.574,255.554c0-9.18-7.074-16.671-16.063-17.415c-4.69-8.816-18.748-16.378-36.102-18.419
				c-22.224-2.614-41.36,4.808-42.747,16.576c-0.105,0.908-0.157,3.489-0.223,3.956c-0.801-0.113-1.611-0.191-2.445-0.191
				c-9.673,0-17.516,7.841-17.516,17.514c0,7.361,4.545,13.648,10.977,16.239c-1.622,1.889-2.637,4.311-2.637,6.995
				c0,5.96,4.831,10.79,10.791,10.79c5.959,0,10.79-4.83,10.79-10.79c0-3.224-1.442-6.084-3.683-8.061
				c5.16-2.974,8.657-8.493,8.773-14.853c0.091,0.003,0.18,0.015,0.27,0.015c3.466,0,6.652-1.152,9.233-3.074
				c3.023,10.834,14.465,18.904,28.15,18.904c5.557,0,10.729-1.352,15.137-3.655c1.208,0.814,2.532,1.466,3.93,1.96
				c-2.738,1.958-4.535,5.143-4.535,8.764c0,5.96,4.83,10.79,10.79,10.79c5.96,0,10.79-4.83,10.79-10.79
				c0-3.739-1.904-7.029-4.791-8.967C222.967,269.285,227.574,262.964,227.574,255.554z"/>
		</g>
		<g>
			<path style="fill:none;" d="M479.126,435.035c-0.413-0.377-0.816-0.763-1.212-1.15c0.655,0.643,1.334,1.267,2.028,1.872v-0.012
				c-0.128-0.112-0.265-0.215-0.393-0.33C479.407,435.29,479.266,435.164,479.126,435.035z"/>
			<path style="fill:none;" d="M457.644,441.009c-0.126,0.103-0.249,0.207-0.377,0.305c-0.592,0.459-1.203,0.893-1.83,1.306
				c-0.073,0.049-0.148,0.095-0.224,0.142c1.359-0.88,2.641-1.866,3.838-2.946C458.595,440.227,458.127,440.626,457.644,441.009z"/>
			<path style="fill:none;" d="M465.699,431.185c-0.45,0.871-0.928,1.725-1.457,2.544c-0.391,0.61-0.813,1.2-1.246,1.778
				c0.452-0.603,0.892-1.216,1.298-1.85C464.803,432.86,465.263,432.029,465.699,431.185z"/>
			<path style="fill:none;" d="M462.585,436.035c-0.402,0.514-0.82,1.014-1.257,1.5c-0.04,0.044-0.077,0.091-0.117,0.135
				c0.55-0.605,1.07-1.237,1.572-1.887C462.715,435.866,462.652,435.953,462.585,436.035z"/>
			<path style="fill:none;" d="M461.096,437.803c-0.504,0.546-1.031,1.073-1.569,1.579
				C460.067,438.874,460.592,438.351,461.096,437.803z"/>
			<path style="fill:none;" d="M465.865,430.891c0.408-0.815,0.761-1.661,1.098-2.516
				C466.626,429.229,466.275,430.075,465.865,430.891z"/>
			<path style="fill:none;" d="M467.178,427.88c0.298-0.799,0.532-1.625,0.763-2.453C467.71,426.255,467.476,427.082,467.178,427.88
				z"/>
			<path style="fill:none;" d="M468.162,424.713c0.271-1.08,0.483-2.182,0.635-3.302
				C468.645,422.531,468.433,423.633,468.162,424.713z"/>
			<path style="fill:none;" d="M440.355,447.573c0.814-0.041,1.616-0.127,2.411-0.232
				C441.972,447.446,441.168,447.532,440.355,447.573z"/>
			<path style="fill:none;" d="M445.471,446.861c-0.683,0.153-1.376,0.282-2.074,0.389c-0.123,0.018-0.245,0.035-0.367,0.053
				c0.86-0.12,1.711-0.271,2.548-0.463C445.542,446.846,445.506,446.853,445.471,446.861z"/>
			<path style="fill:none;" d="M445.78,446.799c0.758-0.18,1.5-0.396,2.234-0.628C447.28,446.403,446.538,446.617,445.78,446.799z"
				/>
			<path style="fill:none;" d="M448.582,445.977c-0.146,0.052-0.292,0.1-0.437,0.148c0.763-0.246,1.511-0.525,2.244-0.831
				C449.796,445.542,449.194,445.768,448.582,445.977z"/>
			<path style="fill:none;" d="M453.365,443.861c-0.163,0.091-0.323,0.184-0.489,0.271c-0.668,0.354-1.354,0.683-2.052,0.987
				c1.436-0.622,2.808-1.36,4.116-2.188C454.426,443.258,453.9,443.567,453.365,443.861z"/>
			<path style="fill:#FFFFFF;" d="M477.914,433.885c-0.079-0.077-0.159-0.148-0.236-0.226c0,0-0.002-0.001-0.005-0.003
				c-3.575-3.564-6.592-7.686-8.876-12.245c-0.151,1.12-0.364,2.222-0.635,3.302c-0.061,0.242-0.154,0.473-0.222,0.714
				c-0.23,0.828-0.465,1.654-0.763,2.453c-0.063,0.17-0.148,0.325-0.215,0.495c-0.337,0.854-0.69,1.7-1.098,2.516
				c-0.052,0.101-0.115,0.193-0.166,0.294c-0.436,0.845-0.897,1.676-1.405,2.472c-0.406,0.635-0.846,1.248-1.298,1.85
				c-0.005,0.006-0.009,0.012-0.012,0.016c-0.068,0.087-0.135,0.174-0.201,0.261c-0.502,0.649-1.023,1.281-1.572,1.887
				c-0.035,0.042-0.072,0.087-0.109,0.128c-0.002,0.002-0.004,0.004-0.006,0.005c-0.504,0.548-1.028,1.071-1.569,1.579
				c-0.004,0.005-0.006,0.007-0.008,0.009c-0.15,0.142-0.306,0.277-0.46,0.419c-0.001,0.001-0.006,0.003-0.008,0.005
				c-1.197,1.08-2.478,2.066-3.838,2.946c-0.085,0.051-0.17,0.106-0.253,0.16c-0.006,0.004-0.012,0.008-0.02,0.011
				c-1.309,0.827-2.68,1.565-4.116,2.188c0,0-0.002,0.002-0.004,0.002c-0.141,0.06-0.284,0.114-0.429,0.173
				c-0.002,0-0.002,0-0.002,0c-0.733,0.306-1.481,0.585-2.244,0.831c-0.042,0.014-0.084,0.03-0.128,0.044c0,0-0.002,0-0.003,0.002
				c-0.734,0.232-1.477,0.448-2.234,0.628c-0.006,0-0.01,0.003-0.016,0.003c-0.061,0.015-0.125,0.026-0.188,0.038
				c-0.837,0.191-1.688,0.343-2.548,0.463c-0.085,0.013-0.17,0.026-0.257,0.038c-0.002,0-0.004,0-0.006,0
				c-0.795,0.105-1.597,0.191-2.411,0.232c2.392,19.756,19.188,35.073,39.587,35.073v-46.89
				C479.248,435.151,478.569,434.528,477.914,433.885z"/>
			<path style="fill:#FCD07A;" d="M479.942,482.802v-0.155c-20.399,0-37.195-15.317-39.587-35.073
				c0.813-0.041,1.616-0.127,2.411-0.232c0.089-0.01,0.177-0.025,0.263-0.038c0.122-0.018,0.244-0.035,0.367-0.053
				c0.698-0.106,1.392-0.235,2.074-0.389c0.035-0.009,0.071-0.016,0.106-0.021c0.067-0.017,0.136-0.025,0.203-0.041
				c0.758-0.182,1.5-0.396,2.234-0.628c0.045-0.016,0.086-0.032,0.131-0.046c0.145-0.049,0.291-0.097,0.437-0.148
				c0.612-0.209,1.214-0.435,1.808-0.683c0.145-0.059,0.293-0.113,0.435-0.175c0.698-0.305,1.384-0.633,2.052-0.987
				c0.166-0.087,0.326-0.18,0.489-0.271c0.535-0.294,1.061-0.603,1.575-0.93c0.091-0.057,0.182-0.113,0.272-0.171
				c0.075-0.047,0.15-0.093,0.224-0.142c0.627-0.413,1.238-0.847,1.83-1.306c0.128-0.098,0.251-0.202,0.377-0.305
				c0.483-0.383,0.951-0.782,1.407-1.194c0.16-0.145,0.317-0.284,0.476-0.433c0.538-0.506,1.065-1.033,1.569-1.579
				c0.039-0.042,0.077-0.091,0.115-0.133c0.04-0.044,0.077-0.091,0.117-0.135c0.436-0.486,0.854-0.986,1.257-1.5
				c0.067-0.082,0.13-0.169,0.198-0.252c0.07-0.094,0.142-0.185,0.213-0.276c0.434-0.578,0.855-1.168,1.246-1.778
				c0.529-0.819,1.007-1.673,1.457-2.544c0.051-0.101,0.114-0.193,0.166-0.294c0.41-0.815,0.761-1.661,1.098-2.516
				c0.066-0.17,0.151-0.325,0.215-0.495c0.298-0.798,0.532-1.625,0.763-2.453c0.067-0.241,0.16-0.472,0.222-0.714
				c0.271-1.08,0.483-2.182,0.635-3.302c2.284,4.56,5.301,8.682,8.876,12.245c0.08,0.078,0.162,0.149,0.241,0.228
				c0.396,0.388,0.799,0.773,1.212,1.15c0.14,0.129,0.281,0.255,0.424,0.38c0.128,0.115,0.265,0.218,0.393,0.33v-38.361
				c-22.454,0-41.087,16.324-44.706,37.75c-0.504,0.725-1.367,1.336-2.806,2.228c-2.377,1.475-5.632,3.493-6.183,8.143
				c-0.551,4.65,2.143,7.374,4.11,9.364c1.895,1.913,2.591,2.787,2.403,4.386c-0.189,1.599-1.071,2.285-3.358,3.704
				c-2.378,1.475-5.632,3.495-6.183,8.143c-0.551,4.65,2.143,7.375,4.11,9.365c1.893,1.914,2.592,2.788,2.401,4.389
				c-0.189,1.598-1.071,2.284-3.358,3.703c-2.378,1.473-5.634,3.491-6.185,8.142c-0.551,4.65,2.144,7.377,4.11,9.365
				c1.893,1.916,2.592,2.791,2.401,4.391c-0.191,1.605-1.073,2.293-3.362,3.715c-2.375,1.477-5.632,3.498-6.18,8.152
				c-0.551,4.652,2.141,7.379,4.108,9.369c1.892,1.916,8.01,5.869,7.819,7.477C429.087,508.039,451.853,482.804,479.942,482.802z"/>
			<path style="fill:#FCD07A;" d="M455.213,442.761c-0.091,0.058-0.182,0.114-0.272,0.171c0.008-0.003,0.014-0.007,0.02-0.011
				C455.043,442.867,455.128,442.811,455.213,442.761z"/>
			<path style="fill:#FCD07A;" d="M459.519,439.391c0.002-0.002,0.004-0.004,0.008-0.009c-0.158,0.148-0.316,0.288-0.476,0.433
				c0.002-0.002,0.007-0.004,0.008-0.005C459.213,439.668,459.368,439.532,459.519,439.391z"/>
			<path style="fill:#FCD07A;" d="M461.211,437.67c-0.038,0.042-0.076,0.091-0.115,0.133c0.002-0.001,0.004-0.003,0.006-0.005
				C461.139,437.757,461.176,437.712,461.211,437.67z"/>
			<path style="fill:#FCD07A;" d="M477.914,433.885c-0.079-0.079-0.161-0.15-0.241-0.228c0.003,0.002,0.005,0.003,0.005,0.003
				C477.755,433.736,477.835,433.808,477.914,433.885z"/>
			<path style="fill:#FCD07A;" d="M450.82,445.121c0.002,0,0.004-0.002,0.004-0.002c-0.142,0.062-0.29,0.116-0.435,0.175
				c0,0,0,0,0.002,0C450.536,445.235,450.68,445.181,450.82,445.121z"/>
			<path style="fill:#FCD07A;" d="M462.996,435.507c-0.071,0.092-0.143,0.183-0.213,0.276c0.066-0.087,0.133-0.174,0.201-0.261
				C462.987,435.519,462.991,435.513,462.996,435.507z"/>
			<path style="fill:#FCD07A;" d="M467.94,425.427c0.067-0.241,0.16-0.472,0.222-0.714
				C468.101,424.955,468.008,425.185,467.94,425.427z"/>
			<path style="fill:#FCD07A;" d="M466.963,428.375c0.066-0.17,0.151-0.325,0.215-0.495
				C467.114,428.05,467.029,428.205,466.963,428.375z"/>
			<path style="fill:#FCD07A;" d="M448.145,446.125c-0.045,0.014-0.086,0.03-0.131,0.046c0.001-0.002,0.003-0.002,0.003-0.002
				C448.061,446.155,448.103,446.139,448.145,446.125z"/>
			<path style="fill:#FCD07A;" d="M465.699,431.185c0.051-0.101,0.114-0.193,0.166-0.294
				C465.813,430.991,465.75,431.084,465.699,431.185z"/>
			<path style="fill:#FCD07A;" d="M445.78,446.799c-0.067,0.016-0.136,0.024-0.203,0.041c0.063-0.012,0.126-0.023,0.188-0.038
				C445.77,446.802,445.774,446.799,445.78,446.799z"/>
			<path style="fill:#FCD07A;" d="M443.029,447.303c-0.086,0.013-0.174,0.028-0.263,0.038c0.002,0,0.004,0,0.006,0
				C442.859,447.329,442.944,447.315,443.029,447.303z"/>
			<path style="fill:#FFFFFF;" d="M465.293,507.853c8.09,0,14.649,6.559,14.649,14.649v-39.7
				c-28.089,0.002-50.855,25.237-50.855,56.366h21.556v-16.666C450.643,514.412,457.202,507.853,465.293,507.853z"/>
			<path style="fill:#FF5B45;" d="M465.293,507.853c-8.091,0-14.65,6.559-14.65,14.649v16.666h29.3v-16.666
				C479.942,514.412,473.383,507.853,465.293,507.853z"/>
			<path style="fill:#FFFFFF;" d="M498.196,445.626c0.623,0.173,1.251,0.333,1.887,0.481
				C499.447,445.958,498.819,445.797,498.196,445.626z"/>
			<path style="fill:#FFFFFF;" d="M481.697,437.218c-0.598-0.476-1.181-0.969-1.755-1.473v0.012
				C480.516,436.257,481.1,436.743,481.697,437.218z"/>
			<path style="fill:#FFFFFF;" d="M506.861,447.172c-0.801-0.066-1.597-0.153-2.386-0.26c-0.201-0.025-0.401-0.047-0.601-0.075
				c1.094,0.162,2.199,0.275,3.314,0.359C507.081,447.189,506.97,447.181,506.861,447.172z"/>
			<path style="fill:#FFFFFF;" d="M507.718,447.236c1.002,0.064,2.011,0.108,3.029,0.108
				C509.728,447.345,508.72,447.3,507.718,447.236z"/>
			<path style="fill:#FFFFFF;" d="M501.017,446.322c0.921,0.195,1.852,0.368,2.796,0.508
				C502.871,446.69,501.939,446.518,501.017,446.322z"/>
			<path style="fill:#FFFFFF;" d="M487.225,440.991c-0.282-0.164-0.568-0.324-0.845-0.494c-0.502-0.306-0.99-0.621-1.476-0.945
				c-0.233-0.154-0.463-0.312-0.691-0.47c-0.77-0.528-1.516-1.083-2.249-1.655c2.373,1.853,4.93,3.482,7.635,4.856
				C488.793,441.874,488.002,441.444,487.225,440.991z"/>
			<path style="fill:#FFFFFF;" d="M489.626,442.299c0.393,0.198,0.784,0.397,1.182,0.584
				C490.412,442.696,490.019,442.499,489.626,442.299z"/>
			<path style="fill:#FFFFFF;" d="M494.661,444.503c-0.358-0.132-0.71-0.28-1.064-0.42c-0.497-0.195-0.993-0.398-1.48-0.608
				c1.63,0.709,3.308,1.33,5.026,1.852C496.309,445.073,495.477,444.803,494.661,444.503z"/>
			<path style="fill:#DCDCDC;" d="M479.942,482.647c20.785,0,37.843-15.894,39.723-36.191c-2.892,0.559-5.863,0.89-8.918,0.89
				c-1.019,0-2.027-0.045-3.029-0.108c-0.002,0-0.007,0-0.008,0c-0.176-0.012-0.348-0.025-0.521-0.04
				c-1.115-0.084-2.221-0.197-3.314-0.359c-0.02-0.003-0.039-0.003-0.061-0.007c-0.002,0-0.002,0-0.002,0
				c-0.943-0.14-1.875-0.313-2.796-0.508c-0.003,0-0.003,0-0.005,0c-0.302-0.064-0.599-0.138-0.899-0.206
				c-0.01-0.003-0.02-0.007-0.029-0.009c-0.636-0.148-1.264-0.309-1.887-0.481c-0.012-0.004-0.022-0.004-0.031-0.008
				c-0.34-0.095-0.681-0.189-1.019-0.29c0,0-0.002,0-0.004-0.002c-1.719-0.522-3.396-1.143-5.026-1.852
				c-0.006-0.004-0.012-0.006-0.018-0.008c-0.433-0.189-0.86-0.383-1.287-0.582c0,0-0.002-0.002-0.004-0.002
				c-0.397-0.187-0.789-0.386-1.182-0.584c-0.006-0.004-0.012-0.008-0.018-0.01c-0.004-0.002-0.006-0.004-0.01-0.006
				c-2.705-1.374-5.262-3.004-7.635-4.856c-0.089-0.069-0.178-0.141-0.267-0.209c-0.598-0.475-1.182-0.961-1.755-1.461V482.647z"/>
			<path style="fill:#FFA033;" d="M538.618,531.691c1.968-1.99,4.659-4.717,4.108-9.369c-0.548-4.654-3.805-6.676-6.18-8.152
				c-2.289-1.422-3.172-2.109-3.363-3.715c-0.19-1.6,0.509-2.475,2.402-4.391c1.967-1.988,4.66-4.715,4.109-9.365
				c-0.55-4.65-3.806-6.669-6.185-8.142c-2.286-1.419-3.169-2.105-3.357-3.703c-0.19-1.601,0.508-2.475,2.401-4.389
				c1.967-1.99,4.661-4.715,4.109-9.365c-0.55-4.647-3.804-6.668-6.182-8.143c-2.287-1.419-3.169-2.105-3.358-3.704
				c-0.188-1.599,0.509-2.473,2.403-4.386c1.968-1.99,4.66-4.714,4.11-9.364c-0.551-4.649-3.808-6.668-6.183-8.143
				c-1.415-0.876-2.289-1.474-2.796-2.179c-3.6-21.45-22.244-37.799-44.717-37.799v38.361c0.574,0.504,1.157,0.997,1.755,1.473
				c0.089,0.068,0.178,0.14,0.267,0.209c0.733,0.572,1.479,1.127,2.249,1.655c0.228,0.158,0.458,0.315,0.691,0.47
				c0.485,0.324,0.974,0.64,1.476,0.945c0.276,0.17,0.563,0.33,0.845,0.494c0.777,0.453,1.568,0.883,2.374,1.292
				c0.01,0.006,0.018,0.01,0.027,0.016c0.393,0.2,0.786,0.397,1.182,0.584c0.433,0.206,0.869,0.401,1.309,0.592
				c0.487,0.211,0.983,0.413,1.48,0.608c0.355,0.14,0.706,0.288,1.064,0.42c0.815,0.3,1.647,0.57,2.481,0.823
				c0.35,0.106,0.702,0.2,1.054,0.3c0.623,0.171,1.251,0.332,1.887,0.481c0.31,0.073,0.619,0.15,0.934,0.215
				c0.923,0.195,1.854,0.368,2.796,0.508c0.022,0.004,0.043,0.004,0.063,0.007c0.199,0.028,0.399,0.05,0.601,0.075
				c0.789,0.106,1.585,0.193,2.386,0.26c0.108,0.009,0.22,0.017,0.328,0.024c0.175,0.013,0.353,0.028,0.528,0.04
				c1.002,0.064,2.011,0.108,3.029,0.108c3.055,0,6.026-0.33,8.918-0.89c-1.88,20.298-18.938,36.191-39.723,36.191v0.155h0.002
				c28.085,0,50.854,25.235,50.854,56.366C530.608,537.56,536.726,533.607,538.618,531.691z"/>
			<path style="fill:#FFFFFF;" d="M481.697,437.218c0.089,0.068,0.178,0.14,0.267,0.209
				C481.875,437.357,481.786,437.286,481.697,437.218z"/>
			<path style="fill:#FFFFFF;" d="M489.626,442.299c-0.01-0.006-0.018-0.01-0.027-0.016c0.004,0.002,0.006,0.004,0.01,0.006
				C489.614,442.291,489.62,442.295,489.626,442.299z"/>
			<path style="fill:#FFFFFF;" d="M498.165,445.618c0.009,0.004,0.02,0.004,0.031,0.008c-0.352-0.1-0.704-0.193-1.054-0.3
				c0.002,0.002,0.004,0.002,0.004,0.002C497.484,445.429,497.825,445.523,498.165,445.618z"/>
			<path style="fill:#FFFFFF;" d="M492.099,443.467c0.006,0.002,0.012,0.004,0.018,0.008c-0.439-0.19-0.876-0.386-1.309-0.592
				c0.002,0,0.004,0.002,0.004,0.002C491.238,443.084,491.666,443.278,492.099,443.467z"/>
			<path style="fill:#FFFFFF;" d="M501.012,446.322c0.002,0,0.002,0,0.005,0c-0.315-0.064-0.624-0.142-0.934-0.215
				c0.009,0.002,0.019,0.006,0.029,0.009C500.413,446.185,500.71,446.258,501.012,446.322z"/>
			<path style="fill:#FFFFFF;" d="M507.718,447.236c-0.176-0.012-0.353-0.027-0.528-0.04c0.173,0.015,0.345,0.028,0.521,0.04
				C507.711,447.236,507.716,447.236,507.718,447.236z"/>
			<path style="fill:#FFFFFF;" d="M503.875,446.837c-0.02-0.003-0.041-0.003-0.063-0.007c0,0,0,0,0.002,0
				C503.836,446.834,503.855,446.834,503.875,446.837z"/>
			<path style="fill:#DCDCDC;" d="M479.944,482.802h-0.002v39.7c0-8.09,6.561-14.649,14.65-14.649c8.091,0,14.65,6.559,14.65,14.649
				v16.666h21.556C530.799,508.037,508.029,482.802,479.944,482.802z"/>
			<path style="fill:#EF3522;" d="M494.593,507.853c-8.09,0-14.65,6.559-14.65,14.649v16.666h29.301v-16.666
				C509.243,514.412,502.684,507.853,494.593,507.853z"/>
		</g>
		<g>
			<path style="fill:#FF5B45;" d="M321.83,513.834c-13.525,0-24.998-8.668-29.249-20.742c-13.06,10.203-21.607,27.021-21.607,46.076
				h51.283v-25.352C322.114,513.818,321.975,513.834,321.83,513.834z"/>
			<path style="fill:#FCD07A;" d="M321.83,513.834c0.145,0,0.284-0.016,0.428-0.018v-7.996c-0.143,0.002-0.283,0.018-0.428,0.018
				c-10.75,0-19.757-7.377-22.297-17.337c-2.438,1.32-4.752,2.873-6.952,4.591C296.832,505.166,308.305,513.834,321.83,513.834z"/>
			<path style="fill:#FFFFFF;" d="M321.83,505.838c0.145,0,0.284-0.016,0.428-0.018v-23.005c-0.143-0.002-0.283-0.014-0.428-0.014
				c-8,0-15.563,2.053-22.297,5.699C302.073,498.461,311.08,505.838,321.83,505.838z"/>
			<path style="fill:#EF3522;" d="M351.079,493.092c-4.206,11.945-15.483,20.543-28.821,20.725v25.352h50.428
				C372.685,520.113,364.139,503.295,351.079,493.092z"/>
			<path style="fill:#FFA033;" d="M322.258,505.82v7.996c13.338-0.182,24.615-8.779,28.821-20.725
				c-2.2-1.718-4.515-3.271-6.952-4.591C341.621,498.328,332.817,505.625,322.258,505.82z"/>
			<path style="fill:#DCDCDC;" d="M344.127,488.501c-6.613-3.582-14.028-5.614-21.869-5.686v23.005
				C332.817,505.625,341.621,498.328,344.127,488.501z"/>
			<g>
				<path style="fill:#00BEC5;" d="M356.964,487.079c0-2.789-1.181-5.284-3.039-7.045c1.858-1.766,3.039-4.26,3.039-7.05
					c0-5.335-4.253-9.661-9.5-9.661c-5.245,0-9.497,4.326-9.497,9.661c0,2.79,1.18,5.284,3.038,7.05
					c-1.858,1.761-3.038,4.256-3.038,7.045c0,3.042,1.406,5.721,3.564,7.489c-1.35,1.477-2.191,3.439-2.191,5.613
					c0,3.176,1.779,5.902,4.363,7.287c-1.224,1.08-2.016,2.65-2.016,4.426c0,3.244,2.588,5.877,5.776,5.877
					c3.192,0,5.778-2.633,5.778-5.877c0-1.775-0.789-3.35-2.016-4.426c2.584-1.385,4.363-4.111,4.363-7.287
					c0-2.174-0.842-4.137-2.192-5.613C355.555,492.8,356.964,490.121,356.964,487.079z"/>
				<path style="fill:#00BEC5;" d="M341.688,523.648c0,0.9,0.215,1.746,0.574,2.51c1.357,7.059-0.574,9.754-0.574,9.754
					c11.832,0,11.555-12.264,11.555-12.264c0-3.246-2.586-5.877-5.778-5.877C344.275,517.771,341.688,520.402,341.688,523.648z"/>
			</g>
			<g>
				<path style="fill:#FFFFFF;" d="M282.055,440.083c-0.059,0.88-0.134,1.758-0.134,2.654c0,22.041,17.867,39.909,39.909,39.909
					c0.145,0,0.284-0.021,0.428-0.023v-42.541H282.055z"/>
				<path style="fill:#69E2DE;" d="M322.258,402.848c-0.143,0-0.283-0.021-0.428-0.021c-21.146,0-38.403,16.457-39.775,37.256
					h40.203V402.848z"/>
				<path style="fill:#DCDCDC;" d="M361.739,442.737c0-0.897-0.075-1.774-0.134-2.654h-39.348v42.541
					C344.098,482.392,361.739,464.636,361.739,442.737z"/>
				<path style="fill:#00BEC5;" d="M361.605,440.083c-1.361-20.658-18.402-37.01-39.348-37.235v37.235H361.605z"/>
			</g>
		</g>
		<g>
			<path style="fill:#FFFFFF;" d="M163.717,482.802c-5.225,0-10.263,0.876-15.007,2.498l15.007,8.95V482.802z"/>
			<path style="fill:#AFC01D;" d="M154.566,502.002c-1.499,2.348-2.676,5.295-2.971,8.982l-17.793-17.391
				c-12.688,10.25-20.94,26.84-20.94,45.574h39.648h11.206V494.25C163.695,494.258,158.174,496.359,154.566,502.002z"/>
			<path style="fill:#7EA800;" d="M154.566,502.002c3.607-5.643,9.129-7.744,9.15-7.752l0,0l-15.007-8.95
				c-5.411,1.852-10.431,4.682-14.907,8.294l17.793,17.391C151.891,507.297,153.067,504.35,154.566,502.002z"/>
			<path style="fill:#FFFFFF;" d="M151.954,440.239l-0.315-18.627l-2.877,18.627h-9.098l1.852-18.627l-4.713,18.627h-12.858
				c-0.06,0.881-0.134,1.758-0.134,2.653c0,22.043,17.867,39.909,39.906,39.909v-42.563H151.954z"/>
			<path style="fill:#002738;" d="M141.516,421.612l-1.852,18.627h9.098l2.877-18.627l0.315,18.627h11.763v-37.255
				c-21.144,0-38.402,16.456-39.772,37.255h12.858L141.516,421.612z"/>
			<polygon style="fill:#00BEC5;" points="163.717,482.802 163.717,482.802 163.719,482.802 			"/>
			<path style="fill:#DCDCDC;" d="M163.719,494.25l15.006-8.95c-4.744-1.622-9.783-2.498-15.006-2.498h-0.002v11.448H163.719z"/>
			<path style="fill:#7EA800;" d="M193.631,493.594l-17.787,17.391c-0.296-3.688-1.477-6.635-2.977-8.982
				c-3.61-5.654-9.148-7.752-9.148-7.752h-0.002v44.918h11.211h39.645C214.572,520.434,206.32,503.844,193.631,493.594z"/>
			<polygon style="fill:#00BEC5;" points="163.717,494.25 163.719,494.25 163.717,494.25 			"/>
			<path style="fill:#AFC01D;" d="M172.867,502.002c1.5,2.348,2.681,5.295,2.977,8.982l17.787-17.391
				c-4.471-3.612-9.491-6.442-14.906-8.294l-15.006,8.95C163.719,494.25,169.257,496.348,172.867,502.002z"/>
			<path style="fill:#DCDCDC;" d="M203.629,442.893c0-0.896-0.076-1.773-0.135-2.653h-10.23l-4.598-18.627l1.516,18.627h-7.917
				l-2.017-18.692l0.446,18.692h-7.854l-1.854-18.627l-0.841,18.627h-6.428v42.563h0.002
				C185.758,482.802,203.629,464.935,203.629,442.893z"/>
			<path style="fill:#002738;" d="M170.145,440.239l0.841-18.627l1.854,18.627h7.854l-0.446-18.692l2.017,18.692h7.917
				l-1.516-18.627l4.598,18.627h10.23c-1.373-20.799-18.633-37.255-39.775-37.255h-0.002v37.255H170.145z"/>
		</g>
		<g>
			<path style="fill:#002738;" d="M346.306,665.199c-0.036,0.09-8.028,19.762-24.694,26.145
				c-16.668-6.383-24.659-26.055-24.695-26.145c-15.601,9.627-26.162,28.08-26.162,49.275h101.711
				C372.465,693.279,361.906,674.826,346.306,665.199z"/>
			<g>
				<path style="fill:#FFFFFF;" d="M337.291,714.707l-1.965-0.465c0.967-4.07,2.498-10.902,2.498-11.92
					c0-0.162,0.012-0.334,0.02-0.516c0.074-1.232,0.186-3.092-6.417-5.414c-8.178-2.875-13.411-7.518-13.632-7.715l1.35-1.506
					c0.051,0.047,5.174,4.58,12.953,7.314c7.416,2.607,7.896,5.207,7.764,7.439c-0.008,0.141-0.017,0.272-0.017,0.397
					C339.845,703.879,337.718,712.912,337.291,714.707z"/>
			</g>
			<path style="fill:#FFFFFF;" d="M332.772,704.596c0,1.396-1.129,2.527-2.526,2.527c-1.393,0-2.525-1.131-2.525-2.527
				c0-1.395,1.133-2.525,2.525-2.525C331.644,702.07,332.772,703.201,332.772,704.596z"/>
			<g>
				<path style="fill:#FFFFFF;" d="M321.607,593.519c-3.43,5.233-9.338,8.693-16.06,8.693c-2.933,0-5.698-0.676-8.186-1.854
					c-0.269,8.176-6.962,14.729-15.206,14.729c-0.104,0-0.197-0.016-0.301-0.016c-0.082,1.039-0.157,2.078-0.157,3.139
					c0,21.996,17.796,39.828,39.771,39.9c0.047,0,0.091-0.004,0.139-0.004V593.519z"/>
				<path style="fill:#FFFFFF;" d="M321.469,658.111c-8.912,0.027-17.279,2.602-24.553,7.088c0.036,0.09,8.024,19.758,24.691,26.143
					v-33.223C321.56,658.119,321.516,658.111,321.469,658.111z"/>
				<path style="fill:#FFFFFF;" d="M321.607,658.107c-0.048,0-0.092,0.004-0.139,0.004c0.047,0,0.091,0.008,0.139,0.008V658.107z"/>
				<path style="fill:#FF5B45;" d="M305.548,563.82c-10.601,0-19.196,8.592-19.196,19.195c0,0.76,0.055,1.506,0.142,2.242
					c-1.374-0.408-2.83-0.635-4.337-0.635c-8.415,0-15.23,6.822-15.23,15.231c0,8.309,6.658,15.057,14.93,15.219
					c0.104,0,0.197,0.016,0.301,0.016c8.244,0,14.938-6.553,15.206-14.729c2.487,1.178,5.253,1.854,8.186,1.854
					c6.722,0,12.63-3.461,16.06-8.693v-0.002c-1.982-3.02-3.139-6.623-3.139-10.502c0-1.582,0.214-3.111,0.572-4.584
					c0.854-0.055,1.697-0.129,2.566-0.129v-5.789v-0.002C318.178,567.281,312.27,563.82,305.548,563.82z"/>
				<path style="fill:#FF5B45;" d="M321.607,593.518v-15.215c-0.869,0-1.713,0.074-2.566,0.129
					c-0.358,1.473-0.572,3.002-0.572,4.584C318.469,586.894,319.625,590.498,321.607,593.518z"/>
				<path style="fill:#DCDCDC;" d="M345.852,600.359c-2.486,1.178-5.253,1.854-8.186,1.854c-6.725,0-12.629-3.461-16.059-8.693l0,0
					v64.588c0,0,0,0,0.004,0c0.043,0,0.086,0.004,0.134,0.004c21.976-0.074,39.771-17.906,39.771-39.9c0-1.06-0.078-2.1-0.158-3.139
					c-0.102,0-0.2,0.016-0.303,0.016C352.81,615.088,346.119,608.535,345.852,600.359z"/>
				<path style="fill:#DCDCDC;" d="M346.306,665.199c-7.278-4.486-15.648-7.061-24.561-7.088c-0.048,0-0.091,0.008-0.138,0.008
					v33.223c0,0,0,0.002,0.004,0.002C338.277,684.961,346.27,665.289,346.306,665.199z"/>
				<path style="fill:#FFFFFF;" d="M321.607,658.107v0.012c0.047,0,0.09-0.008,0.138-0.008c-0.048,0-0.091-0.004-0.134-0.004
					C321.607,658.107,321.607,658.107,321.607,658.107z"/>
				<polygon style="fill:#FFFFFF;" points="321.607,572.512 321.607,572.512 321.607,572.514 				"/>
				<polygon style="fill:#FFFFFF;" points="321.607,593.518 321.607,593.519 321.607,593.519 				"/>
				<path style="fill:#EF3522;" d="M361.055,584.623c-1.508,0-2.961,0.227-4.338,0.635c0.087-0.736,0.143-1.482,0.143-2.242
					c0-10.604-8.592-19.195-19.193-19.195c-6.725,0-12.629,3.461-16.059,8.691v0.002v5.789v15.215v0.002
					c3.43,5.233,9.334,8.693,16.059,8.693c2.933,0,5.699-0.676,8.186-1.854c0.267,8.176,6.958,14.729,15.203,14.729
					c0.103,0,0.201-0.016,0.303-0.016c8.273-0.162,14.932-6.91,14.932-15.219C376.289,591.445,369.469,584.623,361.055,584.623z"/>
			</g>
		</g>
		<g>
			<path style="fill:#002738;" d="M530.494,577.021c-0.34,4.379-4.381,11.449-13.581,12.459c-6.173,0.676-12.31-1.637-15.692-3.236
				c-6.602-4.84-14.728-7.723-23.541-7.723c-20.116,0-36.709,14.898-39.464,34.254c13.431-1.174,24.197-11.563,25.993-24.811
				c7.313,14.608,22.405,24.637,39.854,24.637c4.439,0,8.714-0.68,12.764-1.895c-0.017-0.08-0.044-0.156-0.06-0.238
				C538.348,602.463,530.494,577.021,530.494,577.021z"/>
			<path style="fill:#00BEC5;" d="M477.521,670.295c6.074,0,11.079-4.533,11.84-10.402c4.776,1.264,9.271,3.313,13.42,5.951v48.863
				h-25.374v-44.424C477.446,670.285,477.482,670.295,477.521,670.295z"/>
			<g>
				<polygon style="fill:none;" points="458.976,641.119 458.987,641.109 458.984,641.111 				"/>
				<path style="fill:none;" d="M455.195,644.912c-0.009,0.012-0.016,0.025-0.027,0.037
					C455.18,644.938,455.186,644.924,455.195,644.912z"/>
				<path style="fill:none;" d="M461.005,639.631c-0.052,0.035-0.107,0.066-0.158,0.102
					C460.898,639.697,460.953,639.666,461.005,639.631z"/>
				<path style="fill:none;" d="M456.845,643.07c0.099-0.102,0.201-0.203,0.304-0.303
					C457.046,642.867,456.947,642.969,456.845,643.07z"/>
				<path style="fill:none;" d="M463.186,638.322c-0.153,0.084-0.308,0.164-0.457,0.25
					C462.879,638.486,463.033,638.406,463.186,638.322z"/>
				<path style="fill:none;" d="M472.683,635.143c-0.252,0.039-0.505,0.08-0.758,0.125
					C472.178,635.223,472.431,635.182,472.683,635.143z"/>
				<path style="fill:none;" d="M475.095,634.856c-0.245,0.017-0.481,0.047-0.723,0.072
					C474.613,634.902,474.85,634.873,475.095,634.856z"/>
				<path style="fill:none;" d="M470.192,635.639c-0.181,0.045-0.371,0.084-0.553,0.131
					C469.821,635.723,470.012,635.684,470.192,635.639z"/>
				<path style="fill:none;" d="M465.27,637.297c-0.161,0.072-0.319,0.148-0.477,0.221
					C464.951,637.445,465.109,637.369,465.27,637.297z"/>
				<path style="fill:none;" d="M467.395,636.453c-0.02,0.008-0.044,0.016-0.063,0.023
					C467.351,636.469,467.375,636.461,467.395,636.453z"/>
				<path style="fill:none;" d="M453.829,646.832c-0.103,0.16-0.205,0.32-0.304,0.483
					C453.624,647.152,453.727,646.992,453.829,646.832z"/>
				<path style="fill:none;" d="M477.636,658.336c-0.04,0-0.075,0.006-0.114,0.006c0.039,0,0.074,0.004,0.114,0.004V658.336z"/>
				<path style="fill:#AFC01D;" d="M426.665,714.707h25.598v-48.863C436.98,675.565,426.665,693.777,426.665,714.707z"/>
				<path style="fill:#69E2DE;" d="M477.521,670.295c-6.077,0-11.082-4.533-11.845-10.402c-4.775,1.264-9.267,3.313-13.414,5.951
					v48.863h25.373v-44.424C477.596,670.285,477.56,670.295,477.521,670.295z"/>
				<path style="fill:#FFFFFF;" d="M477.521,670.295c0.039,0,0.074-0.01,0.114-0.012v-11.938c-0.04,0-0.075-0.004-0.114-0.004
					c-4.081,0-8.044,0.547-11.845,1.551C466.439,665.762,471.444,670.295,477.521,670.295z"/>
				<path style="fill:#002738;" d="M477.636,634.76c-0.04,0-0.075-0.006-0.114-0.006c-0.821,0-1.631,0.041-2.427,0.102
					c-0.245,0.017-0.481,0.047-0.723,0.072c-0.568,0.057-1.133,0.127-1.69,0.215c-0.252,0.039-0.505,0.08-0.758,0.125
					c-0.584,0.107-1.16,0.234-1.732,0.371c-0.181,0.045-0.371,0.084-0.553,0.131c-0.761,0.201-1.511,0.426-2.245,0.684
					c-0.02,0.008-0.044,0.016-0.063,0.023c-0.703,0.248-1.39,0.523-2.061,0.82c-0.161,0.072-0.319,0.148-0.477,0.221
					c-0.55,0.252-1.086,0.522-1.607,0.805c-0.153,0.084-0.308,0.164-0.457,0.25c-0.588,0.336-1.168,0.685-1.725,1.059
					c-0.052,0.035-0.107,0.066-0.158,0.102c-0.643,0.434-1.263,0.895-1.859,1.377c-0.003,0.004-0.008,0.008-0.012,0.01
					c0.004-0.002,0.009-0.006,0.009-0.008c-10.664-5.666-18.392-16.066-20.452-28.398c-0.161,0.016-0.316,0.047-0.474,0.063
					c-0.265,1.852-0.446,3.731-0.446,5.656c0,12.506,5.781,23.627,14.78,30.941c0.205,0.166,0.398,0.34,0.607,0.502
					c6.77,5.287,15.267,8.467,24.521,8.467c0.039,0,0.074-0.006,0.114-0.006v-6.545c-0.04,0-0.075,0.012-0.114,0.012
					c-5.806,0-10.514-4.707-10.514-10.512h10.628V634.76z"/>
				<path style="fill:#002738;" d="M458.976,641.119c-0.643,0.522-1.246,1.076-1.827,1.648
					C457.729,642.195,458.333,641.641,458.976,641.119z"/>
				<path style="fill:#002738;" d="M455.168,644.949c-0.483,0.605-0.92,1.238-1.339,1.883
					C454.248,646.188,454.685,645.555,455.168,644.949z"/>
				<path style="fill:#002738;" d="M455.195,644.912c0.513-0.639,1.069-1.25,1.649-1.842
					C456.265,643.662,455.708,644.271,455.195,644.912z"/>
				<path style="fill:#002738;" d="M452.393,649.373c0.336-0.707,0.723-1.389,1.133-2.058
					C453.115,647.984,452.728,648.666,452.393,649.373z"/>
				<path style="fill:#FFFFFF;" d="M458.984,641.111c0.003-0.002,0.003-0.002,0.003-0.002c0.597-0.482,1.217-0.943,1.859-1.377
					c0.052-0.035,0.106-0.066,0.158-0.102c0.557-0.373,1.133-0.723,1.725-1.059c0.149-0.086,0.304-0.166,0.457-0.25
					c0.522-0.283,1.058-0.553,1.607-0.805c0.157-0.072,0.315-0.148,0.477-0.221c0.671-0.297,1.357-0.572,2.061-0.82
					c0.02-0.008,0.044-0.016,0.063-0.023c0.734-0.258,1.484-0.482,2.245-0.684c0.182-0.047,0.372-0.086,0.553-0.131
					c0.572-0.137,1.148-0.264,1.732-0.371c0.253-0.045,0.506-0.086,0.758-0.125c0.557-0.088,1.121-0.158,1.69-0.215
					c0.241-0.025,0.477-0.055,0.723-0.072c0.801-0.061,1.605-0.102,2.427-0.102c0.039,0,0.074,0.002,0.114,0.002v-30.727
					c-5.711-4.178-10.392-9.684-13.584-16.065c-1.776,13.09-12.315,23.373-25.52,24.748
					C440.593,625.045,448.32,635.445,458.984,641.111z"/>
				<path style="fill:#FFFFFF;" d="M462.729,638.572c-0.592,0.336-1.168,0.685-1.725,1.059
					C461.561,639.258,462.142,638.908,462.729,638.572z"/>
				<path style="fill:#FFFFFF;" d="M460.847,639.732c-0.643,0.434-1.263,0.895-1.859,1.377
					C459.584,640.627,460.204,640.166,460.847,639.732z"/>
				<path style="fill:#FFFFFF;" d="M477.521,634.754c0.039,0,0.074,0.006,0.114,0.006v-0.004
					C477.596,634.756,477.56,634.754,477.521,634.754z"/>
				<path style="fill:#FFFFFF;" d="M464.794,637.518c-0.55,0.252-1.086,0.522-1.607,0.805
					C463.708,638.039,464.244,637.769,464.794,637.518z"/>
				<path style="fill:#FFFFFF;" d="M477.521,634.754c-0.821,0-1.626,0.041-2.427,0.102
					C475.891,634.795,476.7,634.754,477.521,634.754z"/>
				<path style="fill:#FFFFFF;" d="M471.925,635.268c-0.584,0.107-1.16,0.234-1.732,0.371
					C470.765,635.502,471.341,635.375,471.925,635.268z"/>
				<path style="fill:#FFFFFF;" d="M474.372,634.928c-0.568,0.057-1.133,0.127-1.69,0.215
					C473.239,635.055,473.804,634.984,474.372,634.928z"/>
				<path style="fill:#FFFFFF;" d="M469.64,635.769c-0.761,0.201-1.511,0.426-2.245,0.684
					C468.129,636.195,468.879,635.971,469.64,635.769z"/>
				<path style="fill:#FFFFFF;" d="M467.331,636.477c-0.703,0.248-1.39,0.523-2.061,0.82
					C465.941,637,466.628,636.725,467.331,636.477z"/>
				<path style="fill:#FFFFFF;" d="M467.008,641.291c0,5.805,4.708,10.512,10.514,10.512c0.039,0,0.074-0.012,0.114-0.012v-10.5
					H467.008z"/>
				<path style="fill:#002738;" d="M479.948,634.856c0.245,0.017,0.482,0.047,0.723,0.072
					C480.43,634.902,480.193,634.873,479.948,634.856z"/>
				<path style="fill:#002738;" d="M497.902,642.775c0.095,0.094,0.193,0.189,0.288,0.285
					C498.096,642.965,497.997,642.871,497.902,642.775z"/>
				<path style="fill:#002738;" d="M494.063,639.644c0.039,0.027,0.082,0.055,0.126,0.082
					C494.145,639.699,494.102,639.672,494.063,639.644z"/>
				<path style="fill:#002738;" d="M489.776,637.299c0.157,0.07,0.311,0.145,0.465,0.215
					C490.088,637.443,489.934,637.369,489.776,637.299z"/>
				<path style="fill:#002738;" d="M491.867,638.326c0.147,0.08,0.293,0.158,0.439,0.242
					C492.16,638.484,492.014,638.406,491.867,638.326z"/>
				<path style="fill:#002738;" d="M487.652,636.453c0.017,0.004,0.028,0.012,0.044,0.018
					C487.681,636.465,487.669,636.457,487.652,636.453z"/>
				<path style="fill:#002738;" d="M499.848,644.916c0.004,0.006,0.009,0.012,0.012,0.018
					C499.856,644.928,499.852,644.922,499.848,644.916z"/>
				<path style="fill:#002738;" d="M501.214,646.836c0.102,0.158,0.201,0.316,0.3,0.473
					C501.415,647.152,501.316,646.994,501.214,646.836z"/>
				<path style="fill:#002738;" d="M482.36,635.143c0.253,0.039,0.505,0.08,0.757,0.125
					C482.865,635.223,482.613,635.182,482.36,635.143z"/>
				<path style="fill:#002738;" d="M484.847,635.639c0.186,0.045,0.375,0.084,0.557,0.131
					C485.222,635.723,485.032,635.684,484.847,635.639z"/>
				<path style="fill:#7EA800;" d="M502.781,665.844v48.863h25.594C528.375,693.777,518.058,675.565,502.781,665.844z"/>
				<path style="fill:#DCDCDC;" d="M489.361,659.893c-3.765-0.994-7.688-1.539-11.726-1.547v11.938
					C483.658,670.227,488.607,665.723,489.361,659.893z"/>
				<path style="fill:#002738;" d="M516.74,611.201c-1.658,12.992-9.587,24.014-20.684,29.91c-0.597-0.484-1.22-0.947-1.867-1.385
					c-0.044-0.027-0.087-0.055-0.126-0.082c-0.568-0.379-1.157-0.736-1.757-1.076c-0.146-0.084-0.292-0.162-0.439-0.242
					c-0.532-0.287-1.073-0.557-1.626-0.813c-0.153-0.07-0.308-0.145-0.465-0.215c-0.679-0.299-1.37-0.578-2.08-0.828
					c-0.016-0.006-0.027-0.014-0.044-0.018c-0.734-0.258-1.488-0.482-2.249-0.684c-0.182-0.047-0.371-0.086-0.557-0.131
					c-0.568-0.139-1.145-0.264-1.729-0.371c-0.252-0.045-0.504-0.086-0.757-0.125c-0.557-0.088-1.121-0.158-1.689-0.215
					c-0.241-0.025-0.478-0.055-0.723-0.072c-0.761-0.059-1.534-0.094-2.313-0.096v6.531h10.396c0,5.766-4.646,10.438-10.396,10.5
					v6.545c9.208-0.025,17.662-3.195,24.407-8.461c0.204-0.162,0.401-0.336,0.603-0.502c9.002-7.314,14.784-18.438,14.784-30.941
					C517.431,615.957,517.175,613.549,516.74,611.201z"/>
				<path style="fill:#002738;" d="M497.902,642.775c-0.589-0.578-1.196-1.137-1.847-1.664l0,0
					C496.706,641.639,497.313,642.199,497.902,642.775z"/>
				<path style="fill:#002738;" d="M502.646,649.373c-0.336-0.707-0.723-1.391-1.133-2.064
					C501.924,647.981,502.31,648.666,502.646,649.373z"/>
				<path style="fill:#002738;" d="M499.859,644.934c0.489,0.613,0.932,1.252,1.355,1.902
					C500.795,646.185,500.349,645.547,499.859,644.934z"/>
				<path style="fill:#002738;" d="M498.19,643.06c0.584,0.596,1.141,1.213,1.657,1.856
					C499.335,644.271,498.774,643.656,498.19,643.06z"/>
				<path style="fill:#DCDCDC;" d="M479.948,634.856c0.245,0.017,0.482,0.047,0.723,0.072c0.568,0.057,1.133,0.127,1.689,0.215
					c0.253,0.039,0.505,0.08,0.757,0.125c0.585,0.107,1.161,0.234,1.729,0.371c0.186,0.045,0.375,0.084,0.557,0.131
					c0.761,0.201,1.515,0.426,2.249,0.684c0.017,0.004,0.028,0.012,0.044,0.018c0.71,0.25,1.401,0.529,2.08,0.828
					c0.157,0.07,0.311,0.145,0.465,0.215c0.553,0.256,1.094,0.525,1.626,0.813c0.147,0.08,0.293,0.158,0.439,0.242
					c0.6,0.34,1.188,0.697,1.757,1.076c0.039,0.027,0.082,0.055,0.126,0.082c0.647,0.438,1.271,0.9,1.867,1.385
					c11.098-5.897,19.026-16.918,20.684-29.91c-0.028-0.164-0.04-0.332-0.071-0.494c-4.049,1.215-8.324,1.895-12.764,1.895
					c-9.827,0-18.905-3.182-26.27-8.572v30.727C478.414,634.76,479.188,634.797,479.948,634.856z"/>
				<path style="fill:#002738;" d="M496.056,641.111c-0.597-0.484-1.22-0.947-1.867-1.385
					C494.836,640.164,495.459,640.627,496.056,641.111L496.056,641.111z"/>
				<path style="fill:#002738;" d="M492.306,638.568c0.6,0.34,1.188,0.697,1.757,1.076
					C493.494,639.266,492.905,638.908,492.306,638.568z"/>
				<path style="fill:#002738;" d="M480.671,634.928c0.568,0.057,1.133,0.127,1.689,0.215
					C481.804,635.055,481.239,634.984,480.671,634.928z"/>
				<path style="fill:#002738;" d="M483.117,635.268c0.585,0.107,1.161,0.232,1.729,0.371
					C484.278,635.502,483.702,635.375,483.117,635.268z"/>
				<path style="fill:#002738;" d="M477.636,634.756v0.004c0.778,0.002,1.552,0.037,2.313,0.096
					C479.188,634.797,478.414,634.76,477.636,634.756z"/>
				<path style="fill:#002738;" d="M485.403,635.769c0.761,0.201,1.515,0.426,2.249,0.684
					C486.918,636.195,486.164,635.971,485.403,635.769z"/>
				<path style="fill:#002738;" d="M490.241,637.514c0.553,0.256,1.094,0.525,1.626,0.813
					C491.335,638.039,490.794,637.769,490.241,637.514z"/>
				<path style="fill:#002738;" d="M487.696,636.471c0.71,0.25,1.401,0.529,2.08,0.828C489.098,637,488.406,636.721,487.696,636.471
					z"/>
				<path style="fill:#DCDCDC;" d="M488.031,641.291h-10.396v10.5C483.386,651.729,488.031,647.057,488.031,641.291z"/>
			</g>
		</g>
		<g>
			<polygon style="fill:none;" points="636.944,660.068 636.942,660.068 636.944,660.068 			"/>
			<path style="fill:#FF5B45;" d="M636.942,683.106c-10.751,0-19.757-7.375-22.295-17.338c-16.911,9.16-28.559,28.402-28.559,50.668
				h50.855v-33.33H636.942z"/>
			<path style="fill:#FFFFFF;" d="M636.942,683.106h0.002v-23.037h-0.002c-8,0-15.562,2.053-22.295,5.699
				C617.185,675.731,626.191,683.106,636.942,683.106z"/>
			<path style="fill:#FFFFFF;" d="M636.944,599.047c0-0.002-0.002-0.002-0.002-0.002c-4.376,11.135-15.778,19.094-29.197,19.094
				c-3.698,0-7.231-0.635-10.522-1.74c-0.113,1.24-0.188,2.492-0.188,3.762c0,22.043,17.87,39.908,39.908,39.908h0.002V599.047z"/>
			<path style="fill:#AFC01D;" d="M636.942,599.045c0,0,0.002,0,0.002,0.002v-18.795h-0.002c-20.771,0-37.821,15.871-39.72,36.146
				c3.291,1.106,6.824,1.74,10.522,1.74C621.164,618.139,632.566,610.18,636.942,599.045z"/>
			<path style="fill:#EF3522;" d="M659.242,665.768c-2.543,9.963-11.547,17.338-22.298,17.338v33.33H687.8
				C687.8,694.17,676.148,674.928,659.242,665.768z"/>
			<path style="fill:#DCDCDC;" d="M659.242,665.768c-6.734-3.646-14.298-5.699-22.298-5.699v23.037
				C647.695,683.106,656.699,675.731,659.242,665.768z"/>
			<path style="fill:#DCDCDC;" d="M636.944,599.047v61.022c22.041,0,39.907-17.865,39.907-39.908c0-1.27-0.075-2.522-0.189-3.762
				c-3.292,1.106-6.824,1.74-10.522,1.74C652.724,618.139,641.323,610.182,636.944,599.047z"/>
			<path style="fill:#7EA800;" d="M666.141,618.139c3.697,0,7.229-0.635,10.522-1.74c-1.898-20.275-18.948-36.146-39.718-36.146
				v18.795C641.323,610.182,652.724,618.139,666.141,618.139z"/>
		</g>
	</g>
</g>
</svg>
